<svg width="28" height="28" viewBox="0 0 28 28" fill="none" xmlns="http://www.w3.org/2000/svg">
	<circle cx="13.6104" cy="13.6104" r="13.1104" fill="white" stroke="black" />
	<path d="M22.8437 15.0253C22.6179 12.3467 21.7036 9.92335 20.3114 7.6969C20.2456 7.59241 20.1496 7.48993 20.0461 7.43969C18.9813 6.92126 17.8713 6.55956 16.7218 6.32044C16.5167 6.27824 16.4095 6.36063 16.3286 6.54952C16.2233 6.79668 16.1028 7.03982 15.9787 7.30305C14.6298 7.09206 13.2902 7.10211 11.9413 7.29703C11.8134 7.02374 11.6967 6.80471 11.6064 6.57564C11.5105 6.32848 11.3581 6.28025 11.1267 6.3325C10.0374 6.56961 8.97632 6.90519 7.96416 7.39951C7.81177 7.47386 7.66314 7.61251 7.57096 7.7612C6.91813 8.81013 6.38195 9.92536 5.953 11.1009C5.13085 13.3615 4.87688 15.7085 5.01986 18.1158C5.03491 18.379 5.12333 18.5639 5.33592 18.7006C5.62377 18.8854 5.89468 19.1004 6.18065 19.2893C7.18528 19.9544 8.252 20.4709 9.37516 20.8627C9.49369 20.9029 9.60657 20.9652 9.70628 20.8205C10.043 20.3282 10.3422 19.8138 10.5962 19.2431C10.092 18.9799 9.61786 18.7307 9.13623 18.4775C9.30179 18.1882 9.47299 18.1841 9.7044 18.2906C11.3374 19.0402 13.04 19.3677 14.8179 19.211C16.0013 19.1045 17.1319 18.793 18.2212 18.2906C18.5166 18.154 18.5185 18.16 18.7762 18.4815C18.2908 18.7347 17.813 18.9839 17.2881 19.2572C17.5816 19.7656 17.8619 20.2378 18.1328 20.716C18.2363 20.8989 18.3548 20.931 18.5523 20.8627C19.9878 20.3543 21.3217 19.639 22.5634 18.7186C22.7891 18.5519 22.9077 18.363 22.902 18.0716C22.8832 17.0548 22.9283 16.034 22.8437 15.0253ZM11.9488 15.8472C11.3882 16.3656 10.6093 16.3636 10.0449 15.8532C9.2096 15.0997 9.19832 13.6006 10.0205 12.833C10.7034 12.196 11.7193 12.3507 12.2499 13.1686C12.4606 13.4961 12.5678 13.8799 12.5678 14.32C12.5659 14.9228 12.3834 15.4453 11.9488 15.8472ZM18.05 15.6965C17.4066 16.448 16.3587 16.4078 15.7661 15.6C15.4933 15.2303 15.3578 14.8083 15.3691 14.3763C15.3635 13.7975 15.5215 13.3253 15.8733 12.9355C16.4848 12.2583 17.4574 12.2764 18.0519 12.9717C18.684 13.7111 18.6822 14.959 18.05 15.6965Z" fill="black" />
</svg>
