<svg width="28" height="28" viewBox="0 0 28 28" fill="none" xmlns="http://www.w3.org/2000/svg">
	<circle cx="13.8821" cy="13.6104" r="13.1104" fill="white" stroke="black" />
	<path d="M22.5103 9.27291C22.5103 9.36882 22.5103 9.46472 22.5103 9.56063C21.9863 10.0917 21.4605 10.6174 20.9455 11.1573C20.8837 11.2231 20.8855 11.3545 20.8764 11.4557C20.8236 12.0045 20.8291 12.5622 20.7217 13.1004C19.4207 19.6027 13.0104 22.384 7.47163 20.1497C6.92576 19.9295 6.43448 19.5778 5.91772 19.2883C5.91772 19.2155 5.91772 19.1444 5.91772 19.0716C6.06511 19.0414 6.21613 18.9757 6.3617 18.9846C7.62812 19.0716 8.83085 18.862 9.95534 18.2741C10.0645 18.2173 10.1664 18.1498 10.3247 18.0575C9.10742 17.7093 8.27952 17.0362 7.82827 15.9528C7.65359 15.5319 7.70818 15.4359 8.18126 15.356C8.09938 15.2956 8.03206 15.2477 7.96655 15.198C7.15867 14.5692 6.68558 13.7558 6.5855 12.7505C6.52364 12.1218 6.6128 12.0667 7.20962 12.2905C7.25147 12.3065 7.30059 12.3065 7.38429 12.3189C7.31333 12.2177 7.2642 12.152 7.22053 12.0845C6.49635 10.9815 6.38899 9.82882 6.94214 8.62996C7.16959 8.13621 7.32243 8.122 7.68816 8.53583C9.02008 10.0349 10.6868 10.9833 12.6629 11.4202C13.014 11.4984 13.3743 11.5321 13.7364 11.5872C13.7473 11.4966 13.7546 11.4611 13.7528 11.4273C13.6836 9.89987 14.315 8.72587 15.7088 8.0403C17.088 7.36183 18.4163 7.5572 19.6336 8.4932C19.7355 8.57135 19.9357 8.61398 20.0557 8.57313C20.5525 8.4044 21.031 8.19127 21.5223 8.01011C21.657 7.96037 21.8134 7.97103 21.9608 7.95327C21.9681 8.10601 22.0263 8.28185 21.9718 8.40973C21.8225 8.75074 21.6242 9.07221 21.4222 9.44519C21.6042 9.38125 21.7461 9.3031 21.899 9.28356C22.0973 9.25159 22.3047 9.27113 22.5103 9.27291Z" fill="black" />
</svg>
