<?xml version="1.0" standalone="no"?>
<!DOCTYPE svg PUBLIC "-//W3C//DTD SVG 1.1//EN" "http://www.w3.org/Graphics/SVG/1.1/DTD/svg11.dtd" >
<svg xmlns="http://www.w3.org/2000/svg" xmlns:xlink="http://www.w3.org/1999/xlink" version="1.1">
<metadata>
Created by FontForge 20200427 at Mon Nov 19 19:30:52 2012
 By www
Copyright 2006 Chank Co. All rights reserved. Do not redistribute or alter this font without permission.
</metadata>
<defs>
<font id="ChaloopsW00-Bd" horiz-adv-x="514" >
  <font-face 
    font-family="ChaloopsW00-Bd"
    font-weight="700"
    font-stretch="normal"
    units-per-em="1000"
    panose-1="2 0 5 6 3 0 0 2 0 4"
    ascent="740"
    descent="-260"
    x-height="499"
    cap-height="689"
    bbox="-111 -495 1006.75 1172"
    underline-thickness="20"
    underline-position="-153"
    unicode-range="U+0020-FB02"
  />
<missing-glyph horiz-adv-x="558" 
d="M472 67v589l-178 -294zM78 659v-594l180 297zM276 392l180 297h-360zM94 33h363l-181 300zM504 0h-456v722h456v-722z" />
    <glyph glyph-name=".notdef" horiz-adv-x="558" 
d="M472 67v589l-178 -294zM78 659v-594l180 297zM276 392l180 297h-360zM94 33h363l-181 300zM504 0h-456v722h456v-722z" />
    <glyph glyph-name="glyph1" horiz-adv-x="0" 
 />
    <glyph glyph-name="glyph2" horiz-adv-x="268" 
 />
    <glyph glyph-name="space" unicode=" " horiz-adv-x="268" 
 />
    <glyph glyph-name="exclam" unicode="!" horiz-adv-x="302" 
d="M187 -10q0 -17 -6 -33.5t-17 -29.5t-27.5 -21t-37.5 -8q-42 0 -64 26t-22 62q0 35 24 61.5t65 26.5q33 0 59 -24t26 -60zM124 172q-14 1 -27 4t-23 5l-22 6q8 72 13 132q2 25 4.5 50t4 46t2 35t0.5 19t0.5 20.5t1.5 38t2.5 49.5t3.5 54q4 64 8 143l187 -19
q-2 -17 -5.5 -53t-7 -75t-6.5 -73.5t-4 -46.5q-4 -22 -9.5 -60.5t-10.5 -84.5q-2 -19 -6 -50.5t-8 -62.5q-4 -36 -10 -77q-15 -2 -30 -3q-13 -1 -28.5 -0.5t-29.5 3.5z" />
    <glyph glyph-name="quotedbl" unicode="&#x22;" horiz-adv-x="488" 
d="M429 692q-2 -25 -5 -47l-4 -38t-2 -29q-1 -11 -2.5 -32t-3.5 -44t-4.5 -45.5t-4.5 -37.5q-8 -5 -24.5 -8.5t-36 -5.5t-38 -2t-30.5 2q-1 42 -2 78q-1 31 -1.5 59.5t0.5 39.5q2 12 1 36t-2.5 48t-3.5 42t-2 20q31 2 62 3q26 1 55 0.5t50 -4.5zM199 661q-3 -25 -6 -47
q-2 -19 -4 -38.5t-2 -29.5q0 -11 -0.5 -33.5t0 -47t1 -48t2.5 -36.5q-8 -5 -26.5 -7t-40.5 -2t-42.5 1t-32.5 3q-1 38 -2 72q-1 29 -2.5 58t-2.5 45q-1 12 -2 35.5t-2 47.5t-2 42.5t-1 20.5q31 2 62 3q26 1 55 0t50 -5z" />
    <glyph glyph-name="numbersign" unicode="#" horiz-adv-x="619" 
d="M285 426q-5 -23 -9.5 -46.5t-7.5 -43.5q10 -1 17 -1.5t13 -0.5t14 -0.5t20 -1.5q1 8 3.5 20.5t5.5 25.5t6 25.5t5 20.5zM546 412q-4 0 -13 1q-8 1 -21 1.5t-33 2.5q-5 -19 -9.5 -39.5t-9.5 -39.5l-3 -10l-2 -7q17 -2 33.5 -3.5t30.5 -3.5q16 -2 30 -3l-19 -103h-35
q-15 0 -33 0.5t-35 2.5q-6 -26 -13 -55.5t-12 -54.5q-6 -29 -12 -57l-122 2q6 27 11 55q5 24 10.5 51.5t10.5 51.5l4 16q-10 -1 -28 1t-28 1q-5 -31 -10.5 -61.5t-10.5 -54.5q-6 -29 -12 -55l-121 7q5 25 10 53q5 24 10.5 53.5t10.5 60.5q-21 1 -41 1.5t-37 1.5q-19 1 -37 1
l38 104q9 0 22 1q11 1 29.5 2t45.5 3l12 56l6 33q-19 1 -37.5 1.5t-32.5 0.5h-33l41 110q9 0 21 1q11 0 26.5 0.5t37.5 -0.5q4 21 8 41t8 37l8 36l119 -4q-3 -18 -7 -37q-3 -17 -7 -38t-9 -42q12 -2 35 -2t39 1l10 44t9 39q4 20 8 38l121 -17q-5 -20 -9 -40q-4 -17 -7 -37
t-5 -37q11 -1 25.5 -1t28.5 -0.5t26.5 -0.5t19.5 -1l-24 -114z" />
    <glyph glyph-name="dollar" unicode="$" horiz-adv-x="475" 
d="M156 449q-2 -9 1.5 -16t10 -13t15.5 -10t18 -7q4 32 6.5 57.5t4.5 48.5q-17 -10 -34 -24.5t-22 -35.5zM277 158q22 -3 42.5 8t22.5 25q3 23 -11 44.5t-46 26.5q-2 -16 -3.5 -46.5t-4.5 -57.5zM373 463q-8 24 -24.5 38t-34.5 19q-1 -11 -2 -18t-1.5 -14t-1.5 -15.5
t-3 -20.5q-2 -19 -4.5 -37t-4.5 -43q88 -25 125.5 -77t23.5 -126q-6 -31 -27 -52t-48 -33t-56 -16t-51 -2q-6 -57 -18.5 -111t-25.5 -109l-95 14q10 36 18 74q7 32 13 70.5t6 73.5q-38 20 -76.5 50.5t-65.5 56.5l69 75q9 -8 21.5 -17.5t25 -18.5t24.5 -17.5t21 -14.5
q2 29 5 56.5t6 53.5l-24 6q-31 8 -58.5 24t-47 38t-28 48t-2.5 55q6 26 24 51.5t43.5 46t56 34t61.5 16.5q4 59 4.5 108t0.5 75q9 2 23 2t29 -2t29.5 -6t23.5 -10q1 -17 2 -42q0 -21 -0.5 -52.5t-5.5 -73.5q18 -6 34 -11.5t31 -14.5q16 -11 33.5 -27.5t29.5 -36.5z" />
    <glyph glyph-name="percent" unicode="%" horiz-adv-x="594" 
d="M555 211q0 -23 -6 -40.5t-14 -29.5q-9 -14 -19 -24q-8 -4 -26 -8.5t-37 -4.5q-20 0 -37 7v-1q-7 3 -17.5 10t-21 17.5t-18 23t-7.5 27.5q0 10 6.5 26t19.5 32t31 28.5t41 16.5q29 2 48.5 -7.5t32 -23.5t18 -28.5t6.5 -20.5zM173 559q32 -13 45.5 -35.5t13.5 -48.5
q0 -31 -18 -61.5t-49 -45.5q-8 -3 -24 -7t-33 -4q-26 0 -49 9t-34 35q-5 10 -8.5 22.5t-3.5 25.5q0 20 7 39.5t17 33.5q17 21 42 32t53 11q11 0 21.5 -1t20.5 -5h-1zM485 515q-34 -49 -66 -94q-14 -19 -28 -39.5t-27 -39.5t-24 -36t-19 -30q-17 -28 -44.5 -70.5t-53.5 -84.5
q-31 -48 -64 -100l-88 61q33 49 63 95q26 39 51.5 80.5t41.5 68.5q8 13 20.5 32t27 40.5t30.5 44.5t31 45q36 51 77 108l89 -61z" />
    <glyph glyph-name="ampersand" unicode="&#x26;" horiz-adv-x="625" 
d="M248 474q22 11 37.5 34.5t13.5 47.5q-1 11 -2.5 20.5t-6.5 16.5t-14.5 10.5t-26.5 3.5q-10 -5 -16.5 -19.5t-6.5 -29.5q0 -11 2.5 -24t6 -25t7.5 -22t6 -13zM250 97q19 0 36.5 13t34.5 35q-15 18 -28 34t-25.5 32t-25 32.5t-26.5 35.5q-19 -15 -27 -40.5t-8 -54.5
q0 -15 3.5 -30.5t12 -28t21.5 -20.5t32 -8zM505 -43q-17 9 -31.5 21.5t-27.5 25.5t-24 24.5t-19 19.5q-12 -15 -30.5 -30.5t-40.5 -27.5t-47 -19.5t-49 -7.5q-56 0 -88 12.5t-58 35.5q-35 35 -50 85t-15 94q0 28 9.5 57t25.5 55t37.5 46t45.5 30q-8 10 -19.5 24.5
t-13.5 18.5l1 -1q-6 11 -12 26.5t-10 32.5t-6.5 33.5t-2.5 28.5q0 8 1 22.5t3 30.5t5 32t8 27q8 18 25 33t39.5 25.5t48.5 16t53 5.5q18 0 38 -3t38.5 -9t34 -15.5t25.5 -22.5q20 -26 25 -56.5t5 -70.5q0 -14 -3 -30t-7.5 -32t-10 -30.5t-11.5 -26.5q-12 -22 -28.5 -40.5
t-35.5 -34.5q15 -21 35.5 -46.5t34.5 -43.5q6 12 16 29.5t21 35t21 33.5t16 25q12 -3 25.5 -12.5t26 -22.5t24.5 -28.5t21 -30.5q-21 -21 -39 -42q-16 -18 -31 -40t-21 -41q10 -11 26 -24t34 -27t35.5 -28t31.5 -25z" />
    <glyph glyph-name="quotesingle" unicode="'" horiz-adv-x="220" 
d="M189 661q-2 -25 -5 -47q-2 -19 -4 -38.5t-2 -29.5q0 -11 -0.5 -33.5t0 -47t1 -48t2.5 -36.5q-8 -5 -27 -7t-40.5 -2t-42 1t-32.5 3q-1 38 -3 72q-2 29 -3 58t-2 45q-1 12 -2 35.5t-2 47.5t-1.5 42.5t-0.5 20.5q31 2 62 3q26 1 55 0t50 -5z" />
    <glyph glyph-name="parenleft" unicode="(" horiz-adv-x="296" 
d="M207 -125q-91 114 -144 235t-53 242q0 65 11.5 124.5t31 118t46 118t55.5 124.5l143 -64l-40 -86v1q-10 -18 -19 -36.5t-17 -44.5l-7 -25q-16 -52 -29 -107t-13 -108q0 -103 40.5 -205.5t112.5 -191.5z" />
    <glyph glyph-name="parenright" unicode=")" horiz-adv-x="315" 
d="M303 336q2 -122 -49 -243.5t-140 -237.5l-119 94q69 90 108.5 193.5t38.5 206.5q-2 56 -15 108.5t-29 103.5q-2 8 -5.5 15t-5.5 14l1 -1q-7 23 -17 43.5t-21 39.5q-3 6 -9 17t-12.5 23.5t-12 23.5l-8.5 17l145 65q1 -3 5 -12.5t8.5 -19.5t8.5 -19.5t6 -12.5v1
q24 -52 46 -101t38.5 -99t26.5 -104t11 -115z" />
    <glyph glyph-name="asterisk" unicode="*" horiz-adv-x="522" 
d="M354 557q15 -42 31 -87t31 -86l-38 -39l-137 98q-9 -11 -20.5 -25.5t-23.5 -30t-24 -31.5t-23 -28l-64 26q3 12 7.5 31t10 41t11.5 44.5t11 40.5q-25 14 -48.5 27t-52.5 24l9 54l133 30q14 44 30 86t31 76l59 -17l25 -114q14 3 34.5 8.5t41.5 11.5t39.5 11.5t29.5 8.5
l30 -47z" />
    <glyph glyph-name="plus" unicode="+" horiz-adv-x="522" 
d="M478 242q-28 -2 -55 -3q-23 -1 -50 -1.5t-49 0.5q-1 -27 0.5 -57t3.5 -56q2 -30 5 -59l-142 25q-4 24 -7 50q-3 22 -5 48.5t-1 51.5q-23 -1 -46 -0.5t-43 1.5q-23 1 -44 1q-5 9 -6 29t0 40q1 24 4 52q30 1 56 3q23 2 45.5 3.5t33.5 3.5v116q0 32 -1 63l143 -20
q1 -27 3 -53q2 -23 2.5 -49.5t0.5 -49.5q23 -2 51 -2.5t52 -0.5h56z" />
    <glyph glyph-name="comma" unicode="," horiz-adv-x="250" 
d="M213 37q0 -26 -12.5 -52t-33 -51.5t-47.5 -49t-57 -42.5l-47 89q10 6 22.5 15t22.5 19.5t17 21t7 18.5v2q-29 5 -44 25.5t-15 50.5q0 16 7.5 31.5t20 27t30 18.5t38.5 7q25 0 42.5 -10.5t28.5 -28.5t15.5 -41.5t4.5 -49.5z" />
    <glyph glyph-name="hyphen" unicode="-" horiz-adv-x="434" 
d="M373 220q-26 -3 -68 -4.5t-86 -3.5q-22 -1 -52 -2.5t-59 -3t-54 -3t-38 -2.5l-12 143q12 1 36 2.5t52.5 3t57.5 3t50 2.5q23 1 54 2.5t61 3.5t55.5 4t38.5 4l11 -108z" />
    <glyph glyph-name="period" unicode="." horiz-adv-x="265" 
d="M228 85q0 -18 -6.5 -36t-19 -32.5t-31 -23t-41.5 -8.5q-46 0 -70 28.5t-24 67.5q0 19 7 36t20 30.5t31 21.5t40 8q18 0 35 -7t30 -19t21 -29t8 -37z" />
    <glyph glyph-name="slash" unicode="/" horiz-adv-x="522" 
d="M510 737q-39 -72 -75 -139q-15 -29 -31.5 -59t-31.5 -58.5t-28.5 -54.5t-22.5 -45q-16 -32 -37.5 -73.5t-45.5 -87.5t-47.5 -93.5t-44.5 -89.5t-36.5 -76t-22.5 -53q-10 2 -25.5 8.5t-29.5 12.5q-18 7 -36 16q48 98 92 188q19 38 38.5 78.5t38 78t34.5 71t28 58.5
q23 49 52.5 112t57.5 123t49 108t27 68q15 2 33 -0.5t36.5 -8.5t35.5 -14t28 -17z" />
    <glyph glyph-name="zero" unicode="0" horiz-adv-x="613" 
d="M416 271q0 18 -4.5 44.5t-13 53.5t-19.5 50.5t-24 36.5q-5 4 -14 9.5t-18 10t-16 7.5t-8 3q-15 0 -24 -1t-15.5 -3.5t-11.5 -6t-11 -9.5q-7 -6 -15.5 -26t-16 -47t-13 -56.5t-5.5 -53.5q0 -39 4.5 -68t19 -48.5t41 -29t71.5 -9.5q19 0 33.5 7.5t25.5 20.5q9 9 15.5 23
t10.5 29.5t6 31.5t2 31zM586 271q0 -62 -19.5 -115t-55 -92t-85.5 -61.5t-111 -22.5q-80 0 -136 20.5t-91.5 58t-52 90.5t-16.5 117q0 41 6.5 85t19 84.5t32 75.5t45.5 59q19 18 35.5 29t36 18t44.5 9.5t61 2.5q24 0 49.5 -6.5t49.5 -16.5t43.5 -22t31.5 -24
q23 -22 43.5 -58.5t36 -77.5t24.5 -82t9 -71z" />
    <glyph glyph-name="one" unicode="1" horiz-adv-x="457" 
d="M50 -36l-2 144l99 2q-1 20 -1.5 41.5t-1 41.5t-0.5 37.5v29.5q1 30 2 58.5t3 56.5q0 5 0.5 10t0.5 10q-6 -7 -12.5 -15t-12.5 -15.5t-10.5 -12.5t-5.5 -6l-77 123q14 20 26 38q11 15 22 31t19 25l23 28q15 19 32 40t36 42q15 5 33.5 6.5t36.5 0t34.5 -4.5t28.5 -6
q0 -21 1 -42q0 -18 0.5 -39t0.5 -39v-51t-2 -46v1q-3 -57 -5 -116t-2 -119v-30v-22v-21t1 -28q28 2 55.5 2.5t43.5 1.5l2 -143z" />
    <glyph glyph-name="two" unicode="2" horiz-adv-x="553" 
d="M522 21q-18 1 -31 2q-12 1 -21.5 2t-11.5 1q-21 2 -54 0.5t-71.5 -6.5t-78.5 -12.5t-75 -17.5l-83 -23l-70 91q27 31 52 57q21 23 41.5 45.5t30.5 34.5q23 29 51 72.5t52 85.5q8 16 15.5 35t13 37.5t8.5 36t3 29.5q0 8 -6 17t-14.5 16.5t-18 12t-16.5 4.5q-4 0 -11.5 -3
t-15 -8t-14.5 -10.5t-10 -9.5t-12.5 -19.5t-20.5 -33t-20 -32t-10 -16.5l-116 91q9 17 19 32q8 13 16.5 26.5t13.5 21.5q16 23 33 38t39 33q21 17 56 24.5t71 7.5q37 0 75 -17t68.5 -45.5t48.5 -64.5t15 -73q-2 -48 -18.5 -94.5t-42.5 -93.5h1q-9 -18 -24 -37t-31.5 -38
t-34 -38t-32.5 -38q21 8 53 15.5t56 12.5q34 7 71 10t68 3z" />
    <glyph glyph-name="three" unicode="3" horiz-adv-x="582" 
d="M543 36q-15 -41 -44.5 -72t-67.5 -51.5t-82.5 -30.5t-90.5 -10q-61 0 -118 16.5t-97 51.5q-13 11 -16.5 13.5t-12.5 11.5l65 152q12 -14 22 -25q4 -5 8.5 -9.5t7.5 -8.5q4 -4 7 -8q31 -31 58.5 -40.5t61.5 -9.5q20 0 41.5 3t41 11t35 21.5t22.5 33.5q12 34 12 61
t-8.5 42.5t-16.5 23.5q-14 3 -38.5 4.5t-45.5 1.5h-17.5t-23 -0.5t-21 -0.5h-12.5l-38 79q22 28 40 53q16 21 31.5 42t21.5 30l5 6q-55 2 -115 2h-105l8 149q47 -1 88 -3q17 -1 35 -1.5t33.5 -1t28.5 -1t20 -0.5q17 -1 51 -2.5t68 -3.5q40 -2 83 -4l38 -70
q-16 -16 -33.5 -35.5t-34 -39t-30.5 -37t-23 -30.5q13 -2 28.5 -4.5t30 -6t27 -9.5t20.5 -13q10 -11 23 -27t24.5 -37t19.5 -47.5t8 -58.5q0 -24 -5 -51t-17 -59h-1z" />
    <glyph glyph-name="four" unicode="4" horiz-adv-x="617" 
d="M307 493q-18 -16 -36.5 -39.5t-35.5 -48.5t-30.5 -48t-19.5 -38q4 -1 20 -0.5t34 1.5t34 1.5t21 0.5zM566 169l-110 9q-2 -20 -3.5 -58t-2.5 -77.5t-2 -73t-1 -42.5l-171 2q1 21 2 43q1 19 2 40t2 41q1 12 1.5 28.5t0.5 34.5t0.5 35t1.5 29q-22 2 -36.5 3t-26.5 1.5
t-23.5 0.5h-27.5q-13 0 -30.5 -1.5t-34 -3t-29 -2.5t-15.5 -1q-5 11 -10.5 26.5t-7.5 20.5q-5 11 -11 24t-11 30q23 56 53.5 118.5t67.5 120.5t80 105.5t90 74.5v6.5t1 6.5q16 -2 37.5 -5t45 -6.5t45.5 -8t39 -8.5l-8 -56q-3 -24 -6.5 -51.5t-4.5 -49.5q-3 -19 -4.5 -44
t-3 -52t-2.5 -54.5t-1 -51.5q8 2 28.5 3t40.5 3q24 2 52 3z" />
    <glyph glyph-name="five" unicode="5" horiz-adv-x="522" 
d="M489 131q-4 -37 -13 -74t-23.5 -70t-35 -60.5t-45.5 -46.5q-31 -24 -70 -34.5t-83 -10.5q-30 0 -53 4.5t-45 15t-43.5 27t-48.5 40.5l53 132q15 -11 26 -21q10 -8 19 -15.5t13 -9.5q17 -11 38 -18t41 -7q28 0 49 15h-1q14 11 32 46.5t26 87.5q3 21 3 45q0 38 -6 58.5
t-11 27.5v-1q-7 7 -21 11.5t-32 7.5t-39 4t-40 1q-21 0 -58.5 -3t-72.5 -7q-1 33 -2 60q-1 23 -1.5 45t0.5 30q1 24 -1 49.5t-5.5 50t-7 47t-5.5 40.5q19 -2 42 -0.5t47 4t47 5.5t41 5q16 2 31.5 4t36 6t48 10t68.5 17l27 -155q-9 -6 -40 -6.5t-69 1.5t-74 5.5t-54 5.5
q0 -5 1 -17.5t1.5 -26.5t1.5 -26.5t2 -17.5q10 1 26.5 2.5t26.5 1.5q48 0 87 -6.5t69 -23.5q46 -27 73 -76t27 -126q0 -28 -3 -53z" />
    <glyph glyph-name="six" unicode="6" horiz-adv-x="483" 
d="M243 144q12 -3 24 0t22 9.5t16.5 15.5t8.5 18q3 14 -4.5 31.5t-33.5 21.5q-31 0 -51.5 -12t-22.5 -26q-3 -27 8.5 -38.5t32.5 -19.5zM445 223q0 -36 -14 -74t-39.5 -69.5t-61.5 -51.5t-80 -20q-51 0 -90.5 22t-66 56.5t-40 78t-13.5 86.5q0 56 20.5 130.5t62.5 149.5
q25 45 54 84.5t61 70.5l95 -134q-41 -39 -75 -97q-17 -29 -30.5 -60.5t-22.5 -61.5q20 14 43.5 22t51.5 8q36 0 63 -11t45 -29.5t27.5 -44t9.5 -55.5z" />
    <glyph glyph-name="seven" unicode="7" horiz-adv-x="511" 
d="M459 562q-5 -10 -10 -23q-5 -11 -11 -29t-13 -42q-12 -36 -20.5 -69.5t-16.5 -66.5q-3 -10 -5.5 -19.5t-5.5 -18.5q6 0 11 -0.5t10 -0.5h14.5t21.5 -0.5t20.5 -0.5h11.5l-1 -145q-9 0 -23.5 0.5t-32 1t-35.5 1t-34 1.5q-14 -54 -30 -112.5t-30 -108.5q-16 -58 -32 -115
l-140 40q7 48 17 100q8 44 20.5 97.5t27.5 105.5l-58 3l7 141q45 0 63 -0.5t26 -1.5h1q11 41 23.5 85.5t24.5 86.5q4 13 6 20t3.5 13l3 12t4.5 17h-1l-272 9l24 145l116 -1l300 -25l19 -73z" />
    <glyph glyph-name="eight" unicode="8" horiz-adv-x="529" 
d="M257 576q-3 10 -18 20t-33 5q-8 -4 -14.5 -14.5t-11 -24t-6.5 -28.5t-2 -30q0 -24 10 -30t36 -9l6 3t13 8t13 11.5t7 14.5q2 8 3.5 31.5t-3.5 42.5zM344 267q-3 30 -15.5 47t-46.5 16q-6 0 -15.5 -5t-26.5 -19q-11 -9 -18.5 -21t-12.5 -24.5t-7 -25t-2 -21.5
q0 -8 1 -23.5t5 -30.5t12 -26.5t22 -11.5q18 0 39.5 7.5t41.5 27.5h-1q7 6 12 18t8 28t4 32.5t0 31.5zM499 331q2 -8 3.5 -22.5t1.5 -32.5q0 -24 -4 -54t-14 -61t-28.5 -61t-46.5 -52q-18 -14 -41 -26t-48.5 -22t-52.5 -15.5t-53 -5.5q-30 0 -57 9t-46 26q-26 22 -41 46
t-24 47t-12.5 46t-6.5 44q-1 21 1 42.5t14 46.5q9 17 27 38t38 41q-27 18 -41 33q-26 30 -37 59t-11 58t10 60t26 63h-1q21 44 63.5 74.5t93.5 30.5q36 0 70.5 -17t61.5 -44.5t43.5 -62t16.5 -68.5q0 -35 -11.5 -60.5t-38.5 -52.5q25 6 49.5 -3t44.5 -26.5t34 -39t17 -39.5
v1z" />
    <glyph glyph-name="nine" unicode="9" horiz-adv-x="492" 
d="M301 370q1 13 -2 29.5t-10 31t-18 24.5t-24 10q-21 0 -45 -24q-11 -12 -15.5 -26.5t-5.5 -28.5q-4 -45 9 -65.5t30 -22.5q7 0 19 0.5t25 7.5t23.5 21.5t13.5 42.5zM426 514q24 -38 34.5 -81.5t10.5 -88.5q0 -79 -31 -167.5t-80 -173t-111 -156.5t-123 -118l-89 125
q37 27 72 60t66 72.5t55 85.5t38 99q-17 -7 -31 -10t-32 -5t-41 2t-45.5 14t-43.5 28t-36 45q-5 9 -9.5 26.5t-7.5 36.5t-5 36.5t-2 27.5q0 36 11.5 78t37.5 73q32 39 83.5 63.5t107.5 23.5q51 -1 95.5 -23t75.5 -74v1z" />
    <glyph glyph-name="colon" unicode=":" horiz-adv-x="286" 
d="M237 410q0 -17 -7 -33.5t-19.5 -30t-31 -22t-42.5 -8.5q-48 0 -73 27t-25 63t27.5 63.5t73.5 27.5q19 0 36.5 -6.5t31 -18t21.5 -27.5t8 -35zM254 114q0 -26 -17.5 -51t-45.5 -48l-30 -1q-21 0 -45.5 7t-45.5 19.5t-35 30.5t-14 40q0 24 10 43t26.5 31.5t39 19.5t46.5 7
q22 0 42 -7.5t35.5 -21t24.5 -31.5t9 -38z" />
    <glyph glyph-name="semicolon" unicode=";" horiz-adv-x="286" 
d="M237 421q0 -17 -7 -34t-19.5 -30.5t-31 -22t-42.5 -8.5t-42.5 7.5t-30.5 20.5t-18.5 29t-6.5 34q0 36 27.5 63.5t73.5 27.5q19 0 36.5 -6.5t31 -18t21.5 -27.5t8 -35zM261 43q0 -38 -8 -71.5t-28 -63t-53 -57t-83 -53.5l-96 98q15 7 33.5 21t34.5 29.5t27 30.5t11 26v6
q-39 2 -64 23.5t-25 68.5q0 39 24.5 69t77.5 30q41 0 69.5 -12.5t46 -34.5t25.5 -50.5t8 -59.5z" />
    <glyph glyph-name="less" unicode="&#x3c;" horiz-adv-x="461" 
d="M432 468q-35 -36 -65 -69q-26 -28 -51 -55t-36 -40q-9 -11 -24.5 -26t-31.5 -31q46 -34 101.5 -70.5t121.5 -65.5l-38 -156q-59 27 -106.5 54.5t-87 54.5t-73 52.5t-63.5 49.5l-90 70q22 22 42 41q17 17 34.5 33t26.5 25h-1q37 36 71.5 73t69.5 75l114 123l85 -85z" />
    <glyph glyph-name="equal" unicode="=" horiz-adv-x="483" 
d="M409 306q-45 -1 -83 -3q-32 -2 -63.5 -3t-43.5 -1q-13 -1 -44.5 -1h-65.5h-86l1 145h109h45.5t34.5 1q6 0 19.5 0.5t32 1t40 1t42.5 1.5q50 2 111 4l1 -107zM413 120q-12 -1 -32.5 -2t-45 -2t-52.5 -1.5t-56 -1.5q-24 -1 -55.5 -2t-62 -2.5t-55.5 -3t-37 -2.5l-14 143
q13 1 40 2.5t59.5 3t66 2.5t59.5 2q25 1 45.5 1t45 1t56 3.5t78.5 8.5q0 -28 0.5 -43.5t1 -24t1.5 -13.5t2 -11l-1 2l2 -14z" />
    <glyph glyph-name="greater" unicode="&#x3e;" horiz-adv-x="461" 
d="M449 245l-54 -53q-27 -26 -56 -54t-65 -58t-80 -62t-100 -65l-55 152q58 35 110 77t96 84q-17 14 -33 27t-27 23q-6 6 -18 16.5t-27 23.5t-32 28l-34 30q-40 34 -87 74l101 117l129 -113q37 -32 74.5 -65t76.5 -64v1l77 -61z" />
    <glyph glyph-name="question" unicode="?" horiz-adv-x="473" 
d="M301 39q0 -18 -6.5 -36t-19 -32.5t-31 -23t-41.5 -8.5q-45 0 -69.5 28.5t-24.5 67.5q0 19 7 36t20 30.5t31 21.5t40 8q19 0 36 -7t30 -19t20.5 -29t7.5 -37zM449 563q0 -27 -10 -51t-26.5 -46t-37 -42t-42.5 -40q-20 -19 -37 -38t-25 -44q-2 -5 -3 -11.5t-1 -16.5
q0 -5 3 -23t7 -40l-163 -15q-17 62 -17 86q0 15 2.5 30t7.5 32q13 37 42.5 70.5t68.5 71.5q21 21 37 43t16 50q0 27 -15 46t-38 19q-24 0 -46.5 -15l-40.5 -27q-5 -5 -14.5 -13.5t-26.5 -25.5l-83 109q19 24 45.5 44t57 35t62 23t60.5 8q48 0 88 -17.5t68.5 -47.5t44.5 -70
t16 -84z" />
    <glyph glyph-name="at" unicode="@" horiz-adv-x="714" 
d="M324 226q12 0 22 14t18 34t14.5 43.5t11.5 43.5q-17 5 -29 5t-23.5 -11t-20 -26t-14 -32t-5.5 -29q0 -16 6.5 -29t19.5 -13zM673 365q0 -38 -12 -82t-35 -82.5t-57.5 -64t-79.5 -25.5q-24 0 -45.5 9.5t-37.5 26.5q-23 -21 -53 -33.5t-59 -12.5q-32 0 -55.5 13.5t-39.5 35
t-24 48.5t-8 55q0 36 13.5 74t37.5 69.5t57 51.5t72 20q43 0 87 -19.5t79 -59.5q-22 -32 -32 -68.5t-10 -68.5q0 -20 19 -20q16 0 28.5 16.5t20 39.5t11.5 47.5t4 40.5q0 32 -8.5 67.5t-25 65.5t-41.5 49.5t-58 19.5q-80 0 -134.5 -28t-87.5 -77t-47 -116.5t-13 -145.5
q1 -46 16 -85.5t37.5 -69t49 -46.5t50.5 -17q17 0 35.5 5t36.5 13t33.5 17t26.5 18l47 -110q-16 -14 -40 -25t-50.5 -19t-52 -12.5t-45.5 -4.5q-44 0 -91 21t-85 63.5t-62.5 105.5t-24.5 147q0 81 18 165.5t62 154t119.5 114t190.5 44.5q62 0 111 -29.5t82.5 -76.5
t51.5 -104.5t18 -114.5z" />
    <glyph glyph-name="A" unicode="A" horiz-adv-x="623" 
d="M261 325h19.5t25 0.5t24.5 1t20 1.5q-4 12 -10.5 31t-13 39.5t-12.5 39.5t-9 30q-8 -35 -22 -69.5t-22 -73.5zM616 -10q-7 -4 -17.5 -9t-23 -8.5t-25 -6t-22.5 -1.5q-17 0 -37 2.5t-38 4.5q-2 7 -6 21.5t-9 31.5t-9.5 34t-7.5 29q-8 29 -16.5 51t-14.5 39
q-13 -1 -32 -1.5t-41 -1t-45 -0.5h-43q-4 -23 -9 -48.5t-10.5 -52t-10.5 -52.5t-8 -48q-51 -2 -88 3.5t-71 20.5q3 20 8 45.5l10 51t10 48.5t7 39q-2 0 -4 0.5t-9.5 1t-22.5 0.5t-42 -1q0 12 -1 33t2 41q3 17 10.5 36t13.5 31h44h20.5h10h13.5q29 88 57 194.5t64 208.5
l157 11q5 -19 21 -68.5t37 -116.5t46.5 -145.5t49.5 -155.5t45.5 -145.5t36.5 -116.5z" />
    <glyph glyph-name="B" unicode="B" horiz-adv-x="520" 
d="M263 525q-8 41 -48 49q-6 1 -24.5 -2.5t-32.5 -10.5q7 -26 14.5 -67t19.5 -97q10 8 20 16.5t18 16.5q9 9 17 19q13 16 16 36t0 40zM326 224q1 21 -9.5 38.5t-31.5 24.5q-5 2 -24.5 1.5t-38.5 -8.5q1 -15 3.5 -36t5.5 -43.5l6 -45t6 -41.5l10.5 7t16 10t15.5 10t10 7
q31 33 31 76zM509 223q0 -99 -95 -183q-48 -42 -125 -65.5t-188 -27.5q-2 26 -5 65.5t-7.5 88t-10 103.5t-11.5 112q0 2 -0.5 4t-0.5 4q-2 19 -5 47t-10.5 65.5t-20 84.5t-33.5 105l109 48q32 14 65.5 22.5t65.5 8.5q40 0 71 -11t52 -31q47 -47 47 -107q0 -65 -47 -137
q27 -10 51 -25t41 -35q57 -63 57 -136z" />
    <glyph glyph-name="C" unicode="C" horiz-adv-x="581" 
d="M557 168q-3 -22 -6.5 -39.5t-8 -33.5t-10.5 -31.5t-15 -32.5v1q-10 -23 -27 -43.5t-43 -35.5t-62.5 -24t-84.5 -9q-57 0 -106 21t-79 57q-32 38 -51.5 84t-30 93t-13.5 93t-3 85q0 57 16.5 122t52 119.5t91 90.5t133.5 36q52 0 94.5 -17.5t74 -48t50.5 -71.5t23 -87
l5 -74q-52 -20 -95 -22t-89 0q5 33 6.5 53.5t0.5 30.5q0 5 -0.5 10t-0.5 9q0 32 -20 51t-49 19q-30 0 -52 -21t-36 -52.5t-20.5 -67.5t-6.5 -66q0 -23 0.5 -56t4.5 -68q2 -32 10 -65.5t22 -59.5q28 -52 72 -52q19 0 34.5 6t24.5 14q11 18 16.5 46.5t5.5 79.5l174 -8z" />
    <glyph glyph-name="D" unicode="D" horiz-adv-x="588" 
d="M380 389q-3 18 -10 33.5t-15.5 27t-16.5 19t-14 11.5q-19 11 -44 15.5t-51 5.5q8 -47 15.5 -88.5l15 -83t15.5 -84.5t18 -93q8 4 20.5 8t25 10.5t23 16.5t14.5 25q11 29 13.5 70t-9.5 107zM550 399q11 -78 3.5 -146.5t-31.5 -114.5q-19 -33 -54.5 -61.5t-83.5 -52.5
t-105.5 -43t-118.5 -34l-90 533q-13 -4 -27 -6.5t-25 -4.5q-11 26 -16 46.5t-7 33.5q-2 7 -4 23t-1 44q16 3 37 7.5t40.5 8.5t35 7t21.5 4q88 15 164.5 9.5t127.5 -34.5q21 -12 42 -34t40 -50.5t32.5 -63t19.5 -71.5z" />
    <glyph glyph-name="E" unicode="E" horiz-adv-x="529" 
d="M488 74q-31 -6 -81 -17.5t-107 -27t-114 -34t-103 -38.5l-7 314q-8 -1 -18 -1.5t-20 -2.5q-11 -2 -23 -4l-1 145q4 0 12.5 1t17.5 2t17.5 2.5t11.5 1.5q-1 67 -2.5 142.5t-2.5 136.5h23t33.5 0.5t33 1t23.5 0.5q6 0 31.5 1t64 3.5t87.5 5.5t103 6q11 -29 11.5 -47.5
t0.5 -30.5q0 -9 -1 -20.5t-7 -43.5q-30 -3 -48.5 -4.5t-29.5 -2t-16 -1t-9 -0.5q-17 -1 -28.5 -2t-24 -2t-30 -2t-44.5 -2v-60.5t1 -59.5q22 3 50 6.5t56.5 7.5t55.5 8.5t47 8.5q8 -26 11.5 -64.5t-1.5 -77.5q-50 -9 -80 -14.5t-51.5 -9.5t-40 -6.5t-44.5 -5.5l3 -112
q47 13 107.5 26t123.5 23q5 -18 7.5 -39t3 -42t0 -39t-1.5 -30z" />
    <glyph glyph-name="F" unicode="F" horiz-adv-x="494" 
d="M458 759q7 -21 11.5 -37.5t7.5 -32.5t4.5 -34t3.5 -40l-84 -14q-60 -12 -109 -21t-91 -17q5 -35 10.5 -70t13.5 -85q36 3 62.5 8.5t51.5 10.5q4 1 15 3.5t23 6t22 6l14 3.5q14 -23 18.5 -40t6.5 -25q2 -11 1.5 -30.5t-2.5 -49.5l-84 -17q-20 -4 -47 -8.5t-58 -8.5h-1
q11 -69 23 -145.5t23 -141.5q-21 -9 -33.5 -14t-20.5 -8t-12.5 -4t-8.5 -2q-14 -3 -35 -3.5t-59 2.5l-42 281l-51 -10l-31 134l61 11l-42 295q44 14 87 26t80 20q9 2 65.5 12.5t159.5 27.5z" />
    <glyph glyph-name="G" unicode="G" horiz-adv-x="640" 
d="M516 255q-3 -104 -3 -178q0 -29 1 -62.5t2 -56.5q-46 -28 -85 -44q-24 -9 -49.5 -13t-51.5 -4q-151 0 -249 135q-11 16 -21.5 38.5t-18.5 49t-12.5 55.5t-4.5 56q0 42 1 79t6 72.5t15 72t29 78.5q22 47 54.5 84.5t68.5 64t73.5 41t69.5 14.5q43 0 80.5 -10t66 -29.5
t46 -48.5t22.5 -67l5 -68q-23 -6 -46.5 -14t-47.5 -14t-47.5 -9t-46.5 0q6 28 6 48.5t-8 44.5q-2 6 -11 9t-20 3q-10 0 -24.5 -6t-30.5 -19.5t-31.5 -35.5t-26.5 -54q-21 -60 -26.5 -111t-5.5 -107q1 -44 15 -80t35.5 -61t47 -38.5t50.5 -11.5h2v20v34t0.5 32.5t1 40.5
t1.5 58q-2 0 -3 -0.5t-5 -0.5l-84 -7l2 149q45 6 80 7.5t71 3t79.5 4.5t105.5 12q4 -43 6 -65.5t1 -34.5v-56h-85z" />
    <glyph glyph-name="H" unicode="H" horiz-adv-x="612" 
d="M494 182q0 -66 -1 -137t-1 -132q-24 -6 -46.5 -10t-34.5 -4q-25 0 -89 14v61l2 206h-97q1 -50 2.5 -103t2.5 -98q-36 -8 -56.5 -11t-32.5 -3q-11 0 -33 2t-47 5l-6 208h-66v142h65l-7 409q36 8 57.5 11t33.5 3h9t13.5 -1t22 -3.5t34.5 -6.5l7 -411h99q1 118 2.5 243
t2.5 242q32 10 51 13.5t31 3.5t32 -3t56 -11l-5 -488q26 0 53 0.5t42 0.5v-140z" />
    <glyph glyph-name="I" unicode="I" horiz-adv-x="287" 
d="M70 134q-2 48 -3.5 87.5t-3.5 71.5q0 6 -0.5 13t-0.5 14q-1 13 -3 40.5t-4.5 61.5t-6 72t-6 73t-5.5 64t-4 45q22 6 48.5 9t52 4t46.5 0t33 -3q5 -37 4 -74t3 -79q4 -45 5.5 -111.5t6.5 -135.5q1 -24 3 -63t4.5 -81.5t4.5 -82t4 -63.5l-174 -4z" />
    <glyph glyph-name="J" unicode="J" horiz-adv-x="470" 
d="M314 500q7 -22 15 -45t18.5 -52t24 -65.5t31.5 -85.5q3 -9 7.5 -22t8 -26.5t6.5 -26t4 -21.5q8 -55 3 -109t-25 -99t-57 -75.5t-93 -39.5q-14 -2 -28 -3.5t-31 -0.5q-71 5 -114 35q-5 3 -14.5 20t-19 41t-16.5 51t-7 50q20 6 43.5 10.5t44.5 8.5q25 4 50 7q1 -18 5.5 -32
t9.5 -23q5 -11 12 -18q9 -5 26 -7t25 2q23 11 23.5 51.5t-7.5 100.5q-3 26 -11.5 56t-21.5 67q-10 29 -19.5 55.5t-19.5 53.5q-5 11 -8.5 20t-7 20t-9 25.5t-12.5 37.5l-133 -32q-26 61 -34 140l78 18l357 75q17 -33 25 -67t6 -72z" />
    <glyph glyph-name="K" unicode="K" horiz-adv-x="555" 
d="M486 518l-52 -45h1l-117 -96h1q-13 -10 -63 -41l1 1l-15 -10q36 -38 58 -62.5t33 -34.5q68 -71 127 -119l79 -66q-5 -23 -11.5 -42.5t-14.5 -35.5q-10 -19 -24 -35t-29 -28l-111 99q-13 12 -32.5 33t-40.5 45t-41 49t-34 45q-1 -21 -1 -48v-53.5t-0.5 -50t-1.5 -38.5v-15
v-21.5v-21v-12.5q-46 -12 -88 -8.5t-82 23.5l4 56q1 84 2.5 167t2.5 168q0 44 6 142q1 25 2 63.5t1.5 77t0.5 70v43.5q48 11 90 11t80 -8l-14 -229q34 24 80 57.5t93 76.5l54 49q39 -27 65.5 -56.5t40.5 -58.5z" />
    <glyph glyph-name="L" unicode="L" horiz-adv-x="483" 
d="M462 85q1 -11 1 -31.5t-1.5 -44.5t-5 -48t-9.5 -42q-34 3 -59.5 6t-58.5 4q-27 1 -56 3t-55 2q-40 2 -71.5 3.5t-58.5 6.5l-60 11l6 69q14 112 21.5 190t10.5 126l16 347q31 8 50 11t30 3q14 0 36.5 -4t54.5 -15l-2 -59l-13 -290q-1 -22 -2.5 -41.5t-4.5 -45t-6.5 -59.5
t-9.5 -85q31 -2 54 -4t44.5 -4t44.5 -4t54 -3z" />
    <glyph glyph-name="M" unicode="M" horiz-adv-x="829" 
d="M807 -23q-21 -8 -45.5 -14.5t-53.5 -6.5q-34 0 -92 20v61q2 13 -1.5 27.5t-3.5 28.5q0 42 -2.5 92t-6 99t-8 91.5t-8.5 69.5q-19 -36 -39 -88.5t-38 -106t-33 -101t-24 -75.5h-81l-158 263q-2 -48 -3.5 -90.5t-2 -83t-1.5 -81.5t-3 -85q-71 -9 -94 -9q-40 0 -97 21l1 59
l48 617l105 76l222 -394q10 35 33 89t50.5 111t55 108t46.5 81l145 -49l6 -54q3 -21 7 -45.5t9 -54.5l11 -68q7 -49 15 -112.5t15.5 -127.5t13.5 -120t9 -89z" />
    <glyph glyph-name="N" unicode="N" horiz-adv-x="569" 
d="M443 -120q-41 61 -89 134.5t-102 161.5q8 -81 16.5 -151t16.5 -125q-79 -27 -170 -20l-8 63l1 -1q-14 107 -33.5 288t-42.5 421l123 85q33 -72 64 -136.5t56.5 -117.5t44 -91t28.5 -56q-1 35 -1 70.5v70.5q0 31 0.5 66.5t1 72t1.5 71.5t2 67q29 10 46.5 13.5t30.5 3.5
q14 0 36.5 -5t56.5 -14q-1 -30 -1.5 -63.5t-1 -68t-1 -68t-0.5 -62.5q0 -150 5 -294.5t16 -290.5z" />
    <glyph glyph-name="O" unicode="O" horiz-adv-x="733" 
d="M529 361q0 103 -42 162q-20 29 -41.5 43t-44.5 14q-8 0 -18.5 -2t-23.5 -7l1 1q-76 -29 -119 -92t-43 -156q0 -37 3.5 -72.5t12.5 -67.5t25 -59t41 -47q19 -15 39 -21.5t40 -6.5q48 0 93 53q26 32 44 82t29 118v-1q2 17 3 32t1 27zM715 359q0 -14 -1.5 -31t-4.5 -35v1
q-25 -188 -134 -297q-95 -96 -230 -96q-51 0 -97.5 15.5t-84.5 42.5q-41 31 -68.5 75.5t-44.5 94.5t-24.5 101t-7.5 96q0 287 262 386h-1q25 10 51 14t52 4q69 0 128 -27t106 -78q46 -54 72.5 -122.5t26.5 -143.5z" />
    <glyph glyph-name="P" unicode="P" horiz-adv-x="578" 
d="M377 512q0 47 -28 65q-20 11 -43 12t-50 2q-17 0 -51 -6q2 -68 5 -127.5t6 -125.5q61 0 98 34q10 8 21 23.5t20 36t15.5 43t6.5 43.5zM549 531q0 -43 -17.5 -97t-46.5 -99q-29 -43 -65 -68t-82 -47q-48 -22 -117 -23q5 -75 11.5 -145.5t10.5 -141.5q-57 -14 -101.5 -16.5
t-78.5 8.5q1 25 1.5 43.5t0.5 34.5v29.5v27.5q0 16 -4.5 142t-12.5 376l-37 -10l-10 142q21 6 55.5 14.5t73.5 16.5t77.5 13.5t67.5 5.5q192 0 251 -114q23 -42 23 -92z" />
    <glyph glyph-name="Q" unicode="Q" horiz-adv-x="698" 
d="M335 119q17 22 41.5 44t44.5 34l33 -43q23 14 38.5 51t15.5 103q0 34 -9.5 70t-27.5 68t-44.5 57t-60.5 37q-1 -12 -6.5 -25.5t-7.5 -19.5q-8 7 -19 12q-9 5 -21 9t-26 4q-28 0 -46 -22t-34 -59l1 1q-13 -32 -19.5 -67t-6.5 -75q0 -11 0.5 -23t1.5 -23q5 -29 20.5 -52
t36.5 -40t46 -27.5t49 -13.5zM674 308q0 -90 -36 -164.5t-99 -116.5q24 -38 65.5 -81t81.5 -90q-22 -27 -52.5 -53t-68.5 -50q-45 54 -73.5 87t-42.5 53q-20 26 -35.5 48.5t-29.5 46.5q-12 -2 -23 -2h-22q-84 0 -146 26t-102.5 69.5t-60.5 100t-20 118.5q-1 55 8 115.5
t35 112.5q14 28 34.5 53.5t45.5 45.5t54 32t61 12q9 0 18 -1.5t19 -3.5l18 47q47 -8 85 -21t68 -28.5t53.5 -32t40.5 -31.5q36 -33 59.5 -66.5t37.5 -69t20 -74t7 -82.5z" />
    <glyph glyph-name="R" unicode="R" horiz-adv-x="543" 
d="M295 433q7 7 14.5 16t14 21.5t11 29t4.5 37.5q0 29 -15 44t-41 17h-2q-5 -26 -10 -54t-10 -54.5t-9.5 -49t-7.5 -36.5v-2q11 5 25 13t26 19v-1zM488 -225q-47 17 -96 49t-97 90q-19 23 -36.5 53.5t-32 61.5t-24.5 59.5t-15 46.5q-6 -30 -11 -62t-9 -61.5t-6 -54t-3 -39.5
l-159 39q4 21 13 63t20.5 100t25.5 130.5t28 155.5q2 13 6.5 36.5t9.5 49.5t10 51t7 40l-76 -18q-1 13 -1 26v27v39t1 33q1 17 2 31q22 5 37.5 7.5t27 4t19 2t15.5 0.5l8 57l172 8l-16 -60q49 -4 87 -20.5t63.5 -43t39 -61.5t13.5 -75q0 -63 -26 -118t-69 -96v1
q-26 -25 -56.5 -41.5t-68.5 -24.5q19 -53 43.5 -103.5t55.5 -92.5q36 -49 81 -85.5t98 -67.5z" />
    <glyph glyph-name="S" unicode="S" horiz-adv-x="542" 
d="M521 169q0 -81 -35 -153l1 1q-29 -62 -94 -111q-59 -44 -137 -44q-82 0 -148 47h1q-9 6 -23.5 24t-28 44t-23 58.5t-7.5 65.5q0 4 0.5 12t0.5 17t0.5 17.5t0.5 12.5q92 30 168 6l-2 -59q-1 -11 -1 -23t0.5 -22t1 -17.5t0.5 -8.5q3 -8 10 -13t14.5 -8t14.5 -4t10 -1
q16 -1 50 34q12 12 19 23.5t16 30.5q5 13 8.5 30.5t3.5 40.5q0 13 -2.5 28t-4.5 18q-11 14 -31 20t-51 11q-49 7 -94.5 23.5t-74.5 52.5q-17 22 -25 42.5t-11 40.5q-2 14 -2 31v35v16q0 25 2 52.5t7.5 54.5t16 52t28.5 46q35 38 80.5 52t96.5 11q122 -11 161 -59l-1 1
q41 -50 45 -109v-106l-167 2v98q-1 6 -1.5 11t-1.5 6q-11 8 -23 10t-19 2q-21 0 -42 -24q-5 -5 -8 -15t-4.5 -23t-2.5 -27t-1 -27q0 -14 2 -30.5t7 -31.5q10 -35 54 -41q76 -11 128.5 -32t75.5 -50q20 -25 31 -60t11 -81z" />
    <glyph glyph-name="T" unicode="T" horiz-adv-x="642" 
d="M622 638q3 -10 4 -33t1 -49.5t-1.5 -52.5t-3.5 -41l-95 11l-133 2q-4 -35 -3 -79t0 -97q0 -18 0.5 -37.5t2 -47t3.5 -66t5 -93.5l4 -52q-24 -16 -70 -20t-117 0l-4 69l11 258l8 167q-31 2 -62.5 2t-68.5 -3l-78 -14q-2 11 -3.5 25t-2 27t-0.5 23.5v16.5q0 2 1.5 11.5
t3.5 21.5t4.5 24.5t5.5 21.5l63 -8h46t48 0.5t57.5 0.5t73.5 -1q30 -1 67 0.5t69 3.5l76 4z" />
    <glyph glyph-name="U" unicode="U" horiz-adv-x="508" 
d="M484 258q0 -83 -43 -158q-8 -14 -26 -30.5t-47 -34.5l1 1q-25 -17 -47.5 -27t-45.5 -13l2 1q-29 -6 -58.5 1t-59.5 21q-69 35 -92 84v-1q-6 13 -11 52t-9 93t-7.5 117.5t-7.5 124.5l-7 122q42 10 86 13t93 -2l6 -63q1 -6 2 -21.5t1 -35v-41.5v-42t0.5 -41.5t1 -40.5
t1 -33.5t0.5 -21.5q3 -54 5.5 -86t4.5 -38q2 -3 5.5 -6.5l5.5 -5.5q17 -7 18 -7q2 0 9.5 3.5t18.5 8.5q4 2 7 4t5 5v-1q13 20 18.5 41t5.5 43q0 7 -0.5 27.5t-1.5 49t-2 63t-2 69.5q-2 35 -2.5 72t-1.5 60l-1 61q35 8 56.5 11.5t33.5 3.5h9.5t14 -1.5t22 -4t34.5 -6.5l1 -60
q1 -23 1.5 -54.5t1 -66t0.5 -69t0.5 -63.5t0.5 -49.5v-27.5z" />
    <glyph glyph-name="V" unicode="V" horiz-adv-x="580" 
d="M593 633l-22 -52q-5 -13 -11.5 -31.5t-13.5 -39t-14 -41.5t-13 -38q-11 -30 -21 -57t-20 -55t-21.5 -57.5t-24.5 -64.5q-7 -17 -18 -46.5t-24.5 -65t-29 -73t-30.5 -70.5q-8 0 -26 2t-38 4t-37.5 3t-23.5 0l-108 290q-4 12 -14 47t-24.5 87t-33 116t-38.5 134
q31 24 71 35t91 13l17 -61q22 -73 36.5 -139.5t35.5 -139.5q1 -3 4 -14.5t7.5 -25.5l9 -28t7.5 -23l14 -41q16 41 31 88.5t35 107.5q8 24 17 53.5t18 61t17.5 62t14.5 56.5l3.5 10.5t5.5 15.5t6 15.5t5 11.5q100 -7 133 -36z" />
    <glyph glyph-name="W" unicode="W" horiz-adv-x="756" 
d="M711 665q3 -2 9.5 -5t14.5 -6l18 -8q-5 -26 -13.5 -62t-18 -77.5t-19 -87.5t-15.5 -93q-8 -53 -14.5 -102t-12.5 -90.5t-11 -74t-8 -53.5l-121 -56l-161 334l-153 -331l-98 16q-2 12 -5.5 27.5t-6.5 30.5t-6 28t-4 21q-2 15 -4.5 26t-4.5 19q-16 77 -25.5 140
t-16.5 121.5t-15 117.5t-21 129l-7 50q38 23 85 36.5t104 18.5l6 -69q0 -7 0.5 -16.5t0.5 -17.5q1 -39 2.5 -75.5t3.5 -73t5.5 -75t10.5 -81.5q10 29 27.5 68.5t35.5 79.5t33.5 74t21.5 52h73l130 -310q1 9 3 28.5t3.5 40.5t2.5 41t2 31q10 72 26.5 140t29.5 127
q22 0 38.5 -3.5t29 -8.5t23.5 -11t22 -10z" />
    <glyph glyph-name="X" unicode="X" horiz-adv-x="510" 
d="M481 603q-11 -27 -25.5 -59.5t-27.5 -67.5q-9 -23 -18 -43.5t-18.5 -41.5t-19.5 -44.5t-21 -54.5q7 -17 18 -38t20 -42q13 -31 44.5 -94t64.5 -143q-23 -28 -60.5 -43.5t-94.5 -18.5l-23 56q-2 6 -12.5 29.5t-23.5 51t-25 52t-17 31.5q-13 -32 -29 -69.5t-33 -76
t-32.5 -74.5t-26.5 -64q-108 12 -163 73l25 52q15 33 35.5 74l43.5 87t47 96.5t45 102.5q-8 17 -19 34.5t-26.5 40t-36.5 53t-48 74.5q-2 4 -6.5 11t-10 15t-10 15t-6.5 10q20 24 35 39t24 23q8 6 36.5 19.5t67.5 32.5l44 -91q7 -13 14.5 -30t14.5 -34t13 -32t12 -24
q7 19 16.5 44t16.5 45q6 18 14.5 39t17 41t15.5 38.5t11 32.5q96 -10 173 -57z" />
    <glyph glyph-name="Y" unicode="Y" horiz-adv-x="551" 
d="M494 595q2 -24 4 -55t3 -65.5t1.5 -70.5t0.5 -69v-43.5t-1 -37.5q-2 -47 -6.5 -90.5t-14.5 -82t-26.5 -71.5t-43.5 -59q-34 -32 -83 -51.5t-100 -19.5q-43 0 -82 13.5t-67 30.5l-35 27l82 128l44 -34q11 -7 27.5 -11t34.5 -4q15 0 30.5 5t28.5 18q16 16 24 52t13 81
q-6 -1 -8.5 -2t-4.5 -1.5t-5.5 -1t-11.5 -0.5q-24 0 -47.5 -0.5t-47 3.5t-46 14t-44.5 30q-24 23 -39.5 63.5t-23.5 87.5t-11 95t-3 87q0 18 1.5 43t5.5 59q17 2 41 1.5t48.5 -2.5t46.5 -6.5t36 -11.5l-7 -56q-2 -8 -3 -20t-1 -26q0 -20 2.5 -50.5t7 -60.5t12 -54.5
t17.5 -33.5q9 -9 17 -14t16.5 -7t18 -2h22.5h5.5h0.5l0.5 0.5t5.5 1.5v28q0 27 -1 67.5t-3.5 86t-5 92t-5.5 84.5q48 15 91.5 18t81.5 -9z" />
    <glyph glyph-name="Z" unicode="Z" horiz-adv-x="555" 
d="M523 64q0 -11 -4.5 -37.5t-16.5 -51.5q-40 16 -67.5 19t-37.5 3q-24 0 -45 -1.5t-38 -3.5q-69 -6 -261 -75l-65 79q15 26 31 56t33 60.5t33 60.5t31 57l33 63q5 9 17 30.5t27 48.5t32 55.5t31 51.5q12 19 17 28t8.5 15t6.5 13.5t11 23.5q-46 2 -89 3.5t-89 1.5
q-15 0 -31 -1.5t-31 -4t-26.5 -5.5t-17.5 -6q-4 20 -4.5 45.5t-0.5 41.5q0 17 6 41t17 57l450 -37l5 -22.5t7 -27t8 -25.5t7 -16l-43 -79q-8 -13 -20.5 -34t-26.5 -46.5t-29.5 -53.5t-30.5 -55q-17 -29 -32.5 -57.5t-29.5 -51.5q-8 -15 -17.5 -35t-23.5 -46l-12 -22
q51 9 106 16.5t104 5.5q32 -2 46 -4.5t22 -2.5v-75z" />
    <glyph glyph-name="bracketleft" unicode="[" horiz-adv-x="359" 
d="M291 -88q-17 2 -37.5 2h-42.5q-17 0 -41 -0.5t-48 -1.5t-44.5 -2t-30.5 -2q-3 111 -6 203q-1 39 -2.5 78.5t-2 73t-1 59t-0.5 37.5q1 14 -1 52t-5 86q-1 26 -1.5 52t-2.5 52q-2 38 -3 78.5t-2 73.5q-1 39 -1 75q10 0 26.5 1t34 2t34 2.5t25.5 2.5q32 4 73 6t103 -1
l-5 -152q-8 0 -24 1t-34.5 2t-36 1.5t-27.5 0.5h-4q0 -2 0.5 -4t0.5 -4q5 -102 9.5 -199.5t6.5 -200.5q1 -30 1.5 -61t0.5 -63v-31.5v-24v-24t1 -30.5q36 2 75 4t63 3l2 -149z" />
    <glyph glyph-name="backslash" unicode="\" horiz-adv-x="485" 
d="M374 -53q-59 104 -109 196q-21 39 -43 79t-41 77t-34 67t-23 50t-19 46t-23.5 55.5t-25.5 59.5t-25 59q-29 67 -60 139q7 13 16.5 22.5t24 18t35.5 15.5t51 15q39 -79 73 -151q15 -31 30 -63t29 -62.5t25.5 -57t19.5 -45.5q9 -21 23 -53t31.5 -70t37 -79t38.5 -81
q45 -93 96 -198z" />
    <glyph glyph-name="bracketright" unicode="]" horiz-adv-x="385" 
d="M353 762q0 -42 -1.5 -89.5t-3.5 -90.5q-1 -15 -1.5 -33t-0.5 -36.5t-0.5 -36t-1.5 -31.5l-3.5 -73.5t-1.5 -45.5q0 -12 -0.5 -38.5t-1 -62t-1.5 -77t-2 -83.5q-3 -98 -5 -214q-6 0 -21.5 1.5t-34 3t-36.5 3t-28 2.5q-34 4 -75 6t-104 -4l2 151l140 -7v119v66t1 63
q2 37 2.5 79.5t2.5 87.5q2 87 3 166t5 151h-14q-9 0 -24.5 -0.5t-32.5 -1t-32 -1t-21 -0.5l-6 153q38 1 64 1t45.5 -1t35 -2.5t31.5 -2.5q9 -1 25.5 -2.5t34.5 -3t34.5 -2.5t26.5 -1v-113z" />
    <glyph glyph-name="asciicircum" unicode="^" horiz-adv-x="518" 
d="M373 384l-114 159l-110 -163l-123 85l164 244l129 7l175 -243z" />
    <glyph glyph-name="underscore" unicode="_" horiz-adv-x="562" 
d="M538 -236q-67 -1 -123 -3q-24 -1 -48.5 -1.5t-45.5 -1.5t-38 -1.5t-26 -0.5h-26.5t-40.5 1t-49 2l-52 2q-61 3 -131 5v146q71 -3 132 -6q25 -1 51 -2t48 -1.5t38.5 -0.5h24.5q9 0 28 0.5t44.5 1t55 1t58.5 1.5q69 2 150 4l1 -108z" />
    <glyph glyph-name="grave" unicode="`" horiz-adv-x="432" 
d="M53 727q25 17 47 32q19 13 38.5 24.5t30.5 14.5q14 -17 48 -48t70 -63q42 -37 91 -78l-60 -49q-63 38 -117 71q-23 14 -46 28.5t-43 27t-35.5 23.5t-23.5 17z" />
    <glyph glyph-name="a" unicode="a" 
d="M286 222q-12 12 -26.5 17t-25.5 5q-8 0 -14.5 -9.5t-11.5 -23.5t-8 -29t-3 -25q0 -32 8 -47t22 -15q18 0 39.5 9.5t28.5 32.5l-1 77zM499 3q-6 -9 -13 -18q-6 -8 -13 -15t-15 -12q-36 -23 -67 -30.5t-58 -5.5q-7 8 -12 22.5t-8 28.5q-4 17 -7 36q-8 -3 -20 -8t-25 -10.5
t-26 -9t-22 -3.5q-39 0 -73.5 9.5t-60.5 29t-41.5 50t-15.5 71.5q0 30 7 55q9 33 28 64.5t47 54.5q50 41 127 41q14 0 31 -2.5t30 -5.5v26q-1 20 -1.5 30.5t-0.5 12.5q-5 32 -12.5 35.5t-22.5 -0.5q-3 -1 -14 -4t-23 -6.5t-22.5 -7t-14.5 -5.5q-15 -9 -33.5 -19.5
t-37.5 -28.5q-14 10 -22 31t-15 46q-2 8 -3.5 19t-1.5 22t1 20.5t3 15.5q85 60 185 60q47 0 83 -14q42 -13 71 -39.5t40 -64.5q8 -23 11 -53t3 -68q0 -18 -1 -40t-1 -43q-1 -33 -1 -51.5v-35.5q0 -76 8.5 -120t28.5 -60z" />
    <glyph glyph-name="b" unicode="b" horiz-adv-x="581" 
d="M365 196q3 29 -6.5 47t-17.5 34q-3 6 -11.5 15.5t-19 18t-22.5 15t-21 7.5q-17 1 -29 -1.5t-23 -7.5q0 -5 -0.5 -8t0.5 -8l-3 -84l-12 -97q20 -14 34 -20.5t23 -6.5q19 -2 40 4.5t38 23.5q16 15 22 29t8 39zM556 185q-3 -25 -10 -51t-18 -50t-25 -44.5t-29 -34.5
q-29 -26 -77 -39.5t-103 -8.5q-17 2 -33.5 8t-31 13t-26 13.5t-18.5 9.5v-13.5v-20.5v-21v-13q-73 -11 -108 -8q-5 1 -9 1.5t-9.5 2t-14.5 4.5l-24 8q1 27 2 74t5 99l13 127q1 14 2 51t3 101q1 58 2.5 102.5t3 84.5t3.5 79t4 87q0 11 1 25t3 25q1 9 2.5 21t3 24.5t3 24.5
t3.5 20q46 8 90 5.5t86 -13.5l-7 -58q-4 -20 -6 -41.5t-4 -44.5q-3 -35 -5.5 -67t-5 -65t-4 -68t-3.5 -75q14 2 26.5 1.5t26.5 -2.5q51 -5 105.5 -23.5t107.5 -64.5q83 -78 75 -185z" />
    <glyph glyph-name="c" unicode="c" horiz-adv-x="476" 
d="M451 99q-19 -20 -37 -37.5t-37 -26.5q-9 -4 -26.5 -11.5t-39 -14.5t-44.5 -12t-43 -5q-38 0 -65.5 11.5t-46.5 23.5l2 -1q-95 60 -95 202q0 11 0.5 24.5t1.5 27.5q5 45 24 83.5t54 71.5q66 61 158 61q43 0 82 -12.5t71 -40.5l8 -8l13 -13t12.5 -13.5t7.5 -7.5l-94 -107
q-19 21 -34 33t-25.5 18t-16 8t-5.5 3q-34 -8 -52.5 -35t-22.5 -69q-1 -14 -2 -25t0 -20q0 -8 1.5 -17.5t5.5 -18t10 -15t17 -9.5q18 -5 39 -2t33 9q8 4 14 7.5t13.5 9t18.5 14t29 23.5z" />
    <glyph glyph-name="d" unicode="d" horiz-adv-x="548" 
d="M224 153q41 0 107 45q-1 15 -2.5 26.5t-1.5 19.5q-2 15 -3.5 42t-3.5 53q-15 8 -24.5 11t-12.5 2q-17 -3 -35 -11t-35 -32q-33 -44 -31 -101q3 -55 42 -55zM507 -35q-9 -5 -20 -9.5t-27 -7.5t-37.5 -5.5t-52.5 -3.5q-5 7 -10 22t-9 33t-7 36.5t-3 32.5q-27 -21 -63.5 -37
t-67.5 -17q-51 1 -85.5 18.5t-61.5 46.5q-51 58 -53 142q-2 45 9 86.5t35 84.5q33 57 83 81.5t120 27.5q14 1 30 -3.5t27 -9.5q-2 45 -5 86t-10 80q-5 38 -9 66.5t-5 50.5q-3 47 11 125q57 10 100.5 5t78.5 -28l-9 -54q-5 -29 -3 -72q1 -14 3 -38.5t6 -56.5q3 -30 5.5 -80
t5 -106.5l5 -113t5.5 -98.5q3 -33 6.5 -69t8.5 -71t12 -68.5t17 -60.5z" />
    <glyph glyph-name="e" unicode="e" horiz-adv-x="515" 
d="M191 327q27 5 54.5 9.5t56.5 9.5q-2 22 -2.5 37t-6.5 32q-7 17 -16 23t-22 6q-11 1 -27 -12.5t-25 -38.5q-12 -36 -12 -66zM206 201q19 -48 57.5 -69t98.5 -21q8 0 38 4l75 10q-12 -102 -66 -191l-71 13q-36 6 -71 16t-64 25h1q-98 47 -135 116q-26 47 -37 95t-11 98
q0 29 5.5 61t16.5 59q35 84 91.5 126.5t131.5 37.5h-1q230 -14 224 -329z" />
    <glyph glyph-name="f" unicode="f" horiz-adv-x="450" 
d="M423 586q-35 -26 -134 -29l-4 62q-8 42 -18 56t-24 14q-9 -13 -11.5 -33.5t-2.5 -49.5q0 -31 6 -86.5t12 -124.5q11 3 28 4t31 4l68 13q21 -33 27.5 -65t1.5 -66q-34 -7 -53.5 -10.5t-33 -5.5t-26 -4t-31.5 -6l2 -29q2 -31 4 -61t4 -61q4 -57 8 -101.5t9 -75.5
q1 -4 2.5 -12t3 -16.5t3 -16.5t1.5 -12q-35 -17 -81 -23t-96 -1q0 8 -1 29t-3 42q-2 25 -4 54l-7 86q-1 1 -2 18t-2.5 42t-3 55.5t-3.5 59.5q-6 0 -16 -1t-21 -1.5t-20.5 -1.5t-13.5 -2q-9 17 -12.5 37.5t-3.5 36.5q0 8 -2 27t0 41l82 1l-8 120q-4 49 -6 79t-2 44
q0 222 156 222q33 0 69 -11q35 -12 60.5 -35t43.5 -58q4 -8 9 -22.5t11 -32.5t12.5 -38.5t12.5 -39.5z" />
    <glyph glyph-name="g" unicode="g" horiz-adv-x="582" 
d="M348 -165q0 11 -0.5 32t-8 41.5t-24 36t-48.5 15.5q-23 0 -39.5 -15.5t-16.5 -53.5q0 -27 2.5 -51t12.5 -36q13 -15 31.5 -22t28.5 -6q9 0 19.5 3.5t20 10.5t16 18t6.5 27zM378 376q1 3 1 9q0 11 -4.5 23t-12.5 22t-20 16.5t-28 6.5q-14 0 -31 -3.5t-29 -8.5
q-6 -3 -15.5 -13t-18 -23.5t-14.5 -29t-6 -29.5q0 -5 4.5 -13.5t11.5 -16.5q7 -9 13.5 -15.5t15 -10.5t21 -6t33.5 -2q38 0 56.5 24t22.5 68v2zM538 576q-5 -1 -17 0.5t-27 1t-30 -5.5t-27 -18q18 -16 38 -37.5t36.5 -45t27 -47.5t10.5 -45q0 -53 -17.5 -96t-50 -73
t-78.5 -46.5t-103 -16.5q-4 0 -14.5 0.5t-23 1.5t-25 3t-20.5 5q-5 -5 -6.5 -13t-1.5 -15q0 -9 2 -17q0 -3 6.5 -12t18.5 -17q5 3 15 5t21.5 3.5t22 2t16.5 0.5q44 0 83 -15t68.5 -43.5t47 -69.5t17.5 -94q0 -54 -13 -96.5t-57 -80.5q-13 -11 -32 -20.5t-41 -17t-46 -11.5
t-47 -4q-34 0 -77 15t-81.5 45.5t-65 77.5t-26.5 110q0 87 56 140q-23 26 -36 50.5t-13 47.5q0 29 12 48t41 36q-35 31 -58 67t-23 65q0 30 6 59.5t28 62.5q45 68 107.5 94.5t134.5 26.5h28q22 57 68 87t115 30q10 0 19 -0.5t17 -0.5h17q11 -33 13 -49t2 -30
q0 -10 -3.5 -27.5t-7.5 -31.5z" />
    <glyph glyph-name="h" unicode="h" horiz-adv-x="551" 
d="M515 -65q-19 -3 -36 -5q-14 -2 -28.5 -3.5t-22.5 -0.5q-7 -1 -17.5 -0.5t-22 1.5t-22.5 3t-19 5l2 74q1 37 5 79t-1 93q0 30 -2.5 52.5t-6 40.5t-8 33t-8.5 30q-5 14 -10.5 24.5t-16.5 10.5q-14 0 -25.5 -11t-21 -26.5t-16.5 -32t-11 -26.5l11 -109l18 -166l6 -61
q-41 -13 -80 -18t-83 -1l-7 65l-13 121q-6 52 -12 112t-13 127q-2 18 -6.5 72.5t-13.5 130t-21.5 166.5t-28.5 183q71 20 104 20q10 0 26 -1.5t54 -10.5l6 -56q5 -46 7 -108t10 -131q3 -20 4.5 -43t2.5 -46t2 -44.5t3 -39.5q7 18 22.5 34t34 28t37 19.5t30.5 8.5q18 1 38 -6
t39.5 -21.5t37 -36t29.5 -49.5q16 -38 31 -122.5t15 -218.5v-33.5t-1 -34.5q0 -3 -0.5 -13t-1 -22t-0.5 -22.5t1 -13.5z" />
    <glyph glyph-name="i" unicode="i" horiz-adv-x="295" 
d="M229 631q-1 -20 -9.5 -36t-22 -27.5t-31.5 -18t-37 -6.5q-18 0 -35.5 6.5t-32 18.5t-23.5 28t-9 35t8.5 35t23 27.5t32.5 18t36 6.5q40 0 68.5 -24.5t31.5 -62.5zM260 -33l-32 -6q-14 -2 -28.5 -4.5t-25.5 -3.5h-10.5t-14.5 1t-23 3t-35 6q-2 39 -5.5 93.5t-9 119
t-12 134.5t-13.5 139q41 13 83 17.5t86 -1.5l7 -63l-1 2q2 -14 6 -64t10 -118q3 -33 8.5 -100t9.5 -155z" />
    <glyph glyph-name="j" unicode="j" horiz-adv-x="333" 
d="M235 670q0 -36 -34 -68q-29 -29 -78 -29q-51 0 -80 29l2 -1q-35 32 -35 69q0 38 35 70l-2 -1q29 29 80 29q47 0 77 -28q35 -33 35 -70zM319 -265q0 -14 -0.5 -25.5t-2.5 -22.5v1q-11 -70 -65 -120q-47 -39 -118 -39q-87 0 -150 58q-69 67 -69 161v32q1 10 3.5 29t3.5 27
q99 25 170 -20l-6 -53q-1 -3 -1 -16q-2 -36 16 -54h-1q21 -22 34 -22q9 0 15 39q1 5 1 14.5v23.5v12q0 24 -1 51t-4 62t-8 80.5t-13 106.5q-8 48 -16.5 101t-17 107t-17.5 107t-16 101q45 19 87.5 23t80.5 -5l10 -55l56 -361q16 -100 22.5 -188.5t6.5 -154.5z" />
    <glyph glyph-name="k" unicode="k" horiz-adv-x="550" 
d="M617 -161q-31 -8 -61 -10t-54 0q-28 2 -55 7q-20 16 -33.5 30.5t-25 29.5t-23 32.5t-25.5 40.5q-22 42 -46 99t-44 114l-17 -21q4 -44 6 -64t3.5 -37t2.5 -43t3 -82q-26 -4 -47.5 -6t-40.5 -2t-37.5 0.5t-38.5 2.5q-1 32 -1.5 48.5t-0.5 24v9.5t-0.5 5t-1 11t-2.5 28
q-5 64 -13.5 149.5t-19.5 194.5q-12 118 -24 230.5t-20 216.5q58 26 100 26q8 0 28.5 1t55.5 -6q-2 -15 -3 -32q-1 -14 -1.5 -32.5t-0.5 -35.5q4 -48 8 -91.5t8.5 -86t9 -86t8.5 -90.5q1 -17 2 -32.5t3 -30.5q14 15 31.5 35.5t40.5 49.5l111 142q17 -13 32.5 -26t31.5 -29
t33 -35.5t38 -45.5q-23 -17 -43 -33l-34 -28t-25 -23q-12 -12 -23 -22t-21 -19t-18.5 -19t-17.5 -23q8 -16 17.5 -35.5t19.5 -42.5q13 -23 23 -43.5t20.5 -40t22 -40t27.5 -42.5q33 -47 61 -60t59 -3z" />
    <glyph glyph-name="l" unicode="l" horiz-adv-x="287" 
d="M226 -49q-7 -4 -29.5 -7.5t-49.5 -6t-53.5 -1.5t-42.5 6q1 30 2 58q1 24 1 50.5t1 46.5q3 40 3.5 77.5t0.5 75.5t-0.5 78t-0.5 85q0 100 0.5 200.5t-4.5 197.5q2 19 -4.5 40.5t-11.5 35.5q34 13 59.5 18t49.5 3q4 0 16.5 -1t26.5 -2.5t27 -2.5t18 -2q-6 -69 -8 -121
t-2.5 -97t-1 -88t-1.5 -95q0 -21 -0.5 -65t-0.5 -97.5t-0.5 -109t-1.5 -100.5q0 -26 0.5 -52t2 -49t2.5 -42.5t2 -32.5z" />
    <glyph glyph-name="m" unicode="m" horiz-adv-x="822" 
d="M615 -61q-2 16 -4 37t-3 44t-1.5 45.5t-0.5 40.5q0 27 -1 61t-2 66t-2.5 58.5t-2.5 37.5q-3 21 -9.5 30t-5.5 11q-17 3 -31.5 -13t-24.5 -40.5t-16 -53t-7 -49.5q-3 -60 -4.5 -116t0.5 -110l-180 7l9 65q8 51 11.5 107.5t3.5 107.5q0 12 -1.5 26.5t-4.5 27.5t-7.5 23
t-10.5 12t-19 -0.5t-28.5 -10.5t-31 -22.5t-24.5 -36.5q-2 -51 -1.5 -73t1 -34.5t1.5 -27t1 -51.5v-25.5t1 -28.5q1 -16 2 -33l-185 9q1 -1 3 17.5t4.5 45.5t5.5 56.5t5 49.5q3 25 3 61.5t-4.5 74t-13.5 72.5t-23 57q34 17 65 31q26 12 52.5 23.5t41.5 16.5q7 -12 13 -25
q5 -11 10 -26t8 -30q18 22 47.5 45t63.5 29q18 3 41 0.5t46 -16.5q28 -17 43.5 -33.5t26.5 -36.5q6 15 19.5 29t30 25t33.5 18t32 8q48 2 81 -11t61 -48q15 -20 22.5 -44.5t10.5 -51.5t3.5 -55.5t1.5 -56.5q0 -25 0.5 -54t1.5 -57t2 -53t2 -43q1 -17 5 -42.5t8 -51.5z" />
    <glyph glyph-name="n" unicode="n" horiz-adv-x="537" 
d="M500 228q-2 -14 -4 -36t-3.5 -47.5t-2.5 -52.5t-1 -51v-8.5t1 -13.5t2 -24t4 -40l-196 36q5 29 6 46t3 33q1 10 3 26t4 35.5t5 40t7 40.5q5 30 9 59t4 62q0 20 -3.5 35t-11.5 20q-7 0 -21.5 -10.5t-32 -25.5t-34 -32t-27.5 -31q1 -24 1 -41.5v-31t-0.5 -24.5t-0.5 -22
q0 -9 -1 -37t-1.5 -59.5t-0.5 -58t2 -32.5l-174 -15q3 63 6 118l2 48t1.5 46.5t1.5 41.5t1 31q0 11 -0.5 28t-2 38t-3 44t-2.5 45q-4 52 -8 110q25 6 69.5 12.5t94.5 1.5l2 -42q1 -17 1.5 -31t0.5 -19q9 14 23.5 29.5t32 29.5t36.5 25t38 15q16 4 40 1t38 -8
q32 -14 52.5 -34.5t32 -45.5t15.5 -52.5t4 -55.5q0 -26 -4.5 -56.5t-7.5 -59.5z" />
    <glyph glyph-name="o" unicode="o" horiz-adv-x="516" 
d="M332 271q-4 15 -13.5 31t-22.5 28.5t-27.5 20.5t-29.5 8t-25.5 -7.5t-17 -18.5t-10 -22.5t-3.5 -20.5q0 -21 7 -45.5t19 -45.5t28.5 -34.5t34.5 -13.5t30.5 7t20.5 17.5t12 23t4 22.5q0 11 -2 23.5t-5 26.5zM491 259q-1 -46 -8 -91t-36 -85q-33 -43 -76 -65.5t-100 -22.5
q-117 0 -189 92q-35 44 -47 88.5t-12 95.5q0 43 15 85t44 75t71.5 53t97.5 20q39 0 81 -15t77 -46t57.5 -77t24.5 -107z" />
    <glyph glyph-name="p" unicode="p" horiz-adv-x="535" 
d="M347 304q2 13 1.5 22t-0.5 14q-2 23 -5.5 36t-7.5 19t-7 7.5l-3 1.5q-29 3 -64 -16q-13 -5 -23.5 -16.5t-18.5 -26.5q0 1 -2.5 -5t-4.5 -10l-14 -108q42 -46 60 -46q10 -1 24.5 6.5t30.5 26.5q15 20 22.5 44t11.5 51zM513 270q-3 -18 -8 -40.5t-12.5 -45.5t-17 -44.5
t-21.5 -38.5q-21 -30 -48.5 -48.5t-56 -26.5t-54 -8.5t-43.5 5.5q-8 2 -18.5 10t-21 18.5t-20 21.5t-15.5 20q-1 -15 -4 -40t-7 -54t-8 -59.5t-7 -55.5q-5 -35 -10.5 -76t-14.5 -87l-4 -54q-45 2 -90 11.5t-83 26.5q6 30 12.5 61t12.5 59.5t10.5 53t7.5 41.5q2 10 5 26.5
t5.5 35.5t5 38.5t2.5 36.5q4 26 8.5 68t9.5 87.5t9.5 88t8.5 69.5q6 50 6 97t-8 92q45 17 79 25t59 4q10 -2 28.5 -4.5t36.5 -11.5l-10 -73q8 7 20.5 16t26.5 16.5t28 12t24 3.5q41 -7 72.5 -24.5t53.5 -49.5q32 -48 45.5 -98t5.5 -105z" />
    <glyph glyph-name="q" unicode="q" horiz-adv-x="607" 
d="M368 255q0 49 -12 64q-16 21 -39 31q-15 8 -25.5 10.5t-18.5 1.5q-14 -2 -24 -7.5t-17.5 -14.5t-14 -23t-14.5 -34q-16 -40 -16 -68q0 -21 8 -36.5t20.5 -25t28.5 -14.5t31 -5q21 0 29 6t18 16t21 26q18 26 24 53q1 4 1 9.5v10.5zM758 -310q-46 -44 -86.5 -62t-88.5 -18
q-43 0 -78.5 11t-64.5 46q-27 34 -43.5 74t-20.5 72q-1 11 -1 30.5t0.5 40t0.5 38.5v27q0 5 1 16t2 24t2 26.5t2 23.5q-23 -17 -52 -33t-61 -16q-38 0 -65.5 6.5t-49 18t-39 27.5t-36.5 35q-30 29 -43 61.5t-13 68.5q0 26 6 58.5t15 67.5q26 92 82.5 133t149.5 41
q30 0 62.5 -17.5t60.5 -43.5q3 10 4 23t1.5 25t0.5 22v13q99 8 169 -22l-7 -59q-11 -86 -16 -143t-6 -101q0 -12 -0.5 -30.5t-1.5 -40t-1.5 -45t-1.5 -45.5q-2 -53 -4 -112q0 -17 0.5 -35.5t1 -35t1.5 -30.5t3 -23q7 -30 18 -39t22 -14q9 -3 13 -3q6 0 16 6.5t20.5 15.5
t19.5 20t12 20q21 -8 38 -21t30.5 -28.5t23.5 -30.5t17 -25z" />
    <glyph glyph-name="r" unicode="r" horiz-adv-x="502" 
d="M473 349q1 -12 1 -23v-21.5t1 -20.5q-30 -6 -58 -10q-24 -4 -50.5 -6.5t-44.5 -2.5l3 74q0 13 -4 24.5t-14 9.5q-9 -2 -17 -5t-16 -9t-18.5 -16.5t-25.5 -27.5l-24 -36q-1 -29 -2.5 -61.5t0.5 -66.5q0 -18 0.5 -30.5t1 -29t2 -42t4.5 -69.5l-184 3l1 80q2 43 4 78.5
t3 70.5t1 74t-1 90q0 20 -1 36t-1.5 31.5t-2 32t-3.5 37.5q14 6 42 11.5t56 10.5q33 5 69 10q1 -17 2 -33t2 -30q1 -16 2 -31q8 7 21.5 20.5t28.5 26.5t29.5 23t26.5 12q39 5 66.5 -5t50.5 -36q11 -11 20 -28.5t15.5 -37.5t10 -40.5t3.5 -36.5z" />
    <glyph glyph-name="s" unicode="s" horiz-adv-x="486" 
d="M199 389q2 -15 19 -22.5t46 -17.5q33 -11 68.5 -25.5t64.5 -38t48 -58.5t19 -88q0 -43 -17 -79t-47 -61.5t-71.5 -40t-90.5 -14.5q-70 0 -112.5 18.5t-65.5 51.5t-30 79t-5 101l169 -12q-10 -32 -7 -52t5 -28q2 -10 12 -19.5t29 -9.5q26 0 44 21.5t18 50.5q0 18 -8 31
t-21.5 22t-30.5 16t-35 13q-32 11 -63 24t-55.5 31t-40 43.5t-15.5 63.5q-1 50 20.5 84t55 54.5t74.5 29.5t80 9q36 0 68.5 -4.5t58 -23t41.5 -57t18 -107.5l-122 -9q-1 20 -6.5 34.5t-13.5 24.5t-17.5 15t-17.5 5q-28 1 -48 -16t-18 -39z" />
    <glyph glyph-name="t" unicode="t" horiz-adv-x="529" 
d="M376 323h-41.5t-44.5 -1q0 -27 -1 -74.5t-1 -112.5q0 -25 6.5 -46t23.5 -21q6 1 17.5 13t23 27.5t20.5 29t11 17.5q42 -6 73.5 -21t56.5 -46q-17 -49 -46.5 -85t-65.5 -59.5t-74.5 -35t-72.5 -11.5q-8 0 -18 1t-19 3h1q-115 24 -114 187v47t1 84v87q-24 -2 -46 -3.5
t-33 -2.5v153q10 0 21.5 -0.5t22 -1t19.5 -0.5h13v45t2 35q2 47 6.5 110.5t9.5 132.5q101 11 173 -18l-2 -61l-3 -40q0 -14 -1 -27t-2 -28.5t-2.5 -34t-2.5 -42.5q-1 -9 -1.5 -12.5t-0.5 -7.5v-11.5v-23.5q23 2 50.5 3.5t50.5 3.5l81 5q11 -23 12.5 -45t1.5 -39
q0 -5 -0.5 -14.5t-1.5 -20.5t-2 -21t-2 -16z" />
    <glyph glyph-name="u" unicode="u" 
d="M467 -5q-29 -14 -132 -19q-1 11 -3.5 27t-5.5 31t-5.5 26.5t-2.5 13.5q-13 -14 -30.5 -24.5t-36.5 -18t-38.5 -11.5t-35.5 -4q-163 0 -163 199q0 28 2 61.5t6 75.5q1 14 3 33.5t4 40t3.5 40t2.5 33.5q52 0 93.5 -5t73.5 -13q-3 -39 -5 -76t-4 -67.5t-3 -54t-1 -35.5
q0 -67 26 -78q5 0 13 4t16.5 10t16 13t10.5 13q7 15 12.5 30t11.5 46q3 14 3 31t-0.5 34.5t-1 34t-0.5 28.5q26 5 49 8.5t33 3.5q28 0 87 -21q-1 -10 -2 -31.5t-1 -31.5q0 -29 1.5 -65.5t4.5 -64.5q2 -20 5 -45t6.5 -52t7 -54.5t8.5 -52.5z" />
    <glyph glyph-name="v" unicode="v" horiz-adv-x="545" 
d="M497 376q-4 -9 -12 -26t-18 -38.5t-20.5 -46t-20.5 -49.5l-96 -237q-19 -5 -45.5 -11.5t-45.5 -8.5l-68 127q-15 29 -26 52.5t-21 44.5q-11 23 -20 43t-20 45q-11 26 -22 50t-22 49l-46 103q65 61 164 74q5 -15 13 -40t18.5 -55t22.5 -64.5t25 -68.5q8 -23 16 -43.5
t16 -37.5q18 46 40 100.5t48 108.5l-1 -1l44 100l137 -82z" />
    <glyph glyph-name="w" unicode="w" horiz-adv-x="741" 
d="M732 438q-8 -32 -21 -85t-35 -124q-5 -15 -13.5 -42t-20.5 -61t-25.5 -72.5t-27.5 -77.5l-90 -26l-59 123q-16 34 -37 67t-33 52l-2 2q-15 -21 -33.5 -52t-37.5 -65t-37 -66t-31 -54l-81 5l-60 257q-8 30 -16.5 56t-19 51.5t-22 51.5t-25.5 56q15 11 33.5 22t29.5 19
q14 7 39.5 14.5t63.5 18.5q6 -29 11 -51.5t11 -50t14.5 -66t23.5 -100.5l1 2l120 225q18 2 36.5 4t31.5 0l107 -239q11 38 22 91.5t26 119.5q4 18 5.5 39t1.5 33q22 3 44.5 0.5t43.5 -7t39.5 -11.5t31.5 -13z" />
    <glyph glyph-name="x" unicode="x" horiz-adv-x="537" 
d="M492 424q-10 -14 -23.5 -31.5t-29.5 -37.5q-10 -14 -18.5 -24t-17 -21t-18.5 -24.5t-24 -32.5l35 -40v1q7 -8 23.5 -29t35.5 -45t36 -46.5t26 -32.5l40 -48q-15 -35 -47 -59.5t-86 -38.5l-40 50q-5 5 -22.5 25t-38 44t-40.5 46.5t-29 33.5q-13 -14 -27.5 -32t-28.5 -38.5
t-27.5 -41t-23.5 -38.5q-37 16 -71 37t-66 51q9 16 25.5 39.5t36 49t40.5 52t39 48.5q-13 14 -30 35t-36 45t-39.5 48.5t-39.5 45.5q33 45 49 59q10 10 80 42l53 -73h1q7 -9 10 -13t7.5 -9.5t13.5 -15t28 -29.5q31 41 71 94t78 105q41 -25 74 -48.5t58 -50.5z" />
    <glyph glyph-name="y" unicode="y" horiz-adv-x="574" 
d="M542 415h1q-17 -35 -38.5 -82.5t-50 -113.5t-64.5 -153t-82 -201q-6 -17 -10.5 -27t-8.5 -19.5t-9 -21.5t-13 -33q-5 -15 -13 -35.5t-17 -43.5t-18.5 -47.5t-18.5 -48.5q-54 4 -91.5 19.5t-59.5 44.5q5 9 11.5 25t9.5 23v-1q7 16 15.5 38t17.5 46t17.5 47.5t15.5 44.5
q11 27 20.5 50.5t18.5 46t18.5 46t20.5 50.5q-42 30 -77 69.5t-61 87.5q-15 27 -27 59.5t-20 65.5t-12.5 65.5t-4.5 61.5q18 10 39.5 14t44.5 3.5t46 -4t44 -7.5q15 -122 50 -192q10 -20 20.5 -39t21.5 -33q38 87 75.5 168t66.5 143q49 -6 86.5 -22.5t60.5 -44.5z" />
    <glyph glyph-name="z" unicode="z" horiz-adv-x="559" 
d="M539 101q0 -13 -2.5 -36.5t-12.5 -52.5l-76 2q-17 1 -36 0q-24 -1 -55.5 -0.5t-72.5 -4t-91.5 -17.5t-112.5 -41l-23 64l26 75l23.5 47t35.5 67.5t42 74.5t43 68l4 6q-8 -3 -23 -8t-32 -9.5t-32.5 -8.5t-24.5 -7q-13 -5 -24 -9.5t-19 -9.5q-10 -5 -19 -10l-41 156
q13 1 29 5q14 3 31.5 7.5t37.5 12.5q22 7 42.5 12.5t42 11.5t44.5 12t52 14q16 4 39.5 10t47.5 12t46.5 12.5t37.5 12.5q9 -18 24 -38t20 -28q-8 -24 -14.5 -36.5t-19.5 -30.5l2 2q-14 -20 -30.5 -48t-33.5 -51q-26 -35 -49 -67.5t-39 -61.5q-5 -9 -6.5 -13.5l-3 -9
t-3 -11.5t-6.5 -20q28 6 58 10t55 4q4 0 16 0.5t28.5 0.5t35 -0.5t35.5 -1.5z" />
    <glyph glyph-name="braceleft" unicode="{" horiz-adv-x="355" 
d="M358 -139q-30 -24 -64.5 -36t-70.5 -12q-25 0 -55.5 7.5t-49.5 17.5q-23 12 -37 28.5t-21.5 35t-10 37t-2.5 34.5q0 26 6.5 51.5t17 49t23.5 45.5t25 42q6 10 11.5 22.5t8.5 25t3.5 24t-3.5 18.5q-9 3 -24.5 4.5t-32.5 2t-32 -0.5t-22 -2l-15 121q10 1 19 4q8 2 16 4.5
t13 6.5q20 14 33 33.5t13 44.5q-5 8 -12 12.5t-13 9.5q-14 10 -27 20.5t-23 22t-16 25.5t-6 31q0 14 4.5 30t16.5 39q27 46 70.5 103t117.5 110l87 -108q-5 -4 -17.5 -16.5t-28.5 -29.5t-33.5 -36.5t-32 -37t-24.5 -31.5t-10 -20q7 -5 12.5 -8.5t11.5 -7.5q15 -9 29 -18.5
t26 -20.5t20.5 -24.5t10.5 -29.5q3 -30 -8.5 -60.5t-31.5 -56.5q10 -6 23.5 -16t25 -21t19.5 -23t8 -23q0 -20 -5 -40.5t-10 -38.5q-12 -24 -26.5 -54t-28 -61t-25 -62t-17.5 -57q1 -13 5 -25t10 -18q9 -2 25 2t33.5 11.5t33.5 19t25 25.5l49 -113z" />
    <glyph glyph-name="bar" unicode="|" horiz-adv-x="275" 
d="M217 853q-2 -82 -5 -157q-1 -32 -2 -65.5t-2 -65.5t-2 -60t-2 -49q0 -34 1 -86.5t2.5 -111.5t3 -119t3 -108t3 -79t2.5 -32l-162 -6q-1 1 -2 33t-3 81t-3.5 110t-2.5 121t-2 113.5t-1 87.5q0 21 0.5 48.5t1 58.5t1 64t0.5 65q1 73 1 153q21 15 43.5 21t44.5 7.5t42.5 -1
t37.5 -4.5z" />
    <glyph glyph-name="braceright" unicode="}" horiz-adv-x="346" 
d="M330 343q-29 -7 -42 -12t-17 -10q6 -40 19 -75q6 -19 10.5 -36.5t8.5 -34.5q11 -55 11 -122q0 -51 -11 -101t-40 -88l1 1q-20 -28 -50.5 -39.5t-65.5 -11.5t-73 19t-71 55l120 87q10 -11 17 -22q11 5 12.5 15t2.5 16q2 19 -0.5 37.5t-2.5 37.5q0 45 -7.5 81t-17.5 74
q-6 19 -11.5 41.5t-10.5 45.5q-6 33 2 55.5t31 42.5q-21 24 -21 55q0 20 8 43t19 48q3 8 7 18.5t8 24.5q2 8 2 25q0 25 -4.5 52t-12.5 39q-6 6 -15 6q-5 0 -25 -2t-59 -7l-17 136q39 4 77.5 2.5t72 -10t60.5 -23.5t44 -39q20 -30 30.5 -67.5t10.5 -73.5q0 -55 -25 -108
q-2 -2 -4.5 -6.5t-2.5 -6.5q-6 -11 -14 -24.5t-7 -16.5q0 -1 10 -5t22.5 -8t23.5 -7.5t14 -3.5z" />
    <glyph glyph-name="asciitilde" unicode="~" horiz-adv-x="616" 
d="M582 516q-23 -79 -75.5 -125.5t-124.5 -46.5q-67 0 -125 43q-17 12 -29 20.5t-17 8.5q1 0 -10.5 -3t-19.5 -14q-6 -6 -13 -15.5t-14 -21t-12.5 -23.5t-7.5 -22l-117 38q2 17 6 32q2 13 5.5 26t6.5 21q27 74 65 105.5t99 31.5q33 0 69.5 -14t72.5 -43q9 -8 19.5 -16
t15.5 -10q11 2 20.5 29t15.5 76q71 0 112 -13t64 -31z" />
    <glyph glyph-name="uni00A0" unicode="&#xa0;" horiz-adv-x="282" 
 />
    <glyph glyph-name="exclamdown" unicode="&#xa1;" horiz-adv-x="302" 
d="M105 682q0 17 6 33.5t17 29.5t27.5 21t37.5 8q42 0 64 -26t22 -62q0 -35 -24 -61.5t-65 -26.5q-33 0 -59 24t-26 60zM168 500q14 -2 27 -4.5t23 -4.5l22 -6q-8 -72 -13 -132q-2 -26 -4.5 -51t-4 -45.5t-2 -35t-0.5 -18.5q0 -5 -0.5 -20.5t-2 -38t-3 -49.5t-2.5 -54
q-4 -64 -8 -143l-187 19q2 16 5.5 52.5t7 75.5t6.5 73.5t4 46.5q4 22 9.5 60.5t10.5 84.5q2 18 6 50t8 63q4 36 10 77q15 2 30 3q28 2 58 -3z" />
    <glyph glyph-name="cent" unicode="&#xa2;" horiz-adv-x="476" 
d="M172 390q-5 -23 2 -45.5t26 -38.5l27 115l12 56q-23 -13 -42 -35.5t-25 -51.5zM390 728q-5 -18 -11 -39q-5 -18 -12 -42t-14 -50q9 -4 22 -10.5t26 -14t25 -15.5t21 -15l-62 -100q-11 11 -32 23t-31 16q-6 -23 -10.5 -42.5t-8.5 -35.5l-28 -112q20 3 30 9q15 8 35 18.5
t37 21.5l51 -108q-21 -20 -41 -35.5t-42 -26t-48 -17t-59 -7.5q-14 -56 -24.5 -103t-13.5 -70q-8 1 -20.5 3.5t-24.5 6.5q-14 4 -29 9q5 21 11 47q5 22 12 51.5t15 62.5q-38 11 -65 36.5t-43.5 60.5t-22.5 77.5t0 88.5q9 85 72 145q59 57 144 57h10.5t10.5 -1
q13 60 22.5 108t11.5 67q10 4 24 4.5t28.5 -2t28 -6.5t23.5 -10z" />
    <glyph glyph-name="sterling" unicode="&#xa3;" horiz-adv-x="652" 
d="M614 83q-9 -24 -25.5 -47t-38.5 -41t-48.5 -29t-54.5 -11q-37 0 -62.5 19t-44.5 41.5t-35 41.5t-34 19h-5q-5 -18 -16.5 -38.5t-28 -38.5t-39 -29.5t-49.5 -11.5q-17 0 -36.5 6t-36 18t-27.5 29t-11 40q0 18 7.5 38t20 36.5t29 28.5t35.5 15q1 5 1 9.5v9.5q0 26 2 57
t-2 51q-9 -1 -22 -2t-26 -1.5t-23.5 -1t-14.5 -1.5l15 96l64 7v15q0 19 0.5 44t1.5 37q2 38 19.5 78.5t46 74t66 55t78.5 21.5q27 0 52.5 -10t46.5 -24.5t36.5 -30.5t21.5 -29l-69 -123q-5 11 -14 22.5t-20 21t-24 15.5t-26 6q-20 -4 -31 -21.5t-16.5 -40.5t-6.5 -47.5
t-1 -42.5v-9l121 6l-13 -97l-100 -6v-23v-36.5t-2 -36.5l14 -1q33 -2 59 -16t45.5 -31.5t33 -34.5t21.5 -24q1 0 9 6.5t18 16.5t20.5 22.5t15.5 25.5l111 -54z" />
    <glyph glyph-name="currency" unicode="&#xa4;" horiz-adv-x="797" 
d="M676 504q-37 35 -71 51.5t-62 14.5q-11 -1 -30.5 -4.5t-33.5 -8.5q-41 -15 -74 -42t-49 -57q36 2 76 5.5t74 7.5q40 4 78 10l-27 -120q-43 -2 -85 -4q-36 -2 -77 -4t-76 -3q-3 -12 -5 -24q-2 -11 -2.5 -24t1.5 -25q34 1 73.5 3t75.5 4t65 4t42 4q-8 -22 -12.5 -36.5
t-8 -25t-5.5 -19t-5 -18.5q-14 -2 -38.5 -3t-53 -2t-57.5 -2.5t-51 -2.5q8 -20 26 -40t35 -30q11 -6 25.5 -10t29.5 -5.5t29.5 -2t25.5 0.5q58 5 147 98l124 -112q-24 -29 -56.5 -53t-68.5 -42t-73.5 -29t-72.5 -14q-27 -2 -56 1t-58 9t-55.5 14.5t-47.5 19.5
q-55 29 -95 79.5t-55 108.5q-44 -2 -83.5 -4.5t-56.5 -4.5l25 96q17 2 42 4t60 3q-2 11 -1 24t3 24q2 13 5 27q-19 0 -37.5 0.5t-34.5 0.5q-18 0 -35 1l41 107l30 -4q13 -2 26 -2t23 2q26 77 92.5 142t165.5 103q23 9 51 14.5t56 7.5q72 4 136.5 -19.5t135.5 -82.5z" />
    <glyph glyph-name="yen" unicode="&#xa5;" horiz-adv-x="629" 
d="M548 149q-20 -2 -45 -3.5t-63 -3.5q1 -29 3 -59t3.5 -57t2.5 -47.5t2 -29.5l7 -76l-165 -8l-2 74q0 15 -1 36.5t-2.5 47.5t-3 55t-2.5 59q-26 -1 -54 -2.5t-54 -3t-46.5 -2.5t-29.5 -2l-13 99q12 1 34.5 2.5t48.5 3t54 3t52 1.5l1 84q-25 -1 -54 -1h-55h-60l-16 102h47
q20 0 41.5 -0.5t38.5 0.5q-28 31 -57.5 67.5t-59.5 73.5t-59 72t-55 65q48 95 126 126l51 -54q16 -26 36.5 -55.5t42.5 -60.5t44.5 -60t42.5 -53q18 42 47 104.5t72 153.5q99 -27 141 -75l-27 -54q-25 -48 -46 -98.5t-49 -117.5q22 1 43.5 2.5t39.5 2.5l40 2l-21 -110
q-23 -7 -47 -12q-20 -5 -44.5 -9t-46.5 -5v-85q19 1 40.5 2.5t41.5 3.5t38.5 3.5t31.5 3.5q0 -11 2.5 -23.5t5 -25.5t4.5 -26t2 -23z" />
    <glyph glyph-name="brokenbar" unicode="&#xa6;" horiz-adv-x="241" 
d="M190 394q-2 -41 -3 -79q-2 -32 -2.5 -65.5t-1.5 -53.5q-2 -19 -2 -53t-1 -69q-1 -40 -1 -86l-139 3q-1 43 -2 83q-1 34 -1.5 68t-1.5 54q-1 22 0.5 57.5t1.5 64.5v73zM38 489q-1 35 -1 68v56t1 45q1 7 1 15.5v19.5q0 22 -1 52.5t-2 59.5q-1 33 -2 68l147 1q1 -50 3 -93
q1 -37 2 -72.5t2 -51.5v3q1 -6 1 -16v-21q0 -21 -1 -44.5t-2 -43.5q-1 -23 -2 -45z" />
    <glyph glyph-name="section" unicode="&#xa7;" horiz-adv-x="473" 
d="M204 600q2 -14 17.5 -24t36.5 -18q-2 21 -6.5 40.5t-6.5 19.5h-7q-11 0 -22.5 -2t-11.5 -16zM210 163q-4 2 -8 2.5t-8 1.5q3 -13 7.5 -26.5t10 -24.5t11 -18t10.5 -7q10 0 20.5 3t9.5 23q-1 14 -17.5 26.5t-35.5 19.5zM307 368q0 12 -3 16.5t-9 8.5l-5 4q-12 2 -27 2h-35
q-25 0 -41 -15t-16 -42q0 -11 1.5 -15t5.5 -6l7 -5q12 -2 28 -3.5t36 -1.5q26 0 42 14.5t16 42.5zM446 361q0 -55 -19.5 -89.5t-57.5 -57.5q16 -17 25.5 -42t9.5 -55q0 -52 -14.5 -83.5t-38.5 -48t-55 -22t-64 -5.5q-29 0 -55.5 7.5t-49 26.5t-39.5 51.5t-27 81.5l119 46
q-28 7 -54.5 16.5t-47.5 28t-33.5 50t-12.5 83.5q0 51 19.5 86t54.5 58q-23 15 -37 37.5t-14 57.5q-1 52 17 84t45.5 50t62 24t66.5 6q30 0 56.5 -4t46.5 -22.5t32.5 -58.5t15.5 -112l-110 -7q28 -9 56.5 -20.5t51 -31.5t37 -52t14.5 -83z" />
    <glyph glyph-name="dieresis" unicode="&#xa8;" horiz-adv-x="465" 
d="M205 642q-1 -15 -5 -29.5t-12.5 -26t-22.5 -19t-35 -7.5q-17 0 -30.5 6.5t-22.5 17t-14 23t-5 24.5q0 30 21 52t57 22q32 0 50.5 -17.5t18.5 -45.5zM403 692q8 -11 10.5 -22t2.5 -22q0 -32 -14.5 -55t-53.5 -26q-21 0 -35 6.5t-23 17t-13 23.5t-4 25q0 35 17 55t55 23
q17 0 32 -4t26 -20v-1z" />
    <glyph glyph-name="copyright" unicode="&#xa9;" horiz-adv-x="590" 
d="M428 243q-11 -11 -28 -25t-36 -26.5t-39 -21t-37 -8.5q-33 0 -55 14.5t-35.5 37t-19.5 50t-6 53.5t7 58.5t22 61t38.5 48t56.5 19.5q34 0 66 -22t58 -48l-63 -63q-13 14 -29.5 28.5t-27.5 14.5t-18.5 -13t-12.5 -31t-7.5 -36t-2.5 -28q0 -18 6 -35.5t26 -17.5
q19 0 45.5 15.5t48.5 32.5zM481 341q0 38 -14 75t-39 66t-59.5 47t-76.5 18q-45 0 -77.5 -20.5t-54 -52.5t-32 -71.5t-10.5 -78.5q0 -36 13 -73t36 -66.5t55.5 -48.5t71.5 -19q43 0 77.5 20.5t59 53t37.5 72t13 78.5zM566 362q0 -59 -19 -119.5t-55.5 -109t-90 -79.5
t-122.5 -31q-62 0 -108.5 30.5t-77.5 77.5t-46.5 103t-15.5 107q0 49 18 102t51.5 96t80.5 71t105 28q57 0 108 -22.5t89 -60t60.5 -88t22.5 -105.5z" />
    <glyph glyph-name="ordfeminine" unicode="&#xaa;" horiz-adv-x="422" 
d="M185 434q25 0 54 18v22q-1 14 -1 29.5v30.5l-10 5q-11 0 -21.5 -8t-18 -20.5t-12 -28t-4.5 -29.5q0 -19 13 -19zM389 298q-23 -13 -62 -17t-86 -4v17q-36 -12 -77 -12q-44 0 -73 15t-46 40.5t-24 58.5t-7 68q0 43 14 82t40.5 69t63.5 47.5t83 17.5h11v22l166 35v-207
q0 -25 2 -57.5t5 -64.5t8 -60.5t11 -45.5z" />
    <glyph glyph-name="guillemotleft" unicode="&#xab;" horiz-adv-x="686" 
d="M590 7l-269 214l-5 78l255 247l73 -116l-158 -161q21 -18 44 -37t45.5 -37.5t44 -36.5t39.5 -34zM305 -7l-269 214l-5 79l255 247l73 -117l-157 -161q42 -35 89 -73.5t84 -70.5z" />
    <glyph glyph-name="logicalnot" unicode="&#xac;" horiz-adv-x="579" 
d="M238 70q0 14 -6.5 30t-14.5 29t-15 21.5t-8 8.5q-7 -4 -10.5 -23t-3.5 -43q0 -23 8 -46t21 -41t30 -29t36 -11q33 0 56 14.5t38 39t21.5 57.5t6.5 70q0 48 -11.5 78.5t-30.5 49t-43.5 28t-49.5 16.5q-41 11 -81 24t-72.5 36.5t-52.5 61.5t-20 99q0 42 15.5 92t44.5 93.5
t70.5 72.5t93.5 29q33 0 66 -5.5t63.5 -23.5t58 -53.5t49.5 -95.5l-174 -80q-6 34 -13.5 55.5t-15.5 33.5t-16.5 16t-17.5 4q-10 0 -17.5 -15.5t-13 -37t-8 -44t-2.5 -37.5q0 -20 6.5 -32.5t17.5 -20t25 -12t29 -8.5q11 -3 23.5 -6.5t23.5 -7.5q39 -13 79 -30t72 -48.5
t52.5 -83.5t20.5 -135q0 -69 -16.5 -131t-52.5 -109.5t-91.5 -75.5t-133.5 -28q-58 0 -107 26.5t-84.5 69.5t-55 96.5t-18.5 107.5q0 32 11.5 65t33 61t53.5 46.5t73 20.5q45 2 77 -14.5t53 -43.5t33 -60.5t17 -65.5z" />
    <glyph glyph-name="uni00AD" unicode="&#xad;" horiz-adv-x="434" 
d="M373 220q-26 -3 -68 -4.5t-86 -3.5q-22 -1 -52 -2.5t-59 -3t-54 -3t-38 -2.5l-12 143q12 1 36 2.5t52.5 3t57.5 3t50 2.5q23 1 54 2.5t61 3.5t55.5 4t38.5 4l11 -108z" />
    <glyph glyph-name="registered" unicode="&#xae;" horiz-adv-x="594" 
d="M321 420q-5 14 -25.5 13t-55.5 -13q2 -8 7 -23t8 -29q9 2 20.5 6.5t22 11t17 15t5.5 19.5h1zM463 331q0 37 -7.5 77t-25.5 73t-47.5 54.5t-73.5 21.5t-82 -17.5t-66 -47t-43.5 -68t-15.5 -80.5q0 -36 10 -74.5t30 -70t50.5 -51.5t71.5 -20q40 0 75.5 16t61.5 42l-115 62
l14 -61l-86 -19l-65 281q19 11 38 21q17 8 35.5 16t34.5 13q14 4 28.5 6.5t28.5 2.5q29 0 53 -11t37 -40q3 -8 4 -17t1 -17q0 -32 -22 -59t-48 -46l110 -56q7 17 10.5 34t3.5 35zM552 362q0 -54 -18 -112.5t-52.5 -106.5t-85.5 -79.5t-116 -31.5q-68 0 -116.5 29.5t-79 76.5
t-44.5 105t-14 115t24 110t65 93t95 64t114 24q53 0 95.5 -27.5t72 -70t45 -93t15.5 -96.5z" />
    <glyph glyph-name="macron" unicode="&#xaf;" horiz-adv-x="422" 
d="M26 585l-2 97l358 9l1 -97z" />
    <glyph glyph-name="degree" unicode="&#xb0;" horiz-adv-x="425" 
d="M250 505q0 38 -9.5 58.5t-35.5 20.5q-31 0 -31 -88q0 -15 14.5 -26.5t33.5 -9.5q6 0 11.5 5.5t9 13t5.5 14.5t2 12zM386 506q0 -27 -10.5 -55t-30.5 -50.5t-49.5 -36.5t-67.5 -14q-27 0 -59 5t-60.5 20.5t-47.5 45t-19 77.5q0 31 6 66.5t24 66t50.5 50.5t85.5 20
q47 0 80.5 -14.5t55.5 -40t32 -61.5t10 -79z" />
    <glyph glyph-name="plusminus" unicode="&#xb1;" horiz-adv-x="528" 
d="M438 25q-12 -1 -32 -2t-45 -2t-52.5 -1.5t-55.5 -1.5q-24 -1 -55 -2t-60 -2.5t-53.5 -3t-36.5 -2.5l-14 148q9 1 26 2t38 2t45 2.5t47 2.5q0 2 -3 16t-6.5 35.5t-6 47t-1.5 50.5h-136l-6 124q28 7 54 12q23 5 47.5 8.5t42.5 4.5q0 27 1 59t2 59l2 64l136 -22
q6 -28 10 -56q4 -24 7 -52.5t3 -51.5q23 -2 48.5 -3.5t46.5 -3.5q25 -2 48 -3l-6 -126q-23 -4 -48 -7q-21 -3 -45.5 -5t-45.5 -1q-2 -37 -3 -78t-3 -68q29 1 62.5 3t83.5 9q0 -28 0.5 -44t1 -25t1.5 -14t2 -12l-1 3l8 -57z" />
    <glyph glyph-name="uni00B2" unicode="&#xb2;" horiz-adv-x="466" 
d="M431 267h-30h-22t-13 1q-17 0 -42 -4t-54 -10t-58 -12.5t-53 -12.5l-24 -6l-49 -10l-57 95q25 23 47 43q19 17 36 33.5t25 24.5q18 17 39 43.5t37 52.5q11 17 19 43t6 46q0 6 -6 8.5t-13.5 3t-14 -0.5t-7.5 -1q-11 0 -29 -11.5t-26 -22.5q1 1 -6.5 -7.5t-16.5 -19.5
l-24 -30q-11 9 -25 25t-28 31q-16 18 -32 37q5 14 17.5 29t28 29t33.5 26t33 21q25 13 52.5 15.5t66.5 1.5q30 -3 58 -15.5t49.5 -32t33.5 -44t11 -51.5q-1 -15 -6.5 -33t-14 -35.5t-18 -33t-19.5 -27.5q-4 -5 -11 -14t-15 -19l-16 -20t-14 -17q4 0 14 2q21 4 37 7.5t33 6.5
t36.5 5t47.5 4z" />
    <glyph glyph-name="uni00B3" unicode="&#xb3;" horiz-adv-x="426" 
d="M380 358q-11 -27 -30 -47t-44.5 -33.5t-55.5 -20.5t-61 -7q-38 0 -76.5 11.5t-64.5 32.5h2q-7 5 -7.5 5.5t-0.5 1t-2.5 3.5t-11.5 14l53 99l21 -18q15 -15 37.5 -23.5t40.5 -8.5q22 0 45 8.5t30 28.5q2 8 4 15t2 14q0 12 -5 19t-12.5 10t-17.5 3.5t-19 0.5q-5 0 -20.5 -1
t-32.5 -6l-35 66q18 14 35 26q14 11 28 22.5t22 21.5q-16 0 -38.5 -1t-45 -2.5t-42.5 -3t-31 -1.5v119h148q9 -1 31 -1.5t45 -2.5q26 -2 58 -4l37 -74q-9 -8 -22.5 -16.5t-28 -16.5t-27 -16t-18.5 -15q10 0 22.5 -2.5t24.5 -6.5t21.5 -8.5t12.5 -7.5q8 -8 16 -17t14.5 -21
t10.5 -27.5t4 -37.5q0 -28 -16 -73v-1z" />
    <glyph glyph-name="acute" unicode="&#xb4;" horiz-adv-x="498" 
d="M412 728q-8 -6 -23.5 -16t-36 -23t-44 -27t-46.5 -28q-55 -33 -120 -70l-61 48q49 40 92 76q18 15 36.5 31t35 30.5t29.5 27t20 20.5q11 -3 31 -14t40 -23q23 -14 47 -32z" />
    <glyph glyph-name="mu" unicode="&#xb5;" horiz-adv-x="572" 
d="M534 13q-41 -10 -87.5 7.5t-80.5 50.5q-5 -5 -11 -10t-13 -10q-56 -39 -116 -39q-5 0 -10 0.5t-10 1.5q-1 -20 -1 -39v-36q0 -26 0.5 -49.5t1.5 -46.5v1q0 -10 0.5 -25.5t0.5 -32v-32v-24.5q-44 -4 -85 0t-81 18q8 38 10 58t2 35q0 10 -0.5 19t-0.5 21q-1 11 -1 26.5
v29.5v34.5t1 40.5q0 10 0.5 38t2.5 69v63q0 48 0.5 98t3.5 86l2 15q2 13 3 26.5t1 23.5q0 12 -3 29t-9 43q24 13 39.5 20.5t26.5 11t20 4t18 -0.5h-1q3 -1 7 -1q11 0 32.5 -2.5t44.5 -5.5q-3 -15 -8 -47.5t-6 -67.5q0 -2 -0.5 -7.5t-0.5 -9.5l-2.5 -30t-3 -38t-2.5 -41
t-1 -40q0 -23 1 -40.5t4 -25.5q1 -4 2 -6l2 -4l2 -4q10 0 33 15q19 16 31.5 50t19.5 80t9 100.5t2 110.5q32 8 50 11.5t28 3.5q15 0 35.5 -4.5t47.5 -15.5q-1 -14 -1.5 -39.5t-1.5 -56t-1.5 -63.5t-1.5 -62.5t-1 -54v-36.5q1 -15 4.5 -26t12.5 -17.5t25.5 -10.5t43.5 -5z
" />
    <glyph glyph-name="paragraph" unicode="&#xb6;" horiz-adv-x="588" 
d="M268 400q6 0 12.5 0.5t13.5 1.5l-6 188q-6 0 -10.5 -1t-7.5 -1q-15 -1 -32 -8t-31.5 -18.5t-24.5 -25.5t-10 -28q1 -49 28 -78.5t68 -29.5zM562 -62q-13 -2 -31 -1t-35 3q-20 3 -42 6q3 50 5.5 105t4 110.5t2.5 109.5t1 102q1 114 0 225q-12 2 -34.5 5t-35.5 1
q-4 -146 -6 -271q-1 -54 -1.5 -108t0 -102t1.5 -86t4 -59q-24 -1 -44 -1q-17 0 -33.5 1t-22.5 3q4 53 4.5 109t-0.5 102q-1 54 -3 105q-8 -1 -16.5 -1h-15.5q-11 0 -22.5 1t-21.5 3q-37 8 -72.5 27t-61.5 46q-29 31 -46.5 63.5t-19.5 67.5q-1 19 2.5 40t12.5 40q20 45 72 76
t126 46q13 3 27.5 5t28.5 2q12 1 31 1.5t41 1t45 0.5h42h30t35.5 -0.5t31 -0.5h16.5q-2 -43 -3 -95t-2.5 -106.5t-2 -108.5t-0.5 -102q0 -43 0.5 -92t2 -97.5t3 -94t3.5 -81.5z" />
    <glyph glyph-name="periodcentered" unicode="&#xb7;" horiz-adv-x="265" 
d="M231 325q0 -18 -6.5 -36t-19 -32.5t-31 -23t-41.5 -8.5q-46 0 -70 28.5t-24 67.5q0 19 7 36t20 30.5t31 21.5t40 8q18 0 35 -7t30 -19t21 -29t8 -37z" />
    <glyph glyph-name="cedilla" unicode="&#xb8;" horiz-adv-x="338" 
d="M116 -187q7 -2 20 -3t25.5 0.5t22 7.5t9.5 19q0 21 -10 24t-16 3h-13q-7 0 -17.5 -1.5t-27.5 -3.5q-2 3 -6 23t-13 45l79 126l92 -2l-70 -103q29 1 52 -8t39 -25t24.5 -36.5t8.5 -42.5q0 -29 -12.5 -51t-33 -36.5t-45.5 -21.5t-50 -7q-20 0 -46.5 3t-56.5 10q6 40 7.5 62
t3.5 27z" />
    <glyph glyph-name="uni00B9" unicode="&#xb9;" horiz-adv-x="266" 
d="M48 260q1 9 2 20.5t1.5 23.5t1 22t0.5 15q0 12 0.5 38t1 55.5t0.5 56.5v41q1 19 0 45t-2.5 51.5t-3 47t0.5 32.5q13 0 34.5 1t43.5 1.5t42 0.5t31 -2q0 -17 1 -34q0 -14 0.5 -30t0.5 -27q0 -17 -0.5 -35t-1.5 -30q0 -18 -0.5 -49.5t-0.5 -68v-73.5v-65l3 -29z" />
    <glyph glyph-name="ordmasculine" unicode="&#xba;" horiz-adv-x="450" 
d="M271 485q0 10 -3 19l1 -1q-5 19 -24 31.5t-36 12.5q-5 0 -11 -9q-11 -14 -11 -28q0 -23 4 -41t18 -32q10 -9 18 -14.5t15 -5.5q3 0 13 5q10 8 13 25.5t3 37.5zM432 484q0 -39 -13 -76t-37 -71q-55 -76 -148 -76q-96 0 -159 77q-29 35 -44 75.5t-15 82.5q0 82 66 146
q32 29 70 43t84 9q63 -6 118 -53q41 -35 59.5 -70.5t18.5 -86.5z" />
    <glyph glyph-name="guillemotright" unicode="&#xbb;" horiz-adv-x="686" 
d="M100 531l269 -214l4 -78l-254 -247l-73 116l157 161q-42 35 -89 74t-84 71zM385 545l269 -214l4 -79l-254 -247l-73 117l156 161q-42 35 -88.5 73.5t-84.5 70.5z" />
    <glyph glyph-name="onequarter" unicode="&#xbc;" horiz-adv-x="879" 
d="M48 260q1 9 2 20.5t1.5 23.5t1 22t0.5 15q0 12 0.5 38t1 55.5t0.5 56.5v41q1 19 0 45t-2.5 51.5t-3 47t0.5 32.5q13 0 34.5 1t43.5 1.5t42 0.5t31 -2q0 -17 1 -34q0 -14 0.5 -30t0.5 -27q0 -17 -0.5 -35t-1.5 -30q0 -18 -0.5 -49.5t-0.5 -68v-73.5v-65l3 -29zM653 624
q-39 -52 -77 -100q-16 -21 -33.5 -43t-34.5 -44t-33 -42.5t-29 -36.5q-12 -15 -31 -41t-41.5 -59t-46.5 -69.5t-48 -72.5q-55 -84 -118 -181l-86 69q59 91 113 172q23 34 47 70t47 68.5t43 60.5t35 46q13 16 29.5 38t35 46.5t37.5 50t37 49.5q41 56 86 118q35 -25 55 -39.5
t33 -32.5zM854 51q-18 1 -34 1h-27t-21 -1l7 -119l-113 -4l-0.5 6t-1 15.5t-1.5 21t-1 22.5v15q0 6 -0.5 8t-1.5 4.5t-1.5 6.5t-0.5 15q-13 0 -28.5 -0.5t-30.5 -0.5h-28h-20q-13 0 -38.5 0.5t-58.5 0.5q-4 11 -7 15.5t-6 8t-7.5 8.5t-11.5 17l22 76q1 1 4 14.5t6.5 30.5
t6.5 32.5t5 21.5q5 29 9 52.5t6 49.5q1 0 10.5 1t25.5 1t36 -1.5t41 -7.5q-1 -8 -5.5 -37t-10 -63.5t-12 -67.5t-10.5 -49l1 1q-2 -5 -2.5 -13t-2.5 -10h25h40.5t41.5 1q0 8 -1.5 28t-3 45.5t-2.5 53t-1 51.5q0 16 1 34.5t4 41.5q18 0 32 -1t26.5 -2.5t25 -3.5t27.5 -5
q-1 -17 -2 -33q-1 -14 -1 -29v-26t0.5 -30.5t1 -41t1 -41t0.5 -30.5q7 1 22.5 1.5t32.5 1.5q19 1 42 1z" />
    <glyph glyph-name="onehalf" unicode="&#xbd;" horiz-adv-x="899" 
d="M48 260q1 9 2 20.5t1.5 23.5t1 22t0.5 15q0 12 0.5 38t1 55.5t0.5 56.5v41q1 19 0 45t-2.5 51.5t-3 47t0.5 32.5q13 0 34.5 1t43.5 1.5t42 0.5t31 -2q0 -17 1 -34q0 -14 0.5 -30t0.5 -27q0 -17 -0.5 -35t-1.5 -30q0 -18 -0.5 -49.5t-0.5 -68v-73.5v-65l3 -29zM653 624
q-39 -52 -77 -100q-16 -21 -33.5 -43t-34.5 -44t-33 -42.5t-29 -36.5q-12 -15 -31 -41t-41.5 -59t-46.5 -69.5t-48 -72.5q-55 -84 -118 -181l-86 69q59 91 113 172q23 34 47 70t47 68.5t43 60.5t35 46q13 16 29.5 38t35 46.5t37.5 50t37 49.5q41 56 86 118q35 -25 55 -39.5
t33 -32.5zM865 -18h-29h-21.5t-12.5 1q-15 0 -39 -4t-51.5 -9t-55 -11t-50.5 -12l-23 -6q-3 0 -10 -1.5t-14.5 -3t-13.5 -3t-8 -1.5l-54 88q24 21 44 39q17 16 34 31t24 23q17 17 37 41.5t35 47.5q11 15 18 39.5t5 42.5q0 6 -5.5 8t-12.5 2.5t-13 -0.5t-7 -1
q-10 0 -27.5 -10.5t-24.5 -20.5q1 1 -5.5 -6.5t-15.5 -18.5l-24 -28q-10 8 -23.5 23t-25.5 29l-30 34q4 13 15.5 27t26.5 27t31.5 24t31.5 19q23 12 49.5 14.5t63.5 1.5q29 -2 55.5 -14t46.5 -30t31.5 -40.5t10.5 -47.5q-1 -14 -6 -30.5t-13 -32.5t-17.5 -31t-18.5 -25
l-53 -65q6 0 12 2q20 4 35.5 7t31.5 5.5t35 4.5t45 4z" />
    <glyph glyph-name="threequarters" unicode="&#xbe;" horiz-adv-x="994" 
d="M767 614q-39 -52 -77 -100q-16 -21 -33.5 -43t-34.5 -44t-33 -42.5t-29 -36.5q-12 -15 -31 -41t-41.5 -59t-46.5 -69.5t-48 -72.5q-55 -84 -118 -181l-86 69q59 91 113 172q23 34 47 70t47 68.5t43 60.5t35 46q13 16 29.5 38t35 46.5t37.5 50t37 49.5q41 56 86 118
q35 -25 55 -39.5t33 -32.5zM968 41q-18 1 -34 1h-27t-21 -1l7 -119l-113 -4l-0.5 6t-1 15.5t-1.5 21t-1 22.5v15q0 6 -0.5 8t-1.5 4.5t-1.5 6.5t-0.5 15q-13 0 -28.5 -0.5t-30.5 -0.5h-28h-20q-13 0 -38.5 0.5t-58.5 0.5q-4 11 -7 15.5t-6 8t-7.5 8.5t-11.5 17l22 76
q1 1 4 14.5t6.5 30.5t6.5 32.5t5 21.5q5 29 9 52.5t6 49.5q1 0 10.5 1t25.5 1t36 -1.5t41 -7.5q-1 -8 -5.5 -37t-10 -63.5t-12 -67.5t-10.5 -49l1 1q-2 -5 -2.5 -13t-2.5 -10h25h40.5t41.5 1q0 8 -1.5 28t-3 45.5t-2.5 53t-1 51.5q0 16 1 34.5t4 41.5q18 0 32 -1t26.5 -2.5
t25 -3.5t27.5 -5q-1 -17 -2 -33q-1 -14 -1 -29v-26t0.5 -30.5t1 -41t1 -41t0.5 -30.5q7 1 20.5 1.5t27.5 1.5q16 1 34 1zM380 358q-11 -27 -30 -47t-44.5 -33.5t-55.5 -20.5t-61 -7q-38 0 -76.5 11.5t-64.5 32.5h2q-7 5 -7.5 5.5t-0.5 1t-2.5 3.5t-11.5 14l53 99l21 -18
q15 -15 37.5 -23.5t40.5 -8.5q22 0 45 8.5t30 28.5q2 8 4 15t2 14q0 12 -5 19t-12.5 10t-17.5 3.5t-19 0.5q-5 0 -20.5 -1t-32.5 -6l-35 66q18 14 35 26q14 11 28 22.5t22 21.5q-16 0 -38.5 -1t-45 -2.5t-42.5 -3t-31 -1.5v119h148q9 -1 31 -1.5t45 -2.5q26 -2 58 -4l37 -74
q-9 -8 -22.5 -16.5t-28 -16.5t-27 -16t-18.5 -15q10 0 22.5 -2.5t24.5 -6.5t21.5 -8.5t12.5 -7.5q8 -8 16 -17t14.5 -21t10.5 -27.5t4 -37.5q0 -28 -16 -73v-1z" />
    <glyph glyph-name="questiondown" unicode="&#xbf;" horiz-adv-x="459" 
d="M342 695q0 -15 -12.5 -32t-31 -31t-39 -23.5t-35.5 -9.5q-42 0 -69 21t-27 59q0 18 7 36.5t20.5 33.5t33.5 25t45 10q18 0 37 -7.5t34.5 -19.5t26 -28t10.5 -34zM419 12q-42 -27 -85 -43.5t-100 -16.5q-49 0 -89 17.5t-68.5 47.5t-44.5 69.5t-16 83.5q0 29 10 53t25.5 45
t35.5 40.5t41 38.5t40 39.5t27 46.5q3 9 3 26q0 13 -13 64l167 16q8 -31 12 -53t4 -35q0 -14 -2 -29.5t-7 -30.5q-7 -21 -19 -39.5t-27 -36t-32 -34t-33 -32.5q-22 -22 -38 -44t-16 -49q0 -28 10.5 -44.5t29.5 -16.5q14 0 34.5 4t37.5 16q3 2 12.5 10.5t20 18t20 18
t12.5 10.5l75 -135z" />
    <glyph glyph-name="Agrave" unicode="&#xc0;" horiz-adv-x="648" 
d="M127 943q25 17 47 32q19 13 38.5 24.5t30.5 14.5q14 -17 48 -48t70 -63q42 -37 91 -78l-60 -49q-63 38 -117 71q-23 14 -46 28.5t-43 27t-35.5 23.5t-23.5 17zM274 325h19.5t25 0.5t24.5 1t20 1.5q-4 12 -10.5 31t-13 39.5t-12.5 39.5t-9 30q-8 -35 -22 -69.5t-22 -73.5z
M629 -10q-7 -4 -17.5 -9t-23 -8.5t-25 -6t-22.5 -1.5q-17 0 -37 2.5t-38 4.5q-2 7 -6 21.5t-9 31.5t-9.5 34t-7.5 29q-8 29 -16.5 51t-14.5 39q-13 -1 -32 -1.5t-41 -1t-45 -0.5h-43q-4 -23 -9 -48.5t-10.5 -52t-10.5 -52.5t-8 -48q-51 -2 -88 3.5t-71 20.5q3 20 8 45.5
l10 51t10 48.5t7 39q-2 0 -4 0.5t-9.5 1t-22.5 0.5t-42 -1q0 12 -1 33t2 41q3 17 10.5 36t13.5 31h44h20.5h10h13.5q29 88 57 194.5t64 208.5l157 11q5 -19 21 -68.5t37 -116.5t46.5 -145.5t49.5 -155.5t45.5 -145.5t36.5 -116.5z" />
    <glyph glyph-name="Aacute" unicode="&#xc1;" horiz-adv-x="648" 
d="M511 936q-8 -6 -23.5 -16t-36 -23t-44 -27t-46.5 -28q-55 -33 -120 -70l-61 48q49 40 92 76q18 15 36.5 31t35 30.5t29.5 27t20 20.5q11 -3 31 -14t40 -23q23 -14 47 -32zM274 325h19.5t25 0.5t24.5 1t20 1.5q-4 12 -10.5 31t-13 39.5t-12.5 39.5t-9 30q-8 -35 -22 -69.5
t-22 -73.5zM629 -10q-7 -4 -17.5 -9t-23 -8.5t-25 -6t-22.5 -1.5q-17 0 -37 2.5t-38 4.5q-2 7 -6 21.5t-9 31.5t-9.5 34t-7.5 29q-8 29 -16.5 51t-14.5 39q-13 -1 -32 -1.5t-41 -1t-45 -0.5h-43q-4 -23 -9 -48.5t-10.5 -52t-10.5 -52.5t-8 -48q-51 -2 -88 3.5t-71 20.5
q3 20 8 45.5l10 51t10 48.5t7 39q-2 0 -4 0.5t-9.5 1t-22.5 0.5t-42 -1q0 12 -1 33t2 41q3 17 10.5 36t13.5 31h44h20.5h10h13.5q29 88 57 194.5t64 208.5l157 11q5 -19 21 -68.5t37 -116.5t46.5 -145.5t49.5 -155.5t45.5 -145.5t36.5 -116.5z" />
    <glyph glyph-name="Acircumflex" unicode="&#xc2;" horiz-adv-x="648" 
d="M419 771l-106 117q-21 -28 -45 -58t-42 -53l-96 64l143 163h72l149 -165zM274 325h19.5t25 0.5t24.5 1t20 1.5q-4 12 -10.5 31t-13 39.5t-12.5 39.5t-9 30q-8 -35 -22 -69.5t-22 -73.5zM629 -10q-7 -4 -17.5 -9t-23 -8.5t-25 -6t-22.5 -1.5q-17 0 -37 2.5t-38 4.5
q-2 7 -6 21.5t-9 31.5t-9.5 34t-7.5 29q-8 29 -16.5 51t-14.5 39q-13 -1 -32 -1.5t-41 -1t-45 -0.5h-43q-4 -23 -9 -48.5t-10.5 -52t-10.5 -52.5t-8 -48q-51 -2 -88 3.5t-71 20.5q3 20 8 45.5l10 51t10 48.5t7 39q-2 0 -4 0.5t-9.5 1t-22.5 0.5t-42 -1q0 12 -1 33t2 41
q3 17 10.5 36t13.5 31h44h20.5h10h13.5q29 88 57 194.5t64 208.5l157 11q5 -19 21 -68.5t37 -116.5t46.5 -145.5t49.5 -155.5t45.5 -145.5t36.5 -116.5z" />
    <glyph glyph-name="Atilde" unicode="&#xc3;" horiz-adv-x="648" 
d="M274 325h19.5t25 0.5t24.5 1t20 1.5q-4 12 -10.5 31t-13 39.5t-12.5 39.5t-9 30q-8 -35 -22 -69.5t-22 -73.5zM464 919q-3 -23 -17 -45t-35 -48q-15 -17 -35 -25t-41 -8q-26 0 -54 13q-12 8 -18 14.5t-13 14.5q-8 10 -14.5 17t-9.5 7q-18 -3 -27 -26t-17 -48l-63 21
q7 28 15.5 53t21.5 43.5t32.5 29.5t48.5 11q20 0 36 -11.5t29 -25.5q8 -9 16 -13.5t13 -5.5q6 -1 14.5 1.5t15.5 10.5q4 4 10 10.5t12 15.5t9.5 20t2.5 25l75 -16zM629 -10q-7 -4 -17.5 -9t-23 -8.5t-25 -6t-22.5 -1.5q-17 0 -37 2.5t-38 4.5q-2 7 -6 21.5t-9 31.5t-9.5 34
t-7.5 29q-8 29 -16.5 51t-14.5 39q-13 -1 -32 -1.5t-41 -1t-45 -0.5h-43q-4 -23 -9 -48.5t-10.5 -52t-10.5 -52.5t-8 -48q-51 -2 -88 3.5t-71 20.5q3 20 8 45.5l10 51t10 48.5t7 39q-2 0 -4 0.5t-9.5 1t-22.5 0.5t-42 -1q0 12 -1 33t2 41q3 17 10.5 36t13.5 31h44h20.5h10
h13.5q29 88 57 194.5t64 208.5l157 11q5 -19 21 -68.5t37 -116.5t46.5 -145.5t49.5 -155.5t45.5 -145.5t36.5 -116.5z" />
    <glyph glyph-name="Adieresis" unicode="&#xc4;" horiz-adv-x="648" 
d="M294 893q-1 -15 -5 -29.5t-12.5 -26t-22.5 -19t-35 -7.5q-17 0 -30.5 6.5t-22.5 17t-14 23t-5 24.5q0 30 21 52t57 22q32 0 50.5 -17.5t18.5 -45.5zM492 943q8 -11 10.5 -22t2.5 -22q0 -32 -14.5 -55t-53.5 -26q-21 0 -35 6.5t-23 17t-13 23.5t-4 25q0 35 17 55t55 23
q17 0 32 -4t26 -20v-1zM274 325h19.5t25 0.5t24.5 1t20 1.5q-4 12 -10.5 31t-13 39.5t-12.5 39.5t-9 30q-8 -35 -22 -69.5t-22 -73.5zM629 -10q-7 -4 -17.5 -9t-23 -8.5t-25 -6t-22.5 -1.5q-17 0 -37 2.5t-38 4.5q-2 7 -6 21.5t-9 31.5t-9.5 34t-7.5 29q-8 29 -16.5 51
t-14.5 39q-13 -1 -32 -1.5t-41 -1t-45 -0.5h-43q-4 -23 -9 -48.5t-10.5 -52t-10.5 -52.5t-8 -48q-51 -2 -88 3.5t-71 20.5q3 20 8 45.5l10 51t10 48.5t7 39q-2 0 -4 0.5t-9.5 1t-22.5 0.5t-42 -1q0 12 -1 33t2 41q3 17 10.5 36t13.5 31h44h20.5h10h13.5q29 88 57 194.5
t64 208.5l157 11q5 -19 21 -68.5t37 -116.5t46.5 -145.5t49.5 -155.5t45.5 -145.5t36.5 -116.5z" />
    <glyph glyph-name="Aring" unicode="&#xc5;" horiz-adv-x="652" 
d="M345 911q0 35 -10 54.5t-38 19.5q-19 0 -28 -21.5t-9 -59.5q0 -20 14 -26.5t40 -6.5q18 0 24.5 14.5t6.5 25.5zM442 911q0 -21 -8.5 -42.5t-25 -39t-40 -28.5t-54.5 -11q-21 0 -47 4t-49 16t-38.5 34.5t-15.5 59.5q0 24 4.5 52.5t19 53t40.5 40.5t69 16q38 0 65.5 -11.5
t45 -32t26 -49t8.5 -62.5zM274 325h19.5t25 0.5t24.5 1t20 1.5q-4 12 -10.5 31t-13 39.5t-12.5 39.5t-9 30q-8 -35 -22 -69.5t-22 -73.5zM629 -10q-7 -4 -17.5 -9t-23 -8.5t-25 -6t-22.5 -1.5q-17 0 -37 2.5t-38 4.5q-2 7 -6 21.5t-9 31.5t-9.5 34t-7.5 29q-8 29 -16.5 51
t-14.5 39q-13 -1 -32 -1.5t-41 -1t-45 -0.5h-43q-4 -23 -9 -48.5t-10.5 -52t-10.5 -52.5t-8 -48q-51 -2 -88 3.5t-71 20.5q3 20 8 45.5l10 51t10 48.5t7 39q-2 0 -4 0.5t-9.5 1t-22.5 0.5t-42 -1q0 12 -1 33t2 41q3 17 10.5 36t13.5 31h44h20.5h10h13.5q29 88 57 194.5
t64 208.5l157 11q5 -19 21 -68.5t37 -116.5t46.5 -145.5t49.5 -155.5t45.5 -145.5t36.5 -116.5z" />
    <glyph glyph-name="AE" unicode="&#xc6;" horiz-adv-x="818" 
d="M272 315q7 -1 20 -2t27.5 -1t28.5 1.5t22 4.5q-2 21 -2 39.5v39.5t-0.5 47.5t-3.5 63.5q-7 -15 -20 -41t-27 -54.5t-26.5 -55t-18.5 -42.5zM755 16q-64 -11 -125.5 -26.5t-117.5 -38.5q-8 -7 -23.5 -11.5t-32.5 -7t-34.5 -3t-30.5 -0.5q-1 6 -2 17.5t-2 25t-2 27.5t-1 25
q0 9 -0.5 24t-1.5 31t-1.5 31.5t-1.5 27.5q0 8 -0.5 11.5t-1 6t-1 6t-0.5 11.5q-28 -5 -66 -4.5t-80 8.5q-14 -37 -30.5 -85t-34.5 -110q-47 9 -83.5 21t-64.5 30l19 56q5 17 15 47t25 74q-17 3 -37 7t-28 6q2 38 9.5 71.5t29.5 65.5q12 -2 36 -8t41 -11q17 43 42 93t53 104
t56.5 110t54.5 110l160 22l7 -96q34 2 97.5 5t143.5 9q10 -29 13 -46t3 -31q0 -8 -1 -19.5t-6 -46.5l-72 -2q-17 -1 -32.5 -2t-34.5 -2.5t-42.5 -3t-55.5 -2.5l3 -48q1 -9 2 -25.5t2 -34t2 -34t2 -25.5q22 3 48 8t52.5 11.5t51 14t44.5 15.5q23 -31 30 -65.5t3 -74.5
q-19 -9 -46 -17t-57 -14.5t-59.5 -11.5t-54.5 -8q2 -21 3.5 -33.5t2.5 -24t2 -25t2 -36.5q47 13 102.5 24t118.5 22q7 -17 12.5 -35.5t9.5 -36.5t5.5 -33.5t1.5 -26.5z" />
    <glyph glyph-name="Ccedilla" unicode="&#xc7;" horiz-adv-x="576" 
d="M382 436q4 29 4 48v30q0 32 -21.5 50.5t-54.5 18.5q-35 0 -60 -20.5t-41.5 -50.5t-24.5 -65t-8 -63q0 -23 1 -53t5 -62t12.5 -63.5t24.5 -57.5q14 -23 36.5 -36.5t48.5 -13.5q23 0 41 4t28 15q12 14 16.5 47.5t5.5 71.5l150 -8q0 -5 -0.5 -17t-0.5 -17q0 -26 -1 -55
t-11 -57.5t-34 -53t-71 -40.5q10 -20 11 -38.5t1 -37.5q0 -15 -3 -30t-8 -32q-7 -23 -19 -44.5t-29.5 -38t-40.5 -26.5t-52 -10q-19 0 -42 5h1q-19 6 -35 15.5t-26 23t-13.5 30t2.5 36.5v-1q5 16 17 31.5t29.5 26.5t38 15.5t41.5 -1.5h2q14 16 15.5 33t-13.5 34
q-64 -5 -120 9t-94 52q-33 35 -49 78t-22 87t-5.5 87.5t0.5 79.5q0 54 16.5 114t52 110.5t91.5 84t135 33.5q54 0 98 -16t75 -44t48.5 -66t18.5 -83l5 -62z" />
    <glyph glyph-name="Egrave" unicode="&#xc8;" horiz-adv-x="502" 
d="M72 885q25 17 47 32q19 13 38.5 24.5t30.5 14.5q14 -17 48 -48t70 -63q42 -37 91 -78l-60 -49q-63 38 -117 71q-23 14 -46 28.5t-43 27t-35.5 23.5t-23.5 17zM474 74q-31 -6 -81 -17.5t-107 -27t-114 -34t-103 -38.5l-7 314q-8 -1 -18 -1.5t-20 -2.5q-11 -2 -23 -4
l-1 145q4 0 12.5 1t17.5 2t17.5 2.5t11.5 1.5q-1 67 -2.5 142.5t-2.5 136.5h23t33.5 0.5t33 1t23.5 0.5q6 0 31.5 1t64 3.5t87.5 5.5t103 6q11 -29 11.5 -47.5t0.5 -30.5q0 -9 -1 -20.5t-7 -43.5q-30 -3 -48.5 -4.5t-29.5 -2t-16 -1t-9 -0.5q-17 -1 -28.5 -2t-24 -2t-30 -2
t-44.5 -2v-60.5t1 -59.5q22 3 50 6.5t56.5 7.5t55.5 8.5t47 8.5q8 -26 11.5 -64.5t-1.5 -77.5q-50 -9 -80 -14.5t-51.5 -9.5t-40 -6.5t-44.5 -5.5l3 -112q47 13 107.5 26t123.5 23q5 -18 7.5 -39t3 -42t0 -39t-1.5 -30z" />
    <glyph glyph-name="Eacute" unicode="&#xc9;" horiz-adv-x="511" 
d="M438 882q-8 -6 -23.5 -16t-36 -23t-44 -27t-46.5 -28q-55 -33 -120 -70l-61 48q49 40 92 76q18 15 36.5 31t35 30.5t29.5 27t20 20.5q11 -3 31 -14t40 -23q23 -14 47 -32zM474 74q-31 -6 -81 -17.5t-107 -27t-114 -34t-103 -38.5l-7 314q-8 -1 -18 -1.5t-20 -2.5
q-11 -2 -23 -4l-1 145q4 0 12.5 1t17.5 2t17.5 2.5t11.5 1.5q-1 67 -2.5 142.5t-2.5 136.5h23t33.5 0.5t33 1t23.5 0.5q6 0 31.5 1t64 3.5t87.5 5.5t103 6q11 -29 11.5 -47.5t0.5 -30.5q0 -9 -1 -20.5t-7 -43.5q-30 -3 -48.5 -4.5t-29.5 -2t-16 -1t-9 -0.5q-17 -1 -28.5 -2
t-24 -2t-30 -2t-44.5 -2v-60.5t1 -59.5q22 3 50 6.5t56.5 7.5t55.5 8.5t47 8.5q8 -26 11.5 -64.5t-1.5 -77.5q-50 -9 -80 -14.5t-51.5 -9.5t-40 -6.5t-44.5 -5.5l3 -112q47 13 107.5 26t123.5 23q5 -18 7.5 -39t3 -42t0 -39t-1.5 -30z" />
    <glyph glyph-name="Ecircumflex" unicode="&#xca;" horiz-adv-x="498" 
d="M360 733l-106 117q-21 -28 -45 -58t-42 -53l-96 64l143 163h72l149 -165zM474 74q-31 -6 -81 -17.5t-107 -27t-114 -34t-103 -38.5l-7 314q-8 -1 -18 -1.5t-20 -2.5q-11 -2 -23 -4l-1 145q4 0 12.5 1t17.5 2t17.5 2.5t11.5 1.5q-1 67 -2.5 142.5t-2.5 136.5h23t33.5 0.5
t33 1t23.5 0.5q6 0 31.5 1t64 3.5t87.5 5.5t103 6q11 -29 11.5 -47.5t0.5 -30.5q0 -9 -1 -20.5t-7 -43.5q-30 -3 -48.5 -4.5t-29.5 -2t-16 -1t-9 -0.5q-17 -1 -28.5 -2t-24 -2t-30 -2t-44.5 -2v-60.5t1 -59.5q22 3 50 6.5t56.5 7.5t55.5 8.5t47 8.5q8 -26 11.5 -64.5
t-1.5 -77.5q-50 -9 -80 -14.5t-51.5 -9.5t-40 -6.5t-44.5 -5.5l3 -112q47 13 107.5 26t123.5 23q5 -18 7.5 -39t3 -42t0 -39t-1.5 -30z" />
    <glyph glyph-name="Edieresis" unicode="&#xcb;" horiz-adv-x="504" 
d="M218 813q-1 -15 -5 -29.5t-12.5 -26t-22.5 -19t-35 -7.5q-17 0 -30.5 6.5t-22.5 17t-14 23t-5 24.5q0 30 21 52t57 22q32 0 50.5 -17.5t18.5 -45.5zM416 863q8 -11 10.5 -22t2.5 -22q0 -32 -14.5 -55t-53.5 -26q-21 0 -35 6.5t-23 17t-13 23.5t-4 25q0 35 17 55t55 23
q17 0 32 -4t26 -20v-1zM474 74q-31 -6 -81 -17.5t-107 -27t-114 -34t-103 -38.5l-7 314q-8 -1 -18 -1.5t-20 -2.5q-11 -2 -23 -4l-1 145q4 0 12.5 1t17.5 2t17.5 2.5t11.5 1.5q-1 67 -2.5 142.5t-2.5 136.5h23t33.5 0.5t33 1t23.5 0.5q6 0 31.5 1t64 3.5t87.5 5.5t103 6
q11 -29 11.5 -47.5t0.5 -30.5q0 -9 -1 -20.5t-7 -43.5q-30 -3 -48.5 -4.5t-29.5 -2t-16 -1t-9 -0.5q-17 -1 -28.5 -2t-24 -2t-30 -2t-44.5 -2v-60.5t1 -59.5q22 3 50 6.5t56.5 7.5t55.5 8.5t47 8.5q8 -26 11.5 -64.5t-1.5 -77.5q-50 -9 -80 -14.5t-51.5 -9.5t-40 -6.5
t-44.5 -5.5l3 -112q47 13 107.5 26t123.5 23q5 -18 7.5 -39t3 -42t0 -39t-1.5 -30z" />
    <glyph glyph-name="Igrave" unicode="&#xcc;" horiz-adv-x="291" 
d="M-111 906q25 17 47 32q19 13 38.5 24.5t30.5 14.5q14 -17 48 -48t70 -63q42 -37 91 -78l-60 -49q-63 38 -117 71q-23 14 -46 28.5t-43 27t-35.5 23.5t-23.5 17zM78 134q-2 48 -3.5 87.5t-3.5 71.5q0 6 -0.5 13t-0.5 14q-1 13 -3 40.5t-4.5 61.5t-6 72t-6 73t-5.5 64
t-4 45q22 6 48.5 9t52 4t46.5 0t33 -3q5 -37 4 -74t3 -79q4 -45 5.5 -111.5t6.5 -135.5q1 -24 3 -63t4.5 -81.5t4.5 -82t4 -63.5l-174 -4z" />
    <glyph glyph-name="Iacute" unicode="&#xcd;" horiz-adv-x="278" 
d="M345 920q-8 -6 -23.5 -16t-36 -23t-44 -27t-46.5 -28q-55 -33 -120 -70l-61 48q49 40 92 76q18 15 36.5 31t35 30.5t29.5 27t20 20.5q11 -3 31 -14t40 -23q23 -14 47 -32zM61 134q-2 48 -3.5 87.5t-3.5 71.5q0 6 -0.5 13t-0.5 14q-1 13 -3 40.5t-4.5 61.5t-6 72t-6 73
t-5 64t-4.5 45q22 6 48.5 9t52 4t46.5 0t33 -3q5 -37 4 -74t3 -79q4 -45 5.5 -111.5t6.5 -135.5q1 -24 3 -63t4.5 -81.5t4.5 -82t4 -63.5l-174 -4z" />
    <glyph glyph-name="Icircumflex" unicode="&#xce;" horiz-adv-x="282" 
d="M231 730l-106 117q-21 -28 -45 -58t-42 -53l-96 64l143 163h72l149 -165zM78 134q-2 48 -3.5 87.5t-3.5 71.5q0 6 -0.5 13t-0.5 14q-1 13 -3 40.5t-4.5 61.5t-6 72t-6 73t-5.5 64t-4 45q22 6 48.5 9t52 4t46.5 0t33 -3q5 -37 4 -74t3 -79q4 -45 5.5 -111.5t6.5 -135.5
q1 -24 3 -63t4.5 -81.5t4.5 -82t4 -63.5l-174 -4z" />
    <glyph glyph-name="Idieresis" unicode="&#xcf;" horiz-adv-x="304" 
d="M86 825q-1 -15 -5 -29.5t-12.5 -26t-22.5 -19t-35 -7.5q-17 0 -30.5 6.5t-22.5 17t-14 23t-5 24.5q0 30 21 52t57 22q32 0 50.5 -17.5t18.5 -45.5zM284 875q8 -11 10.5 -22t2.5 -22q0 -32 -14.5 -55t-53.5 -26q-21 0 -35 6.5t-23 17t-13 23.5t-4 25q0 35 17 55t55 23
q17 0 32 -4t26 -20v-1zM82 134q-2 48 -3.5 87.5t-3.5 71.5q0 6 -0.5 13t-0.5 14q-1 13 -3 40.5t-4.5 61.5t-6 72t-6 73t-5.5 64t-4 45q22 6 48.5 9t52 4t46.5 0t33 -3q5 -37 4 -74t3 -79q4 -45 5.5 -111.5t6.5 -135.5q1 -24 3 -63t4.5 -81.5t4.5 -82t4 -63.5l-174 -4z" />
    <glyph glyph-name="Eth" unicode="&#xd0;" horiz-adv-x="600" 
d="M404 372q0 19 -4.5 35.5t-11 29.5t-13.5 22t-12 14q-8 6 -21.5 12t-29 11t-31.5 8.5t-28 6.5l3 -132q11 1 32.5 2t33.5 3l6 -109h-26q-2 0 -8 -0.5t-12.5 -1t-13.5 -0.5h-11q0 -28 0.5 -57t1.5 -61q9 3 25 4.5t33.5 5.5t32.5 12t22 22q14 26 23.5 67t8.5 106zM573 354
q-2 -78 -20.5 -145t-49.5 -107q-23 -30 -66 -52t-97.5 -37t-117.5 -24t-126 -13l-2 295q-32 -1 -67 -6l-7 106q18 2 36 3.5t38 1.5l-1 142l-53 -3q-8 29 -9 50.5t-1 33.5v23.5t5 43.5q17 0 38 0.5t41.5 1t36.5 0.5h22q44 0 88 -4.5t84 -14t74 -23.5t57 -33
q18 -16 35.5 -41.5t31.5 -57t22 -67.5t8 -73z" />
    <glyph glyph-name="Ntilde" unicode="&#xd1;" horiz-adv-x="542" 
d="M442 928q-3 -23 -17 -45t-35 -48q-15 -17 -35 -25t-41 -8q-26 0 -54 13q-12 8 -18 14.5t-13 14.5q-8 10 -14.5 17t-9.5 7q-18 -3 -27 -26t-17 -48l-63 21q7 28 15.5 53t21.5 43.5t32.5 29.5t48.5 11q20 0 36 -11.5t29 -25.5q8 -9 16 -13.5t13 -5.5q6 -1 14.5 1.5
t15.5 10.5q4 4 10 10.5t12 15.5t9.5 20t2.5 25l75 -16zM411 -120q-41 61 -89 134.5t-102 161.5q8 -81 16.5 -151t16.5 -125q-79 -27 -170 -20l-8 63l1 -1q-14 107 -33.5 288t-42.5 421l123 85q33 -72 64 -136.5t56.5 -117.5t44 -91t28.5 -56q-1 35 -1 70.5v70.5
q0 31 0.5 66.5t1 72t1.5 71.5t2 67q29 10 46.5 13.5t30.5 3.5q14 0 36.5 -5t56.5 -14q-1 -30 -1.5 -63.5t-1 -68t-1 -68t-0.5 -62.5q0 -150 5 -294.5t16 -290.5z" />
    <glyph glyph-name="Ograve" unicode="&#xd2;" horiz-adv-x="748" 
d="M202 919q25 17 47 32q19 13 38.5 24.5t30.5 14.5q14 -17 48 -48t70 -63q42 -37 91 -78l-60 -49q-63 38 -117 71q-23 14 -46 28.5t-43 27t-35.5 23.5t-23.5 17zM529 364q0 103 -42 162q-20 29 -41.5 43t-44.5 14q-8 0 -18.5 -2t-23.5 -7l1 1q-76 -29 -119 -92t-43 -156
q0 -37 3.5 -72.5t12.5 -67.5t25 -59t41 -47q19 -15 39 -21.5t40 -6.5q48 0 93 53q26 32 44 82t29 118v-1q2 17 3 32t1 27zM715 362q0 -14 -1.5 -31t-4.5 -35v1q-25 -188 -134 -297q-95 -96 -230 -96q-51 0 -97.5 15.5t-84.5 42.5q-41 31 -68.5 75.5t-44.5 94.5t-24.5 101
t-7.5 96q0 287 262 386h-1q25 10 51 14t52 4q69 0 128 -27t106 -78q46 -54 72.5 -122.5t26.5 -143.5z" />
    <glyph glyph-name="Oacute" unicode="&#xd3;" horiz-adv-x="748" 
d="M616 919q-8 -6 -23.5 -16t-36 -23t-44 -27t-46.5 -28q-55 -33 -120 -70l-61 48q49 40 92 76q18 15 36.5 31t35 30.5t29.5 27t20 20.5q11 -3 31 -14t40 -23q23 -14 47 -32zM529 361q0 103 -42 162q-20 29 -41.5 43t-44.5 14q-8 0 -18.5 -2t-23.5 -7l1 1q-76 -29 -119 -92
t-43 -156q0 -37 3.5 -72.5t12.5 -67.5t25 -59t41 -47q19 -15 39 -21.5t40 -6.5q48 0 93 53q26 32 44 82t29 118q2 16 3 31t1 27zM715 359q0 -14 -1.5 -31t-4.5 -35v1q-25 -188 -134 -297q-95 -96 -230 -96q-51 0 -97.5 15.5t-84.5 42.5q-41 31 -68.5 75.5t-44.5 94.5
t-24.5 101t-7.5 96q0 287 262 386h-1q25 10 51 14t52 4q69 0 128 -27t106 -78q46 -54 72.5 -122.5t26.5 -143.5z" />
    <glyph glyph-name="Ocircumflex" unicode="&#xd4;" horiz-adv-x="746" 
d="M478 751l-106 117q-21 -28 -45 -58t-42 -53l-96 64l143 163h72l149 -165zM527 361q0 103 -42 162q-20 29 -41.5 43t-44.5 14q-8 0 -18.5 -2t-23.5 -7l1 1q-76 -29 -119 -92t-43 -156q0 -37 3.5 -72.5t12.5 -67.5t25 -59t41 -47q19 -15 39 -21.5t40 -6.5q48 0 93 53
q26 32 44 82t29 118v-1q2 17 3 32t1 27zM713 359q0 -14 -1.5 -31t-4.5 -35v1q-25 -188 -134 -297q-95 -96 -230 -96q-51 0 -97.5 15.5t-84.5 42.5q-41 31 -68.5 75.5t-44.5 94.5t-24.5 101t-7.5 96q0 287 262 386h-1q25 10 51 14t52 4q69 0 128 -27t106 -78
q46 -54 72.5 -122.5t26.5 -143.5z" />
    <glyph glyph-name="Otilde" unicode="&#xd5;" horiz-adv-x="740" 
d="M528 908q-3 -23 -17 -45t-35 -48q-15 -17 -35 -25t-41 -8q-26 0 -54 13q-12 8 -18 14.5t-13 14.5q-8 10 -14.5 17t-9.5 7q-18 -3 -27 -26t-17 -48l-63 21q7 28 15.5 53t21.5 43.5t32.5 29.5t48.5 11q20 0 36 -11.5t29 -25.5q8 -9 16 -13.5t13 -5.5q6 -1 14.5 1.5
t15.5 10.5q4 4 10 10.5t12 15.5t9.5 20t2.5 25l75 -16zM527 361q0 103 -42 162q-20 29 -41.5 43t-44.5 14q-8 0 -18.5 -2t-23.5 -7l1 1q-76 -29 -119 -92t-43 -156q0 -37 3.5 -72.5t12.5 -67.5t25 -59t41 -47q19 -15 39 -21.5t40 -6.5q48 0 93 53q26 32 44 82t29 118v-1
q2 17 3 32t1 27zM713 359q0 -14 -1.5 -31t-4.5 -35v1q-25 -188 -134 -297q-95 -96 -230 -96q-51 0 -97.5 15.5t-84.5 42.5q-41 31 -68.5 75.5t-44.5 94.5t-24.5 101t-7.5 96q0 287 262 386h-1q25 10 51 14t52 4q69 0 128 -27t106 -78q46 -54 72.5 -122.5t26.5 -143.5z" />
    <glyph glyph-name="Odieresis" unicode="&#xd6;" horiz-adv-x="732" 
d="M338 869q-1 -15 -5 -29.5t-12.5 -26t-22.5 -19t-35 -7.5q-17 0 -30.5 6.5t-22.5 17t-14 23t-5 24.5q0 30 21 52t57 22q32 0 50.5 -17.5t18.5 -45.5zM536 919q8 -11 10.5 -22t2.5 -22q0 -32 -14.5 -55t-53.5 -26q-21 0 -35 6.5t-23 17t-13 23.5t-4 25q0 35 17 55t55 23
q17 0 32 -4t26 -20v-1zM513 361q0 103 -42 162q-20 29 -41.5 43t-44.5 14q-8 0 -18.5 -2t-23.5 -7l1 1q-76 -29 -119 -92t-43 -156q0 -37 3.5 -72.5t12.5 -67.5t25 -59t41 -47q19 -15 39 -21.5t40 -6.5q48 0 93 53q26 32 44 82t29 118v-1q2 17 3 32t1 27zM699 359
q0 -14 -1.5 -31t-4.5 -35v1q-25 -188 -134 -297q-95 -96 -230 -96q-51 0 -97.5 15.5t-84.5 42.5q-41 31 -68.5 75.5t-44.5 94.5t-24.5 101t-7.5 96q0 287 262 386h-1q25 10 51 14t52 4q69 0 128 -27t106 -78q46 -54 72.5 -122.5t26.5 -143.5z" />
    <glyph glyph-name="multiply" unicode="&#xd7;" horiz-adv-x="490" 
d="M380 117q-25 15 -49 31q-20 14 -42.5 30t-38.5 31q-19 -20 -39.5 -41.5t-37.5 -39.5q-20 -21 -39 -42l-105 105l114 118q-20 17 -42 37.5t-42 38.5q-23 21 -46 43l100 75q26 -16 50 -32q20 -14 42 -29t36 -26q19 20 40 41.5t39 40.5q21 22 41 44l83 -101q-15 -23 -31 -46
q-14 -20 -30.5 -41t-31.5 -38q19 -19 42.5 -41t43.5 -42l48 -46z" />
    <glyph glyph-name="Oslash" unicode="&#xd8;" horiz-adv-x="693" 
d="M274 383q6 15 15 36t20.5 46.5t24 54t25.5 57.5l1 2q-10 -1 -18 -3t-19 -6h1q-76 -26 -118.5 -82.5t-42.5 -139.5q0 -41 5.5 -79t19.5 -71q27 57 51 106.5t35 78.5zM500 380q0 65 -22 112q-23 -48 -41.5 -89.5t-27.5 -67.5q-17 -38 -45.5 -98.5t-64.5 -133.5q8 -2 15 -2
h14q53 0 95 49q54 55 72 179q2 14 3.5 26t1.5 25zM657 378q0 -11 -1 -26t-3 -32q-25 -167 -127 -264q-89 -83 -213 -83q-19 0 -38 1.5t-36 6.5q-11 -20 -20 -39.5t-17 -35.5q-9 -18 -17 -35l-115 63q8 18 16 37q7 17 14.5 37t13.5 40q-30 29 -50 66t-31.5 77t-16.5 81t-5 77
q0 257 246 344q42 15 91 15q34 0 66 -6q11 26 22.5 51.5t20.5 45.5l20 45q48 -14 76 -29t51 -33q-7 -22 -16 -46q-8 -21 -19 -47t-24 -54l10 -10t10 -9q45 -49 68.5 -108t23.5 -130z" />
    <glyph glyph-name="Ugrave" unicode="&#xd9;" horiz-adv-x="516" 
d="M80 867q25 17 47 32q19 13 38.5 24.5t30.5 14.5q14 -17 48 -48t70 -63q42 -37 91 -78l-60 -49q-63 38 -117 71q-23 14 -46 28.5t-43 27t-35.5 23.5t-23.5 17zM481 260q0 -83 -43 -158q-8 -14 -26 -30.5t-47 -34.5l1 1q-25 -17 -47.5 -27t-45.5 -13l2 1q-29 -6 -58.5 1
t-59.5 21q-69 35 -92 84v-1q-6 13 -11 52t-9 93t-7.5 117.5t-7.5 124.5l-7 122q42 10 86 13t93 -2l6 -63q1 -6 2 -21.5t1 -35v-41.5v-42t0.5 -41.5t1 -40.5t1 -33.5t0.5 -21.5q3 -54 5.5 -86t4.5 -38q2 -3 5.5 -6.5l5.5 -5.5q17 -7 18 -7q2 0 9.5 3.5t18.5 8.5q4 2 7 4t5 5
v-1q13 20 18.5 41t5.5 43q0 7 -0.5 27.5t-1.5 49t-2 63t-2 69.5q-2 35 -2.5 72t-1.5 60l-1 61q35 8 56.5 11.5t33.5 3.5h9.5t14 -1.5t22 -4t34.5 -6.5l1 -60q1 -23 1.5 -54.5t1 -66t0.5 -69t0.5 -63.5t0.5 -49.5v-27.5z" />
    <glyph glyph-name="Uacute" unicode="&#xda;" horiz-adv-x="512" 
d="M429 845q-8 -6 -23.5 -16t-36 -23t-44 -27t-46.5 -28q-55 -33 -120 -70l-61 48q49 40 92 76q18 15 36.5 31t35 30.5t29.5 27t20 20.5q11 -3 31 -14t40 -23q23 -14 47 -32zM477 260q0 -83 -43 -158q-8 -14 -26 -30.5t-47 -34.5l1 1q-25 -17 -47.5 -27t-45.5 -13l2 1
q-29 -6 -58.5 1t-59.5 21q-69 35 -92 84v-1q-6 13 -11 52t-9 93t-7.5 117.5t-7.5 124.5l-7 122q42 10 86 13t93 -2l6 -63q1 -6 2 -21.5t1 -35v-41.5v-42t0.5 -41.5t1 -40.5t1 -33.5t0.5 -21.5q3 -54 5.5 -86t4.5 -38q2 -3 5.5 -6.5l5.5 -5.5q17 -7 18 -7q2 0 9.5 3.5
t18.5 8.5q4 2 7 4t5 5v-1q13 20 18.5 41t5.5 43q0 7 -0.5 27.5t-1.5 49t-2 63t-2 69.5q-2 35 -2.5 72t-1.5 60l-1 61q35 8 56.5 11.5t33.5 3.5h9.5t14 -1.5t22 -4t34.5 -6.5l1 -60q1 -23 1.5 -54.5t1 -66t0.5 -69t0.5 -63.5t0.5 -49.5v-27.5z" />
    <glyph glyph-name="Ucircumflex" unicode="&#xdb;" horiz-adv-x="512" 
d="M354 689l-106 117q-21 -28 -45 -58t-42 -53l-96 64l143 163h72l149 -165zM477 256q0 -83 -43 -158q-8 -14 -26 -30.5t-47 -34.5l1 1q-25 -17 -47.5 -27t-45.5 -13l2 1q-29 -6 -58.5 1t-59.5 21q-69 35 -92 84v-1q-6 13 -11 52t-9 93t-7.5 117.5t-7.5 124.5l-7 122
q42 10 86 13t93 -2l6 -63q1 -6 2 -21.5t1 -35v-41.5v-42t0.5 -41.5t1 -40.5t1 -33.5t0.5 -21.5q3 -54 5.5 -86t4.5 -38q2 -3 5.5 -6.5l5.5 -5.5q17 -7 18 -7q2 0 9.5 3.5t18.5 8.5q4 2 7 4t5 5v-1q13 20 18.5 41t5.5 43q0 7 -0.5 27.5t-1.5 49t-2 63t-2 69.5q-2 35 -2.5 72
t-1.5 60l-1 61q35 8 56.5 11.5t33.5 3.5h9.5t14 -1.5t22 -4t34.5 -6.5l1 -60q1 -23 1.5 -54.5t1 -66t0.5 -69t0.5 -63.5t0.5 -49.5v-27.5z" />
    <glyph glyph-name="Udieresis" unicode="&#xdc;" horiz-adv-x="493" 
d="M228 768q-1 -15 -5 -29.5t-12.5 -26t-22.5 -19t-35 -7.5q-17 0 -30.5 6.5t-22.5 17t-14 23t-5 24.5q0 30 21 52t57 22q32 0 50.5 -17.5t18.5 -45.5zM426 818q8 -11 10.5 -22t2.5 -22q0 -32 -14.5 -55t-53.5 -26q-21 0 -35 6.5t-23 17t-13 23.5t-4 25q0 35 17 55t55 23
q17 0 32 -4t26 -20v-1zM471 240q0 -83 -43 -158q-8 -14 -26 -30.5t-47 -34.5l1 1q-25 -17 -47.5 -27t-45.5 -13l2 1q-29 -6 -58.5 1t-59.5 21q-69 35 -92 84v-1q-6 13 -11 52t-9 93t-7.5 117.5t-7.5 124.5l-7 122q42 10 86 13t93 -2l6 -63q1 -6 2 -21.5t1 -35v-41.5v-42
t0.5 -41.5t1 -40.5t1 -33.5t0.5 -21.5q3 -54 5.5 -86t4.5 -38q2 -3 5.5 -6.5l5.5 -5.5q17 -7 18 -7q2 0 9.5 3.5t18.5 8.5q4 2 7 4t5 5v-1q13 20 18.5 41t5.5 43q0 7 -0.5 27.5t-1.5 49t-2 63t-2 69.5q-2 35 -2.5 72t-1.5 60l-1 61q35 8 56.5 11.5t33.5 3.5h9.5t14 -1.5
t22 -4t34.5 -6.5l1 -60q1 -23 1.5 -54.5t1 -66t0.5 -69t0.5 -63.5t0.5 -49.5v-27.5z" />
    <glyph glyph-name="Yacute" unicode="&#xdd;" 
d="M469 878q-8 -6 -23.5 -16t-36 -23t-44 -27t-46.5 -28q-55 -33 -120 -70l-61 48q49 40 92 76q18 15 36.5 31t35 30.5t29.5 27t20 20.5q11 -3 31 -14t40 -23q23 -14 47 -32zM475 591q2 -24 4 -55t3 -65.5t1.5 -70.5t0.5 -69v-43.5t-1 -37.5q-2 -47 -6.5 -90.5t-14.5 -82
t-26.5 -71.5t-43.5 -59q-34 -32 -83 -51.5t-100 -19.5q-43 0 -82 13.5t-67 30.5l-35 27l82 128l44 -34q11 -7 27.5 -11t34.5 -4q15 0 30.5 5t28.5 18q16 16 24 52t13 81q-6 -1 -8.5 -2t-4.5 -1.5t-5.5 -1t-11.5 -0.5q-24 0 -47.5 -0.5t-47 3.5t-46 14t-44.5 30
q-24 23 -39.5 63.5t-23.5 87.5t-11 95t-3 87q0 18 1.5 43t5.5 59q17 2 41 1.5t48.5 -2.5t46.5 -6.5t36 -11.5l-7 -56q-2 -8 -3 -20t-1 -26q0 -20 2.5 -50.5t7 -60.5t12 -54.5t17.5 -33.5q9 -9 17 -14t16.5 -7t18 -2h22.5h5.5h0.5l0.5 0.5t5.5 1.5v28q0 27 -1 67.5t-3.5 86
t-5 92t-5.5 84.5q48 15 91.5 18t81.5 -9z" />
    <glyph glyph-name="Thorn" unicode="&#xde;" horiz-adv-x="609" 
d="M402 451q0 44 -33 60q-39 19 -109 19q-8 1 -22 0t-34 -5q2 -63 5 -122.5t6 -122.5q69 0 116 33q20 14 37 39.5t29 60.5q3 9 4 18.5t1 19.5zM581 464q0 -82 -68 -168q-64 -81 -160 -118l1 1q-28 -11 -61 -16.5t-72 -6.5q5 -45 10 -93.5t9 -88.5q-121 -24 -190 -9l-2 57
q2 8 3 25t1 43q0 9 -1.5 57t-4.5 131t-7 197.5t-9 257.5q16 5 44 9t55 7q32 3 66 5v-36v-34t1 -35q7 0 10 1q22 3 41 3.5t36 0.5q211 0 272 -104q26 -40 26 -86z" />
    <glyph glyph-name="germandbls" unicode="&#xdf;" horiz-adv-x="572" 
d="M221 529q2 -12 1.5 -32t0.5 -43q9 4 22.5 3.5t27.5 5.5q12 5 21.5 17.5t16 28t9.5 30.5t2 26q-5 26 -25.5 40.5t-42.5 10.5q-17 -5 -24 -31t-9 -56zM239 191q0 -4 0.5 -13.5t2 -20t3 -19.5t2.5 -12q12 -11 23.5 -15t21.5 -4.5t17.5 1t10.5 1.5q13 3 25 13.5t21 25.5
t13.5 32.5t2.5 33.5q-3 35 -18.5 55t-38 29.5t-48 11t-49.5 -1.5l4 -48q1 -15 3 -32.5t4 -36.5zM541 222q-2 -48 -18.5 -90.5t-44 -75.5t-64.5 -55t-79 -31q-26 -5 -47 -3.5t-39 8.5l-9 -65q-8 -35 -24 -62t-40 -53q-22 -23 -48.5 -37t-57.5 -22q-42 -7 -81 5.5t-77 47.5
l77 121q28 -26 51 -30.5t27 -3.5q7 1 11 9.5t6.5 20t4 25t1.5 24.5q4 81 0 142q-5 51 -10.5 97.5t-10.5 98.5q-5 57 -6 112.5t1 111.5q3 56 20.5 95.5t43.5 65.5t57.5 40t63.5 20q34 7 71 0.5t69.5 -23.5t56.5 -43t32 -59q4 -20 0.5 -44.5t-12.5 -50t-22.5 -48.5t-29.5 -38
q22 -12 45 -29.5t41.5 -43t29.5 -59.5t11 -78z" />
    <glyph glyph-name="agrave" unicode="&#xe0;" horiz-adv-x="493" 
d="M49 802q25 17 47 32q19 13 38.5 24.5t30.5 14.5q14 -17 48 -48t70 -63q42 -37 91 -78l-60 -49q-63 38 -117 71q-23 14 -46 28.5t-43 27t-35.5 23.5t-23.5 17zM278 224q-12 12 -26.5 17t-25.5 5q-8 0 -14.5 -9.5t-11.5 -23.5t-8 -29t-3 -25q0 -32 8 -47t22 -15
q18 0 39.5 9.5t28.5 32.5l-1 77zM491 5q-6 -9 -13 -18q-6 -8 -13 -15t-15 -12q-36 -23 -67 -30.5t-58 -5.5q-7 8 -12 22.5t-8 28.5q-4 17 -7 36q-8 -3 -20 -8t-25 -10.5t-26 -9t-22 -3.5q-39 0 -73.5 9.5t-60.5 29t-41.5 50t-15.5 71.5q0 30 7 55q9 33 28 64.5t47 54.5
q50 41 127 41q14 0 31 -2.5t30 -5.5v26q-1 20 -1.5 30.5t-0.5 12.5q-5 32 -12.5 35.5t-22.5 -0.5q-3 -1 -14 -4t-23 -6.5t-22.5 -7t-14.5 -5.5q-15 -9 -33.5 -19.5t-37.5 -28.5q-14 10 -22 31t-15 46q-2 8 -3.5 19t-1.5 22t1 20.5t3 15.5q85 60 185 60q47 0 83 -14
q42 -13 71 -39.5t40 -64.5q8 -23 11 -53t3 -68q0 -18 -1 -40t-1 -43q-1 -33 -1 -51.5v-35.5q0 -76 8.5 -120t28.5 -60z" />
    <glyph glyph-name="aacute" unicode="&#xe1;" horiz-adv-x="491" 
d="M413 802q-8 -6 -23.5 -16t-36 -23t-44 -27t-46.5 -28q-55 -33 -120 -70l-61 48q49 40 92 76q18 15 36.5 31t35 30.5t29.5 27t20 20.5q11 -3 31 -14t40 -23q23 -14 47 -32zM264 222q-12 12 -26.5 17t-25.5 5q-8 0 -14.5 -9.5t-11.5 -23.5t-8 -29t-3 -25q0 -32 8 -47
t22 -15q18 0 39.5 9.5t28.5 32.5l-1 77zM477 3q-6 -9 -13 -18q-6 -8 -13 -15t-15 -12q-36 -23 -67 -30.5t-58 -5.5q-7 8 -12 22.5t-8 28.5q-4 17 -7 36q-8 -3 -20 -8t-25 -10.5t-26 -9t-22 -3.5q-39 0 -73.5 9.5t-60.5 29t-41.5 50t-15.5 71.5q0 30 7 55q9 33 28 64.5
t47 54.5q50 41 127 41q14 0 31 -2.5t30 -5.5v26q-1 20 -1.5 30.5t-0.5 12.5q-5 32 -12.5 35.5t-22.5 -0.5q-3 -1 -14 -4t-23 -6.5t-22.5 -7t-14.5 -5.5q-15 -9 -33.5 -19.5t-37.5 -28.5q-14 10 -22 31t-15 46q-2 8 -3.5 19t-1.5 22t1 20.5t3 15.5q85 60 185 60q47 0 83 -14
q42 -13 71 -39.5t40 -64.5q8 -23 11 -53t3 -68q0 -18 -1 -40t-1 -43q-1 -33 -1 -51.5v-35.5q0 -76 8.5 -120t28.5 -60z" />
    <glyph glyph-name="acircumflex" unicode="&#xe2;" horiz-adv-x="520" 
d="M364 630l-106 117q-21 -28 -45 -58t-42 -53l-96 64l143 163h72l149 -165zM287 222q-12 12 -26.5 17t-25.5 5q-8 0 -14.5 -9.5t-11.5 -23.5t-8 -29t-3 -25q0 -32 8 -47t22 -15q18 0 39.5 9.5t28.5 32.5l-1 77zM500 3q-6 -9 -13 -18q-6 -8 -13 -15t-15 -12
q-36 -23 -67 -30.5t-58 -5.5q-7 8 -12 22.5t-8 28.5q-4 17 -7 36q-8 -3 -20 -8t-25 -10.5t-26 -9t-22 -3.5q-39 0 -73.5 9.5t-60.5 29t-41.5 50t-15.5 71.5q0 30 7 55q9 33 28 64.5t47 54.5q50 41 127 41q14 0 31 -2.5t30 -5.5v26q-1 20 -1.5 30.5t-0.5 12.5
q-5 32 -12.5 35.5t-22.5 -0.5q-3 -1 -14 -4t-23 -6.5t-22.5 -7t-14.5 -5.5q-15 -9 -33.5 -19.5t-37.5 -28.5q-14 10 -22 31t-15 46q-2 8 -3.5 19t-1.5 22t1 20.5t3 15.5q85 60 185 60q47 0 83 -14q42 -13 71 -39.5t40 -64.5q8 -23 11 -53t3 -68q0 -18 -1 -40t-1 -43
q-1 -33 -1 -51.5v-35.5q0 -76 8.5 -120t28.5 -60z" />
    <glyph glyph-name="atilde" unicode="&#xe3;" horiz-adv-x="500" 
d="M274 220q-12 12 -26.5 17t-25.5 5q-8 0 -14.5 -9.5t-11.5 -23.5t-8 -29t-3 -25q0 -32 8 -47t22 -15q18 0 39.5 9.5t28.5 32.5l-1 77zM393 794q-3 -23 -17 -45t-35 -48q-15 -17 -35 -25t-41 -8q-26 0 -54 13q-12 8 -18 14.5t-13 14.5q-8 10 -14.5 17t-9.5 7
q-18 -3 -27 -26t-17 -48l-63 21q7 28 15.5 53t21.5 43.5t32.5 29.5t48.5 11q20 0 36 -11.5t29 -25.5q8 -9 16 -13.5t13 -5.5q6 -1 14.5 1.5t15.5 10.5q4 4 10 10.5t12 15.5t9.5 20t2.5 25l75 -16zM487 1q-6 -9 -13 -18q-6 -8 -13 -15t-15 -12q-36 -23 -67 -30.5t-58 -5.5
q-7 8 -12 22.5t-8 28.5q-4 17 -7 36q-8 -3 -20 -8t-25 -10.5t-26 -9t-22 -3.5q-39 0 -73.5 9.5t-60.5 29t-41.5 50t-15.5 71.5q0 30 7 55q9 33 28 64.5t47 54.5q50 41 127 41q14 0 31 -2.5t30 -5.5v26q-1 20 -1.5 30.5t-0.5 12.5q-5 32 -12.5 35.5t-22.5 -0.5q-3 -1 -14 -4
t-23 -6.5t-22.5 -7t-14.5 -5.5q-15 -9 -33.5 -19.5t-37.5 -28.5q-14 10 -22 31t-15 46q-2 8 -3.5 19t-1.5 22t1 20.5t3 15.5q85 60 185 60q47 0 83 -14q42 -13 71 -39.5t40 -64.5q8 -23 11 -53t3 -68q0 -18 -1 -40t-1 -43q-1 -33 -1 -51.5v-35.5q0 -76 8.5 -120t28.5 -60z
" />
    <glyph glyph-name="adieresis" unicode="&#xe4;" horiz-adv-x="487" 
d="M204 743q-1 -15 -5 -29.5t-12.5 -26t-22.5 -19t-35 -7.5q-17 0 -30.5 6.5t-22.5 17t-14 23t-5 24.5q0 30 21 52t57 22q32 0 50.5 -17.5t18.5 -45.5zM402 793q8 -11 10.5 -22t2.5 -22q0 -32 -14.5 -55t-53.5 -26q-21 0 -35 6.5t-23 17t-13 23.5t-4 25q0 35 17 55t55 23
q17 0 32 -4t26 -20v-1zM274 222q-12 12 -26.5 17t-25.5 5q-8 0 -14.5 -9.5t-11.5 -23.5t-8 -29t-3 -25q0 -32 8 -47t22 -15q18 0 39.5 9.5t28.5 32.5l-1 77zM487 3q-6 -9 -13 -18q-6 -8 -13 -15t-15 -12q-36 -23 -67 -30.5t-58 -5.5q-7 8 -12 22.5t-8 28.5q-4 17 -7 36
q-8 -3 -20 -8t-25 -10.5t-26 -9t-22 -3.5q-39 0 -73.5 9.5t-60.5 29t-41.5 50t-15.5 71.5q0 30 7 55q9 33 28 64.5t47 54.5q50 41 127 41q14 0 31 -2.5t30 -5.5v26q-1 20 -1.5 30.5t-0.5 12.5q-5 32 -12.5 35.5t-22.5 -0.5q-3 -1 -14 -4t-23 -6.5t-22.5 -7t-14.5 -5.5
q-15 -9 -33.5 -19.5t-37.5 -28.5q-14 10 -22 31t-15 46q-2 8 -3.5 19t-1.5 22t1 20.5t3 15.5q85 60 185 60q47 0 83 -14q42 -13 71 -39.5t40 -64.5q8 -23 11 -53t3 -68q0 -18 -1 -40t-1 -43q-1 -33 -1 -51.5v-35.5q0 -76 8.5 -120t28.5 -60z" />
    <glyph glyph-name="aring" unicode="&#xe5;" horiz-adv-x="498" 
d="M294 752q0 35 -10 54.5t-38 19.5q-19 0 -28 -21.5t-9 -59.5q0 -20 14 -26.5t40 -6.5q18 0 24.5 14.5t6.5 25.5zM391 752q0 -21 -8.5 -42.5t-25 -39t-40 -28.5t-54.5 -11q-21 0 -47 4t-49 16t-38.5 34.5t-15.5 59.5q0 24 4.5 52.5t19 53t40.5 40.5t69 16q38 0 65.5 -11.5
t45 -32t26 -49t8.5 -62.5zM276 224q-12 12 -26.5 17t-25.5 5q-8 0 -14.5 -9.5t-11.5 -23.5t-8 -29t-3 -25q0 -32 8 -47t22 -15q18 0 39.5 9.5t28.5 32.5l-1 77zM489 5q-6 -9 -13 -18q-6 -8 -13 -15t-15 -12q-36 -23 -67 -30.5t-58 -5.5q-7 8 -12 22.5t-8 28.5q-4 17 -7 36
q-8 -3 -20 -8t-25 -10.5t-26 -9t-22 -3.5q-39 0 -73.5 9.5t-60.5 29t-41.5 50t-15.5 71.5q0 30 7 55q9 33 28 64.5t47 54.5q50 41 127 41q14 0 31 -2.5t30 -5.5v26q-1 20 -1.5 30.5t-0.5 12.5q-5 32 -12.5 35.5t-22.5 -0.5q-3 -1 -14 -4t-23 -6.5t-22.5 -7t-14.5 -5.5
q-15 -9 -33.5 -19.5t-37.5 -28.5q-14 10 -22 31t-15 46q-2 8 -3.5 19t-1.5 22t1 20.5t3 15.5q85 60 185 60q47 0 83 -14q42 -13 71 -39.5t40 -64.5q8 -23 11 -53t3 -68q0 -18 -1 -40t-1 -43q-1 -33 -1 -51.5v-35.5q0 -76 8.5 -120t28.5 -60z" />
    <glyph glyph-name="ae" unicode="&#xe6;" horiz-adv-x="791" 
d="M291 192q1 4 2.5 8.5t3.5 8.5q-4 2 -6.5 4.5t-5.5 4.5q0 2 -5 5l3 -1q-42 31 -60 31q-10 0 -18.5 -7.5t-14.5 -19t-9.5 -25t-3.5 -25.5q0 -38 11 -55t28 -17q11 0 23 9t22.5 22.5t18.5 29t12 28.5zM575 352q-5 54 -12 73q-16 34 -50 36q-26 2 -56 -58q-11 -20 -17 -38.5
t-11 -35.5zM473 192q22 -45 65 -68.5t103 -23.5q9 0 39.5 4t75.5 10q-7 -54 -24.5 -103.5t-44.5 -96.5l-70 13q-38 8 -72 18t-64 25q-31 17 -58 38t-47 44q-15 -15 -33 -29t-39 -25t-43.5 -17.5t-44.5 -6.5q-85 0 -139 48q-31 29 -47.5 62.5t-16.5 72.5q0 30 7 57
q9 35 28 68t47 57q25 22 57 32t68 10q33 0 63 -9v11v35t-1 26q0 7 -0.5 12t-0.5 9q0 23 -4 27q-2 1 -8 1q-21 0 -63 -21l1 1q-9 -5 -27 -21t-38 -37q-35 29 -50 50t-20 39q-4 17 -6 32t-2 34q85 64 183 64q24 0 44.5 -4t38.5 -10q51 -17 79 -51q51 28 115 24h-1
q116 -7 174.5 -94.5t55.5 -252.5z" />
    <glyph glyph-name="ccedilla" unicode="&#xe7;" horiz-adv-x="457" 
d="M418 64q-6 -5 -11 -8t-12 -7t-17.5 -9t-26.5 -12q7 -9 15.5 -20.5t16 -23t12 -22.5t4.5 -20q0 -14 -1 -39t-6 -43q-14 -43 -46.5 -71.5t-83.5 -28.5q-20 0 -36 6q-35 11 -56 38t-10 70q4 16 15 31t26 26t33 15.5t37 -0.5q-1 5 -3.5 13t-7.5 16t-12.5 15t-18.5 10
q-33 1 -67 7.5t-51 18.5l1 -1q-97 62 -97 217q0 12 0.5 26.5t1.5 29.5q11 98 81 167q68 65 163 65q44 0 84 -14t74 -43q5 -4 8 -10t7 -9l-79 -145q-15 27 -28.5 41.5t-23.5 21.5t-16 8l-6 1q-38 -8 -59 -38t-25 -75q-2 -10 -1.5 -27t3 -34t6 -30t6.5 -15q1 0 5.5 -4t11 -8
t14.5 -7t16 -3q28 2 66.5 15t69.5 44l43 -127z" />
    <glyph glyph-name="egrave" unicode="&#xe8;" horiz-adv-x="504" 
d="M48 786q25 17 47 32q19 13 38.5 24.5t30.5 14.5q14 -17 48 -48t70 -63q42 -37 91 -78l-60 -49q-63 38 -117 71q-23 14 -46 28.5t-43 27t-35.5 23.5t-23.5 17zM189 325q27 5 54.5 9.5t56.5 9.5q-2 22 -2.5 37t-6.5 32q-7 17 -16 23t-22 6q-11 1 -27 -12.5t-25 -38.5
q-12 -36 -12 -66zM204 199q19 -48 57.5 -69t98.5 -21q8 0 38 4l75 10q-12 -102 -66 -191l-71 13q-36 6 -71 16t-64 25h1q-98 47 -135 116q-26 47 -37 95t-11 98q0 29 5.5 61t16.5 59q35 84 91.5 126.5t131.5 37.5h-1q230 -14 224 -329z" />
    <glyph glyph-name="eacute" unicode="&#xe9;" horiz-adv-x="504" 
d="M466 789q-8 -6 -23.5 -16t-36 -23t-44 -27t-46.5 -28q-55 -33 -120 -70l-61 48q49 40 92 76q18 15 36.5 31t35 30.5t29.5 27t20 20.5q11 -3 31 -14t40 -23q23 -14 47 -32zM191 327q27 5 54.5 9.5t56.5 9.5q-2 22 -2.5 37t-6.5 32q-7 17 -16 23t-22 6q-11 1 -27 -12.5
t-25 -38.5q-12 -36 -12 -66zM206 201q19 -48 57.5 -69t98.5 -21q8 0 38 4l75 10q-12 -102 -66 -191l-71 13q-36 6 -71 16t-64 25h1q-98 47 -135 116q-26 47 -37 95t-11 98q0 29 5.5 61t16.5 59q35 84 91.5 126.5t131.5 37.5h-1q230 -14 224 -329z" />
    <glyph glyph-name="ecircumflex" unicode="&#xea;" horiz-adv-x="511" 
d="M336 598l-106 117q-21 -28 -45 -58t-42 -53l-96 64l143 163h72l149 -165zM186 318q27 5 54.5 9.5t56.5 9.5q-2 22 -2.5 37t-6.5 32q-7 17 -16 23t-22 6q-11 1 -27 -12.5t-25 -38.5q-12 -36 -12 -66zM201 192q19 -48 57.5 -69t98.5 -21q8 0 38 4l75 10q-12 -102 -66 -191
l-71 13q-36 6 -71 16t-64 25h1q-98 47 -135 116q-26 47 -37 95t-11 98q0 29 5.5 61t16.5 59q35 84 91.5 126.5t131.5 37.5h-1q230 -14 224 -329z" />
    <glyph glyph-name="edieresis" unicode="&#xeb;" horiz-adv-x="504" 
d="M202 699q-1 -15 -5 -29.5t-12.5 -26t-22.5 -19t-35 -7.5q-17 0 -30.5 6.5t-22.5 17t-14 23t-5 24.5q0 30 21 52t57 22q32 0 50.5 -17.5t18.5 -45.5zM400 749q8 -11 10.5 -22t2.5 -22q0 -32 -14.5 -55t-53.5 -26q-21 0 -35 6.5t-23 17t-13 23.5t-4 25q0 35 17 55t55 23
q17 0 32 -4t26 -20v-1zM188 331q27 5 54.5 9.5t56.5 9.5q-2 22 -2.5 37t-6.5 32q-7 17 -16 23t-22 6q-11 1 -27 -12.5t-25 -38.5q-12 -36 -12 -66zM203 205q19 -48 57.5 -69t98.5 -21q8 0 38 4l75 10q-12 -102 -66 -191l-71 13q-36 6 -71 16t-64 25h1q-98 47 -135 116
q-26 47 -37 95t-11 98q0 29 5.5 61t16.5 59q35 84 91.5 126.5t131.5 37.5h-1q230 -14 224 -329z" />
    <glyph glyph-name="igrave" unicode="&#xec;" horiz-adv-x="291" 
d="M-78 752q25 17 47 32q19 13 38.5 24.5t30.5 14.5q14 -17 48 -48t70 -63q42 -37 91 -78l-60 -49q-63 38 -117 71q-23 14 -46 28.5t-43 27t-35.5 23.5t-23.5 17zM247 -18q-16 -3 -32 -5q-14 -2 -29 -3.5t-26 -1.5q-4 0 -9.5 0.5t-14.5 2t-23 4t-35 7.5q0 39 -1 94
t-3.5 119.5t-6 135t-8.5 139.5q42 11 84 13.5t86 -5.5q4 -60 6 -118t6 -126q2 -33 4 -100.5t2 -155.5z" />
    <glyph glyph-name="iacute" unicode="&#xed;" horiz-adv-x="265" 
d="M352 739q-8 -6 -23.5 -16t-36 -23t-44 -27t-46.5 -28q-55 -33 -120 -70l-61 48q49 40 92 76q18 15 36.5 31t35 30.5t29.5 27t20 20.5q11 -3 31 -14t40 -23q23 -14 47 -32zM222 -18q-16 -3 -32 -5q-14 -2 -29 -3.5t-26 -1.5q-4 0 -9.5 0.5t-14.5 2t-23 4t-35 7.5
q0 39 -1 94t-3.5 119.5t-6 135t-8.5 139.5q42 11 84 13.5t86 -5.5q4 -60 6 -118t6 -126q2 -33 4 -100.5t2 -155.5z" />
    <glyph glyph-name="icircumflex" unicode="&#xee;" horiz-adv-x="278" 
d="M221 570l-106 117q-21 -28 -45 -58t-42 -53l-96 64l143 163h72l149 -165zM230 -18q-16 -3 -32 -5q-14 -2 -29 -3.5t-26 -1.5q-4 0 -9.5 0.5t-14.5 2t-23 4t-35 7.5q0 39 -1 94t-3.5 119.5t-6 135t-8.5 139.5q42 11 84 13.5t86 -5.5q4 -60 6 -118t6 -126q2 -33 4 -100.5
t2 -155.5z" />
    <glyph glyph-name="idieresis" unicode="&#xef;" horiz-adv-x="285" 
d="M76 686q-1 -15 -5 -29.5t-12.5 -26t-22.5 -19t-35 -7.5q-17 0 -30.5 6.5t-22.5 17t-14 23t-5 24.5q0 30 21 52t57 22q32 0 50.5 -17.5t18.5 -45.5zM274 736q8 -11 10.5 -22t2.5 -22q0 -32 -14.5 -55t-53.5 -26q-21 0 -35 6.5t-23 17t-13 23.5t-4 25q0 35 17 55t55 23
q17 0 32 -4t26 -20v-1zM234 -18q-16 -3 -32 -5q-14 -2 -29 -3.5t-26 -1.5q-4 0 -9.5 0.5t-14.5 2t-23 4t-35 7.5q0 39 -1 94t-3.5 119.5t-6 135t-8.5 139.5q42 11 84 13.5t86 -5.5q4 -60 6 -118t6 -126q2 -33 4 -100.5t2 -155.5z" />
    <glyph glyph-name="eth" unicode="&#xf0;" horiz-adv-x="518" 
d="M337 276q0 10 -1 17t-3 12q-3 15 -13.5 28.5t-25 24t-30 17t-27.5 6.5q-18 0 -29 -12.5t-17 -29.5t-8 -36t-1 -32q2 -20 14 -41t26 -35q26 -28 49 -31q14 -2 29 6.5t23 23.5q14 22 14 82zM322 775q-4 -5 -11.5 -17.5t-18.5 -27.5q43 -36 79.5 -78.5t63.5 -88t44 -92.5
t22 -93v-1q3 -36 3 -75q0 -54 -12.5 -106t-47.5 -103q-32 -46 -77.5 -69t-99.5 -23q-55 0 -101.5 24.5t-83.5 71.5q-35 44 -52 93.5t-17 100.5q0 99 76 174h-1q18 18 44 28.5t54 14.5t55.5 2.5t49.5 -7.5h8q-11 25 -37.5 53.5t-61.5 56.5l-32 -40t-32 -44l-79 67
q14 19 28 37.5t30 36.5q-43 25 -80 35l86 129q47 -20 89 -45q14 20 27 40t23 35l80 -69z" />
    <glyph glyph-name="ntilde" unicode="&#xf1;" horiz-adv-x="536" 
d="M415 738q-3 -23 -17 -45t-35 -48q-15 -17 -35 -25t-41 -8q-26 0 -54 13q-12 8 -18 14.5t-13 14.5q-8 10 -14.5 17t-9.5 7q-18 -3 -27 -26t-17 -48l-63 21q7 28 15.5 53t21.5 43.5t32.5 29.5t48.5 11q20 0 36 -11.5t29 -25.5q8 -9 16 -13.5t13 -5.5q6 -1 14.5 1.5
t15.5 10.5q4 4 10 10.5t12 15.5t9.5 20t2.5 25l75 -16zM489 228q-2 -14 -4 -36t-3.5 -47.5t-2.5 -52.5t-1 -51v-8.5t1 -13.5t2 -24t4 -40l-196 36q5 29 6 46t3 33q1 10 3 26t4 35.5t5 40t7 40.5q5 30 9 59t4 62q0 20 -3.5 35t-11.5 20q-7 0 -21.5 -10.5t-32 -25.5t-34 -32
t-27.5 -31q1 -24 1 -41.5v-31t-0.5 -24.5t-0.5 -22q0 -9 -1 -37t-1.5 -59.5t-0.5 -58t2 -32.5l-174 -15q3 63 6 118l2 48t1.5 46.5t1.5 41.5t1 31q0 11 -0.5 28t-2 38t-3 44t-2.5 45q-4 52 -8 110q25 6 69.5 12.5t94.5 1.5l2 -42q1 -17 1.5 -31t0.5 -19q9 14 23.5 29.5
t32 29.5t36.5 25t38 15q16 4 40 1t38 -8q32 -14 52.5 -34.5t32 -45.5t15.5 -52.5t4 -55.5q0 -26 -4.5 -56.5t-7.5 -59.5z" />
    <glyph glyph-name="ograve" unicode="&#xf2;" horiz-adv-x="522" 
d="M64 705q25 17 47 32q19 13 38.5 24.5t30.5 14.5q14 -17 48 -48t70 -63q42 -37 91 -78l-60 -49q-63 38 -117 71q-23 14 -46 28.5t-43 27t-35.5 23.5t-23.5 17zM328 271q-4 15 -13.5 31t-22.5 28.5t-27.5 20.5t-29.5 8t-25.5 -7.5t-17 -18.5t-10 -22.5t-3.5 -20.5
q0 -21 7 -45.5t19 -45.5t28.5 -34.5t34.5 -13.5t30.5 7t20.5 17.5t12 23t4 22.5q0 11 -2 23.5t-5 26.5zM487 259q-1 -46 -8 -91t-36 -85q-33 -43 -76 -65.5t-100 -22.5q-117 0 -189 92q-35 44 -47 88.5t-12 95.5q0 43 15 85t44 75t71.5 53t97.5 20q39 0 81 -15t77 -46
t57.5 -77t24.5 -107z" />
    <glyph glyph-name="oacute" unicode="&#xf3;" horiz-adv-x="519" 
d="M446 746q-8 -9 -30 -24.5t-52 -33.5t-62 -37t-60 -34.5t-46 -25t-20 -9.5l-61 48q49 40 92 76q18 15 36.5 31t35 30.5t29.5 27t20 20.5q11 -3 31 -14t40 -23q23 -14 47 -32zM325 271q-4 15 -13.5 31t-22.5 28.5t-27.5 20.5t-29.5 8t-25.5 -7.5t-17 -18.5t-10 -22.5
t-3.5 -20.5q0 -21 7 -45.5t19 -45.5t28.5 -34.5t34.5 -13.5t30.5 7t20.5 17.5t12 23t4 22.5q0 11 -2 23.5t-5 26.5zM484 259q-1 -46 -8 -91t-36 -85q-33 -43 -76 -65.5t-100 -22.5q-117 0 -189 92q-35 44 -47 88.5t-12 95.5q0 43 15 85t44 75t71.5 53t97.5 20q39 0 81 -15
t77 -46t57.5 -77t24.5 -107z" />
    <glyph glyph-name="ocircumflex" unicode="&#xf4;" horiz-adv-x="539" 
d="M360 540l-106 117q-21 -28 -45 -58t-42 -53l-96 64l143 163h72l149 -165zM345 271q-4 15 -13.5 31t-22.5 28.5t-27.5 20.5t-29.5 8t-25.5 -7.5t-17 -18.5t-10 -22.5t-3.5 -20.5q0 -21 7 -45.5t19 -45.5t28.5 -34.5t34.5 -13.5t30.5 7t20.5 17.5t12 23t4 22.5
q0 11 -2 23.5t-5 26.5zM504 259q-1 -46 -8 -91t-36 -85q-33 -43 -76 -65.5t-100 -22.5q-117 0 -189 92q-35 44 -47 88.5t-12 95.5q0 43 15 85t44 75t71.5 53t97.5 20q39 0 81 -15t77 -46t57.5 -77t24.5 -107z" />
    <glyph glyph-name="otilde" unicode="&#xf5;" horiz-adv-x="528" 
d="M334 271q-4 15 -13.5 31t-22.5 28.5t-27.5 20.5t-29.5 8t-25.5 -7.5t-17 -18.5t-10 -22.5t-3.5 -20.5q0 -21 7 -45.5t19 -45.5t28.5 -34.5t34.5 -13.5t30.5 7t20.5 17.5t12 23t4 22.5q0 11 -2 23.5t-5 26.5zM404 687q-3 -23 -17 -45t-35 -48q-15 -17 -35 -25t-41 -8
q-26 0 -54 13q-12 8 -18 14.5t-13 14.5q-8 10 -14.5 17t-9.5 7q-18 -3 -27 -26t-17 -48l-63 21q7 28 15.5 53t21.5 43.5t32.5 29.5t48.5 11q20 0 36 -11.5t29 -25.5q8 -9 16 -13.5t13 -5.5q6 -1 14.5 1.5t15.5 10.5q4 4 10 10.5t12 15.5t9.5 20t2.5 25l75 -16zM493 259
q-1 -46 -8 -91t-36 -85q-33 -43 -76 -65.5t-100 -22.5q-117 0 -189 92q-35 44 -47 88.5t-12 95.5q0 43 15 85t44 75t71.5 53t97.5 20q39 0 81 -15t77 -46t57.5 -77t24.5 -107z" />
    <glyph glyph-name="odieresis" unicode="&#xf6;" horiz-adv-x="528" 
d="M205 642q-1 -15 -5 -29.5t-12.5 -26t-22.5 -19t-35 -7.5q-17 0 -30.5 6.5t-22.5 17t-14 23t-5 24.5q0 30 21 52t57 22q32 0 50.5 -17.5t18.5 -45.5zM403 692q8 -11 10.5 -22t2.5 -22q0 -32 -14.5 -55t-53.5 -26q-21 0 -35 6.5t-23 17t-13 23.5t-4 25q0 35 17 55t55 23
q17 0 32 -4t26 -20v-1zM334 271q-4 15 -13.5 31t-22.5 28.5t-27.5 20.5t-29.5 8t-25.5 -7.5t-17 -18.5t-10 -22.5t-3.5 -20.5q0 -21 7 -45.5t19 -45.5t28.5 -34.5t34.5 -13.5t30.5 7t20.5 17.5t12 23t4 22.5q0 11 -2 23.5t-5 26.5zM493 259q-1 -46 -8 -91t-36 -85
q-33 -43 -76 -65.5t-100 -22.5q-117 0 -189 92q-35 44 -47 88.5t-12 95.5q0 43 15 85t44 75t71.5 53t97.5 20q39 0 81 -15t77 -46t57.5 -77t24.5 -107z" />
    <glyph glyph-name="divide" unicode="&#xf7;" horiz-adv-x="510" 
d="M338 524q0 -19 -7.5 -37.5t-22.5 -33t-36 -23.5t-48 -9q-26 0 -47 8t-35 21.5t-21.5 31.5t-7.5 37t8 37.5t23 32t36.5 22t48.5 8.5q21 0 40.5 -7.5t35 -20t24.5 -30t9 -37.5zM369 134q0 -19 -7.5 -37.5t-22.5 -33.5t-36 -24t-48 -9t-47.5 8t-35 22t-22 31.5t-7.5 37.5
q0 19 8 37.5t23 32t36.5 22t48.5 8.5q21 0 41 -7.5t35 -20.5t24.5 -30.5t9.5 -36.5zM428 255q-26 -3 -77.5 -4.5t-107.5 -3.5q-24 -1 -55 -2.5t-61.5 -3t-56 -3t-37.5 -2.5l-14 143q13 1 40 2.5t59.5 3t66 3t59.5 2.5q51 2 103 4t118 9l15 -148h-52z" />
    <glyph glyph-name="oslash" unicode="&#xf8;" horiz-adv-x="516" 
d="M161 294q0 -23 6.5 -49.5t19.5 -51.5q11 29 21 55t18 46l31 83q-6 2 -12 3t-12 1q-20 0 -33.5 -9.5t-22 -23t-12.5 -28.5t-4 -26zM351 271q-4 11 -8.5 21t-10.5 20q-8 -17 -13.5 -31.5t-10.5 -26.5q-11 -27 -25 -60t-29 -71q9 -3 20 -3q22 0 38.5 9t27 22.5t15.5 28.5
t5 28q0 14 -2.5 29.5t-6.5 33.5zM470 643q-13 -28 -27 -59q-12 -26 -26 -59.5t-28 -65.5q42 -30 71 -80t31 -120q-1 -46 -8 -91t-36 -85q-33 -43 -76 -65.5t-100 -22.5q-20 0 -37.5 2.5t-34.5 7.5q-15 -36 -28.5 -70.5t-25 -64.5t-20.5 -54t-13 -39q-8 2 -21 8.5t-25 13.5
q-14 8 -29 16q12 32 27 69q12 32 28.5 72.5t33.5 85.5q-25 19 -44 45q-35 44 -47 88.5t-12 95.5q0 43 15 85t44 75t71.5 53t97.5 20q12 0 25 -2t26 -5q14 37 26.5 71.5t23 63.5t18 51.5t10.5 34.5q12 2 28.5 2.5t33.5 -2t32.5 -7.5t25.5 -14z" />
    <glyph glyph-name="ugrave" unicode="&#xf9;" horiz-adv-x="537" 
d="M74 686q25 17 47 32q19 13 38.5 24.5t30.5 14.5q14 -17 48 -48t70 -63q42 -37 91 -78l-60 -49q-63 38 -117 71q-23 14 -46 28.5t-43 27t-35.5 23.5t-23.5 17zM474 -5q-29 -14 -132 -19q-1 11 -3.5 27t-5.5 31t-5.5 26.5t-2.5 13.5q-13 -14 -30.5 -24.5t-36.5 -18
t-38.5 -11.5t-35.5 -4q-163 0 -163 199q0 28 2 61.5t6 75.5q1 14 3 33.5t4 40t3.5 40t2.5 33.5q52 0 93.5 -5t73.5 -13q-3 -39 -5 -76t-4 -67.5t-3 -54t-1 -35.5q0 -67 26 -78q5 0 13 4t16.5 10t16 13t10.5 13q7 15 12.5 30t11.5 46q3 14 3 31t-0.5 34.5t-1 34t-0.5 28.5
q26 5 49 8.5t33 3.5q28 0 87 -21q-1 -10 -2 -31.5t-1 -31.5q0 -29 1.5 -65.5t4.5 -64.5q2 -20 5 -45t6.5 -52t7 -54.5t8.5 -52.5z" />
    <glyph glyph-name="uacute" unicode="&#xfa;" horiz-adv-x="541" 
d="M509 701q-8 -6 -23.5 -16t-36 -23t-44 -27t-46.5 -28q-55 -33 -120 -70l-61 48q49 40 92 76q18 15 36.5 31t35 30.5t29.5 27t20 20.5q11 -3 31 -14t40 -23q23 -14 47 -32zM478 -5q-29 -14 -132 -19q-1 11 -3.5 27t-5.5 31t-5.5 26.5t-2.5 13.5q-13 -14 -30.5 -24.5
t-36.5 -18t-38.5 -11.5t-35.5 -4q-163 0 -163 199q0 28 2 61.5t6 75.5q1 14 3 33.5t4 40t3.5 40t2.5 33.5q52 0 93.5 -5t73.5 -13q-3 -39 -5 -76t-4 -67.5t-3 -54t-1 -35.5q0 -67 26 -78q5 0 13 4t16.5 10t16 13t10.5 13q7 15 12.5 30t11.5 46q3 14 3 31t-0.5 34.5t-1 34
t-0.5 28.5q26 5 49 8.5t33 3.5q28 0 87 -21q-1 -10 -2 -31.5t-1 -31.5q0 -29 1.5 -65.5t4.5 -64.5q2 -20 5 -45t6.5 -52t7 -54.5t8.5 -52.5z" />
    <glyph glyph-name="ucircumflex" unicode="&#xfb;" horiz-adv-x="538" 
d="M368 533l-106 117q-21 -28 -45 -58t-42 -53l-96 64l143 163h72l149 -165zM475 -5q-29 -14 -132 -19q-1 11 -3.5 27t-5.5 31t-5.5 26.5t-2.5 13.5q-13 -14 -30.5 -24.5t-36.5 -18t-38.5 -11.5t-35.5 -4q-163 0 -163 199q0 28 2 61.5t6 75.5q1 14 3 33.5t4 40t3.5 40
t2.5 33.5q52 0 93.5 -5t73.5 -13q-3 -39 -5 -76t-4 -67.5t-3 -54t-1 -35.5q0 -67 26 -78q5 0 13 4t16.5 10t16 13t10.5 13q7 15 12.5 30t11.5 46q3 14 3 31t-0.5 34.5t-1 34t-0.5 28.5q26 5 49 8.5t33 3.5q28 0 87 -21q-1 -10 -2 -31.5t-1 -31.5q0 -29 1.5 -65.5t4.5 -64.5
q2 -20 5 -45t6.5 -52t7 -54.5t8.5 -52.5z" />
    <glyph glyph-name="udieresis" unicode="&#xfc;" horiz-adv-x="541" 
d="M224 636q-1 -15 -5 -29.5t-12.5 -26t-22.5 -19t-35 -7.5q-17 0 -30.5 6.5t-22.5 17t-14 23t-5 24.5q0 30 21 52t57 22q32 0 50.5 -17.5t18.5 -45.5zM422 686q8 -11 10.5 -22t2.5 -22q0 -32 -14.5 -55t-53.5 -26q-21 0 -35 6.5t-23 17t-13 23.5t-4 25q0 35 17 55t55 23
q17 0 32 -4t26 -20v-1zM478 -5q-29 -14 -132 -19q-1 11 -3.5 27t-5.5 31t-5.5 26.5t-2.5 13.5q-13 -14 -30.5 -24.5t-36.5 -18t-38.5 -11.5t-35.5 -4q-163 0 -163 199q0 28 2 61.5t6 75.5q1 14 3 33.5t4 40t3.5 40t2.5 33.5q52 0 93.5 -5t73.5 -13q-3 -39 -5 -76t-4 -67.5
t-3 -54t-1 -35.5q0 -67 26 -78q5 0 13 4t16.5 10t16 13t10.5 13q7 15 12.5 30t11.5 46q3 14 3 31t-0.5 34.5t-1 34t-0.5 28.5q26 5 49 8.5t33 3.5q28 0 87 -21q-1 -10 -2 -31.5t-1 -31.5q0 -29 1.5 -65.5t4.5 -64.5q2 -20 5 -45t6.5 -52t7 -54.5t8.5 -52.5z" />
    <glyph glyph-name="yacute" unicode="&#xfd;" horiz-adv-x="578" 
d="M514 695q-8 -6 -23.5 -16t-36 -23t-44 -27t-46.5 -28q-55 -33 -120 -70l-61 48q49 40 92 76q18 15 36.5 31t35 30.5t29.5 27t20 20.5q11 -3 31 -14t40 -23q23 -14 47 -32zM530 415h1q-17 -35 -38.5 -82.5t-50 -113.5t-64.5 -153t-82 -201q-6 -17 -10.5 -27t-8.5 -19.5
t-9 -21.5t-13 -33q-5 -15 -13 -35.5t-17 -43.5t-18.5 -47.5t-18.5 -48.5q-54 4 -91.5 19.5t-59.5 44.5q5 9 11.5 25t9.5 23v-1q7 16 15.5 38t17.5 46t17.5 47.5t15.5 44.5q11 27 20.5 50.5t18.5 46t18.5 46t20.5 50.5q-42 30 -77 69.5t-61 87.5q-15 27 -27 59.5t-20 65.5
t-12.5 65.5t-4.5 61.5q18 10 39.5 14t44.5 3.5t46 -4t44 -7.5q15 -122 50 -192q10 -20 20.5 -39t21.5 -33q38 87 75.5 168t66.5 143q49 -6 86.5 -22.5t60.5 -44.5z" />
    <glyph glyph-name="thorn" unicode="&#xfe;" horiz-adv-x="569" 
d="M369 331q-1 25 -13.5 51.5t-34.5 34.5q-18 6 -32.5 -1t-31.5 -18q-18 -11 -29 -26.5t-18 -34.5v-103q54 -37 78 -35q25 2 52 41q14 21 22 43.5t7 47.5zM543 322q0 -35 -11 -70t-31 -67q-35 -59 -81.5 -92.5t-115.5 -30.5q-17 1 -30 5.5t-23 11t-18.5 13.5t-16.5 13
q1 -14 1 -39v-54v-59.5v-56.5q0 -35 -3 -77.5t-8 -96.5l-6 -57q-45 -4 -86.5 -0.5t-81.5 13.5q3 31 5.5 62.5t4.5 61t3.5 54.5t2.5 43q1 20 0 47t-4 61q1 21 1 60t-1 86t-2.5 99t-1.5 100q-3 30 -2.5 75t0 93.5t-3.5 93.5t-13 75l168 16q0 -2 1 -13l2.5 -27.5t4 -35.5
t4.5 -37q1 -5 2 -18.5t2.5 -28.5t2 -28.5t0.5 -18.5q9 8 22.5 18.5t28.5 19.5t30.5 15t28.5 6q42 0 78 -12.5t63 -38.5q84 -78 84 -184z" />
    <glyph glyph-name="ydieresis" unicode="&#xff;" horiz-adv-x="563" 
d="M244 663q-1 -15 -5 -29.5t-12.5 -26t-22.5 -19t-35 -7.5q-17 0 -30.5 6.5t-22.5 17t-14 23t-5 24.5q0 30 21 52t57 22q32 0 50.5 -17.5t18.5 -45.5zM442 713q8 -11 10.5 -22t2.5 -22q0 -32 -14.5 -55t-53.5 -26q-21 0 -35 6.5t-23 17t-13 23.5t-4 25q0 35 17 55t55 23
q17 0 32 -4t26 -20v-1zM530 415h1q-17 -35 -38.5 -82.5t-50 -113.5t-64.5 -153t-82 -201q-6 -17 -10.5 -27t-8.5 -19.5t-9 -21.5t-13 -33q-5 -15 -13 -35.5t-17 -43.5t-18.5 -47.5t-18.5 -48.5q-54 4 -91.5 19.5t-59.5 44.5q5 9 11.5 25t9.5 23v-1q7 16 15.5 38t17.5 46
t17.5 47.5t15.5 44.5q11 27 20.5 50.5t18.5 46t18.5 46t20.5 50.5q-42 30 -77 69.5t-61 87.5q-15 27 -27 59.5t-20 65.5t-12.5 65.5t-4.5 61.5q18 10 39.5 14t44.5 3.5t46 -4t44 -7.5q15 -122 50 -192q10 -20 20.5 -39t21.5 -33q38 87 75.5 168t66.5 143q49 -6 86.5 -22.5
t60.5 -44.5z" />
    <glyph glyph-name="Amacron" unicode="&#x100;" horiz-adv-x="623" 
d="M140 789l-2 97l358 9l1 -97zM261 325h19.5t25 0.5t24.5 1t20 1.5q-4 12 -10.5 31t-13 39.5t-12.5 39.5t-9 30q-8 -35 -22 -69.5t-22 -73.5zM616 -10q-7 -4 -17.5 -9t-23 -8.5t-25 -6t-22.5 -1.5q-17 0 -37 2.5t-38 4.5q-2 7 -6 21.5t-9 31.5t-9.5 34t-7.5 29
q-8 29 -16.5 51t-14.5 39q-13 -1 -32 -1.5t-41 -1t-45 -0.5h-43q-4 -23 -9 -48.5t-10.5 -52t-10.5 -52.5t-8 -48q-51 -2 -88 3.5t-71 20.5q3 20 8 45.5l10 51t10 48.5t7 39q-2 0 -4 0.5t-9.5 1t-22.5 0.5t-42 -1q0 12 -1 33t2 41q3 17 10.5 36t13.5 31h44h20.5h10h13.5
q29 88 57 194.5t64 208.5l157 11q5 -19 21 -68.5t37 -116.5t46.5 -145.5t49.5 -155.5t45.5 -145.5t36.5 -116.5z" />
    <glyph glyph-name="amacron" unicode="&#x101;" 
d="M83 681l-2 97l358 9l1 -97zM286 222q-12 12 -26.5 17t-25.5 5q-8 0 -14.5 -9.5t-11.5 -23.5t-8 -29t-3 -25q0 -32 8 -47t22 -15q18 0 39.5 9.5t28.5 32.5l-1 77zM499 3q-6 -9 -13 -18q-6 -8 -13 -15t-15 -12q-36 -23 -67 -30.5t-58 -5.5q-7 8 -12 22.5t-8 28.5
q-4 17 -7 36q-8 -3 -20 -8t-25 -10.5t-26 -9t-22 -3.5q-39 0 -73.5 9.5t-60.5 29t-41.5 50t-15.5 71.5q0 30 7 55q9 33 28 64.5t47 54.5q50 41 127 41q14 0 31 -2.5t30 -5.5v26q-1 20 -1.5 30.5t-0.5 12.5q-5 32 -12.5 35.5t-22.5 -0.5q-3 -1 -14 -4t-23 -6.5t-22.5 -7
t-14.5 -5.5q-15 -9 -33.5 -19.5t-37.5 -28.5q-14 10 -22 31t-15 46q-2 8 -3.5 19t-1.5 22t1 20.5t3 15.5q85 60 185 60q47 0 83 -14q42 -13 71 -39.5t40 -64.5q8 -23 11 -53t3 -68q0 -18 -1 -40t-1 -43q-1 -33 -1 -51.5v-35.5q0 -76 8.5 -120t28.5 -60z" />
    <glyph glyph-name="Aogonek" unicode="&#x104;" horiz-adv-x="623" 
d="M261 325h19.5t25 0.5t24.5 1t20 1.5q-4 12 -10.5 31t-13 39.5t-12.5 39.5t-9 30q-8 -35 -22 -69.5t-22 -73.5zM613 -140q2 -25 5.5 -48t3.5 -51q0 -6 -0.5 -11.5t-0.5 -11.5q-25 -6 -46 -8t-32 -2q-30 0 -59.5 5.5t-53.5 20t-39.5 40t-17.5 64.5q0 18 6 36.5t16 36.5
t23.5 33.5t29.5 26.5q-3 10 -7 23t-7.5 26.5t-7 26t-5.5 21.5q-8 29 -16.5 51t-14.5 39q-13 -1 -32 -1.5t-41 -1t-45 -0.5h-43q-4 -23 -9 -48.5t-10.5 -52t-10.5 -52.5t-8 -48q-51 -2 -88 3.5t-71 20.5q3 20 8 45.5l10 51t10 48.5t7 39q-2 0 -4 0.5t-9.5 1t-22.5 0.5t-42 -1
q0 12 -1 33t2 41q3 17 10.5 36t13.5 31h44h20.5h10h13.5q29 88 57 194.5t64 208.5l157 11q5 -19 21 -68.5t37 -116.5t46.5 -145.5t49.5 -155.5t45.5 -145.5t36.5 -116.5q-7 -4 -17.5 -8.5t-22.5 -8.5t-24.5 -6t-22.5 -2q-23 -20 -31 -37t-8 -43q0 -11 5 -18t12.5 -11.5
t15.5 -6.5t15 -2q6 0 17 1.5t23 3.5t22 4t13 4z" />
    <glyph glyph-name="aogonek" unicode="&#x105;" 
d="M286 222q-12 12 -26.5 17t-25.5 5q-8 0 -14.5 -9.5t-11.5 -23.5t-8 -29t-3 -25q0 -32 8 -47t22 -15q18 0 39.5 9.5t28.5 32.5l-1 77zM494 -169q2 -25 5.5 -48t3.5 -51q0 -6 -0.5 -11.5t-0.5 -11.5q-25 -6 -46 -8t-32 -2q-30 0 -59.5 5.5t-53.5 20t-39.5 40t-17.5 64.5
q0 32 18 66.5t46 57.5q-3 10 -5 20t-4 18q-2 10 -3 18q-8 -3 -20 -8t-25 -10.5t-26 -9t-22 -3.5q-39 0 -73.5 9.5t-60.5 29t-41.5 50t-15.5 71.5q0 30 7 55q9 33 28 64.5t47 54.5q50 41 127 41q14 0 31 -2.5t30 -5.5v26q-1 20 -1.5 30.5t-0.5 12.5q-5 32 -12.5 35.5
t-22.5 -0.5q-3 -1 -14 -4t-23 -6.5t-22.5 -7t-14.5 -5.5q-15 -9 -33.5 -19.5t-37.5 -28.5q-14 10 -22 31t-15 46q-2 8 -3.5 19t-1.5 22t1 20.5t3 15.5q85 60 185 60q47 0 83 -14q42 -13 71 -39.5t40 -64.5q8 -23 11 -53t3 -68q0 -18 -1 -40t-1 -43q-1 -33 -1 -51.5v-35.5
q0 -76 8.5 -120t28.5 -60q-6 -9 -13 -18q-6 -8 -13 -15t-15 -12q-14 -8 -27 -14.5t-26 -11.5q-20 -19 -27 -35t-7 -41q0 -11 5 -18t12.5 -11.5t15.5 -6.5t15 -2q6 0 17 1.5t23 3.5t22 4t13 4z" />
    <glyph glyph-name="Cacute" unicode="&#x106;" horiz-adv-x="581" 
d="M532 924q-8 -6 -23.5 -16t-36 -23t-44 -27t-46.5 -28q-55 -33 -120 -70l-61 48q49 40 92 76q18 15 36.5 31t35 30.5t29.5 27t20 20.5q11 -3 31 -14t40 -23q23 -14 47 -32zM557 168q-3 -22 -6.5 -39.5t-8 -33.5t-10.5 -31.5t-15 -32.5v1q-10 -23 -27 -43.5t-43 -35.5
t-62.5 -24t-84.5 -9q-57 0 -106 21t-79 57q-32 38 -51.5 84t-30 93t-13.5 93t-3 85q0 57 16.5 122t52 119.5t91 90.5t133.5 36q52 0 94.5 -17.5t74 -48t50.5 -71.5t23 -87l5 -74q-52 -20 -95 -22t-89 0q5 33 6.5 53.5t0.5 30.5q0 5 -0.5 10t-0.5 9q0 32 -20 51t-49 19
q-30 0 -52 -21t-36 -52.5t-20.5 -67.5t-6.5 -66q0 -23 0.5 -56t4.5 -68q2 -32 10 -65.5t22 -59.5q28 -52 72 -52q19 0 34.5 6t24.5 14q11 18 16.5 46.5t5.5 79.5l174 -8z" />
    <glyph glyph-name="cacute" unicode="&#x107;" horiz-adv-x="476" 
d="M447 734q-8 -6 -23.5 -16t-36 -23t-44 -27t-46.5 -28q-55 -33 -120 -70l-61 48q49 40 92 76q18 15 36.5 31t35 30.5t29.5 27t20 20.5q11 -3 31 -14t40 -23q23 -14 47 -32zM451 99q-19 -20 -37 -37.5t-37 -26.5q-9 -4 -26.5 -11.5t-39 -14.5t-44.5 -12t-43 -5
q-38 0 -65.5 11.5t-46.5 23.5l2 -1q-95 60 -95 202q0 11 0.5 24.5t1.5 27.5q5 45 24 83.5t54 71.5q66 61 158 61q43 0 82 -12.5t71 -40.5l8 -8l13 -13t12.5 -13.5t7.5 -7.5l-94 -107q-19 21 -34 33t-25.5 18t-16 8t-5.5 3q-34 -8 -52.5 -35t-22.5 -69q-1 -14 -2 -25t0 -20
q0 -8 1.5 -17.5t5.5 -18t10 -15t17 -9.5q18 -5 39 -2t33 9q8 4 14 7.5t13.5 9t18.5 14t29 23.5z" />
    <glyph glyph-name="Ccaron" unicode="&#x10c;" horiz-adv-x="581" 
d="M342 754l-69 1l-136 151l92 57l82 -101q25 26 52.5 56t48.5 52l71 -63zM557 168q-3 -22 -6.5 -39.5t-8 -33.5t-10.5 -31.5t-15 -32.5v1q-10 -23 -27 -43.5t-43 -35.5t-62.5 -24t-84.5 -9q-57 0 -106 21t-79 57q-32 38 -51.5 84t-30 93t-13.5 93t-3 85q0 57 16.5 122
t52 119.5t91 90.5t133.5 36q52 0 94.5 -17.5t74 -48t50.5 -71.5t23 -87l5 -74q-52 -20 -95 -22t-89 0q5 33 6.5 53.5t0.5 30.5q0 5 -0.5 10t-0.5 9q0 32 -20 51t-49 19q-30 0 -52 -21t-36 -52.5t-20.5 -67.5t-6.5 -66q0 -23 0.5 -56t4.5 -68q2 -32 10 -65.5t22 -59.5
q28 -52 72 -52q19 0 34.5 6t24.5 14q11 18 16.5 46.5t5.5 79.5l174 -8z" />
    <glyph glyph-name="ccaron" unicode="&#x10d;" horiz-adv-x="476" 
d="M270 562l-69 1l-136 151l92 57l82 -101q25 26 52.5 56t48.5 52l71 -63zM451 99q-19 -20 -37 -37.5t-37 -26.5q-9 -4 -26.5 -11.5t-39 -14.5t-44.5 -12t-43 -5q-38 0 -65.5 11.5t-46.5 23.5l2 -1q-95 60 -95 202q0 11 0.5 24.5t1.5 27.5q5 45 24 83.5t54 71.5
q66 61 158 61q43 0 82 -12.5t71 -40.5l8 -8l13 -13t12.5 -13.5t7.5 -7.5l-94 -107q-19 21 -34 33t-25.5 18t-16 8t-5.5 3q-34 -8 -52.5 -35t-22.5 -69q-1 -14 -2 -25t0 -20q0 -8 1.5 -17.5t5.5 -18t10 -15t17 -9.5q18 -5 39 -2t33 9q8 4 14 7.5t13.5 9t18.5 14t29 23.5z" />
    <glyph glyph-name="Dcaron" unicode="&#x10e;" horiz-adv-x="588" 
d="M287 698l-69 1l-136 151l92 57l82 -101q25 26 52.5 56t48.5 52l71 -63zM380 389q-3 18 -10 33.5t-15.5 27t-16.5 19t-14 11.5q-19 11 -44 15.5t-51 5.5q8 -47 15.5 -88.5l15 -83t15.5 -84.5t18 -93q8 4 20.5 8t25 10.5t23 16.5t14.5 25q11 29 13.5 70t-9.5 107zM550 399
q11 -78 3.5 -146.5t-31.5 -114.5q-19 -33 -54.5 -61.5t-83.5 -52.5t-105.5 -43t-118.5 -34l-90 533q-13 -4 -27 -6.5t-25 -4.5q-11 26 -16 46.5t-7 33.5q-2 7 -4 23t-1 44q16 3 37 7.5t40.5 8.5t35 7t21.5 4q88 15 164.5 9.5t127.5 -34.5q21 -12 42 -34t40 -50.5t32.5 -63
t19.5 -71.5z" />
    <glyph glyph-name="dcaron" unicode="&#x10f;" horiz-adv-x="720" 
d="M708 861q-8 -28 -14 -52q-5 -21 -10.5 -41t-8.5 -31q-4 -13 -10.5 -37t-12.5 -49q-8 -29 -16 -62l-116 -5q6 38 12 71q5 29 10.5 56.5t10.5 41.5q3 10 8 32.5t10 45.5q5 27 12 58l134 -3zM224 153q41 0 107 45q-1 15 -2.5 26.5t-1.5 19.5q-2 15 -3.5 42t-3.5 53
q-15 8 -24.5 11t-12.5 2q-17 -3 -35 -11t-35 -32q-33 -44 -31 -101q3 -55 42 -55zM507 -35q-9 -5 -20 -9.5t-27 -7.5t-37.5 -5.5t-52.5 -3.5q-5 7 -10 22t-9 33t-7 36.5t-3 32.5q-27 -21 -63.5 -37t-67.5 -17q-51 1 -85.5 18.5t-61.5 46.5q-51 58 -53 142q-2 45 9 86.5
t35 84.5q33 57 83 81.5t120 27.5q14 1 30 -3.5t27 -9.5q-2 45 -5 86t-10 80q-5 38 -9 66.5t-5 50.5q-3 47 11 125q57 10 100.5 5t78.5 -28l-9 -54q-5 -29 -3 -72q1 -14 3 -38.5t6 -56.5q3 -30 5.5 -80t5 -106.5l5 -113t5.5 -98.5q3 -33 6.5 -69t8.5 -71t12 -68.5t17 -60.5z
" />
    <glyph glyph-name="Dcroat" unicode="&#x110;" horiz-adv-x="588" 
d="M380 389q-3 18 -10 33.5t-15.5 27t-16.5 19t-14 11.5q-19 11 -44 15.5t-51 5.5l22 -126l90 14l13 -96l-86 -14l25 -127q8 4 20.5 8t25 10.5t23 16.5t14.5 25q11 29 13.5 70t-9.5 107zM550 399q11 -78 3.5 -146.5t-31.5 -114.5q-19 -33 -54.5 -61.5t-83.5 -52.5
t-105.5 -43t-118.5 -34l-52 307l-106 -16l-15 96l105 16l-22 130q-13 -4 -27 -6.5t-25 -4.5q-11 26 -16 46.5t-7 33.5q-2 7 -4 23t-1 44q16 3 37 7.5t40.5 8.5t35 7t21.5 4q88 15 164.5 9.5t127.5 -34.5q21 -12 42 -34t40 -50.5t32.5 -63t19.5 -71.5z" />
    <glyph glyph-name="dcroat" unicode="&#x111;" horiz-adv-x="571" 
d="M224 153q41 0 107 45q-1 15 -2.5 26.5t-1.5 19.5q-2 15 -3.5 42t-3.5 53q-15 8 -24.5 11t-12.5 2q-17 -3 -35 -11t-35 -32q-33 -44 -31 -101q3 -55 42 -55zM507 -35q-9 -5 -20 -9.5t-27 -7.5t-37.5 -5.5t-52.5 -3.5q-5 7 -10 22t-9 33t-7 36.5t-3 32.5q-27 -21 -63.5 -37
t-67.5 -17q-51 1 -85.5 18.5t-61.5 46.5q-51 58 -53 142q-2 45 9 86.5t35 84.5q33 57 83 81.5t120 27.5q14 1 30 -3.5t27 -9.5q-2 39 -5 76.5t-8 72.5l-91 -5l-11 115l87 5q-1 5 -1 9.5v9.5q-3 47 11 125q57 10 100.5 5t78.5 -28l-9 -54q-2 -12 -3 -27t-1 -32q34 2 64.5 4
t45.5 4l17 -119l-51 -2q-12 -2 -28.5 -2.5t-36.5 -1.5q3 -32 5 -81.5t4.5 -104.5t5 -109t5.5 -94q3 -33 6.5 -69t8.5 -71t12 -68.5t17 -60.5z" />
    <glyph glyph-name="Emacron" unicode="&#x112;" horiz-adv-x="529" 
d="M93 777l-2 97l358 9l1 -97zM488 74q-31 -6 -81 -17.5t-107 -27t-114 -34t-103 -38.5l-7 314q-8 -1 -18 -1.5t-20 -2.5q-11 -2 -23 -4l-1 145q4 0 12.5 1t17.5 2t17.5 2.5t11.5 1.5q-1 67 -2.5 142.5t-2.5 136.5h23t33.5 0.5t33 1t23.5 0.5q6 0 31.5 1t64 3.5t87.5 5.5
t103 6q11 -29 11.5 -47.5t0.5 -30.5q0 -9 -1 -20.5t-7 -43.5q-30 -3 -48.5 -4.5t-29.5 -2t-16 -1t-9 -0.5q-17 -1 -28.5 -2t-24 -2t-30 -2t-44.5 -2v-60.5t1 -59.5q22 3 50 6.5t56.5 7.5t55.5 8.5t47 8.5q8 -26 11.5 -64.5t-1.5 -77.5q-50 -9 -80 -14.5t-51.5 -9.5t-40 -6.5
t-44.5 -5.5l3 -112q47 13 107.5 26t123.5 23q5 -18 7.5 -39t3 -42t0 -39t-1.5 -30z" />
    <glyph glyph-name="emacron" unicode="&#x113;" horiz-adv-x="515" 
d="M82 728l-2 97l358 9l1 -97zM191 327q27 5 54.5 9.5t56.5 9.5q-2 22 -2.5 37t-6.5 32q-7 17 -16 23t-22 6q-11 1 -27 -12.5t-25 -38.5q-12 -36 -12 -66zM206 201q19 -48 57.5 -69t98.5 -21q8 0 38 4l75 10q-12 -102 -66 -191l-71 13q-36 6 -71 16t-64 25h1
q-98 47 -135 116q-26 47 -37 95t-11 98q0 29 5.5 61t16.5 59q35 84 91.5 126.5t131.5 37.5h-1q230 -14 224 -329z" />
    <glyph glyph-name="Edotaccent" unicode="&#x116;" horiz-adv-x="529" 
d="M347 842q0 -12 -6 -24t-16.5 -22.5t-24.5 -17t-30 -6.5q-15 0 -29.5 2.5t-26 10t-18.5 20t-7 33.5q0 18 3 34.5t11 30t22 21.5t35 8q40 0 63.5 -24.5t23.5 -65.5zM488 74q-31 -6 -81 -17.5t-107 -27t-114 -34t-103 -38.5l-7 314q-8 -1 -18 -1.5t-20 -2.5q-11 -2 -23 -4
l-1 145q4 0 12.5 1t17.5 2t17.5 2.5t11.5 1.5q-1 67 -2.5 142.5t-2.5 136.5h23t33.5 0.5t33 1t23.5 0.5q6 0 31.5 1t64 3.5t87.5 5.5t103 6q11 -29 11.5 -47.5t0.5 -30.5q0 -9 -1 -20.5t-7 -43.5q-30 -3 -48.5 -4.5t-29.5 -2t-16 -1t-9 -0.5q-17 -1 -28.5 -2t-24 -2t-30 -2
t-44.5 -2v-60.5t1 -59.5q22 3 50 6.5t56.5 7.5t55.5 8.5t47 8.5q8 -26 11.5 -64.5t-1.5 -77.5q-50 -9 -80 -14.5t-51.5 -9.5t-40 -6.5t-44.5 -5.5l3 -112q47 13 107.5 26t123.5 23q5 -18 7.5 -39t3 -42t0 -39t-1.5 -30z" />
    <glyph glyph-name="edotaccent" unicode="&#x117;" horiz-adv-x="515" 
d="M338 732q0 -12 -6 -24t-16.5 -22.5t-24.5 -17t-30 -6.5q-15 0 -29.5 2.5t-26 10t-18.5 20t-7 33.5q0 18 3 34.5t11 30t22 21.5t35 8q40 0 63.5 -24.5t23.5 -65.5zM191 327q27 5 54.5 9.5t56.5 9.5q-2 22 -2.5 37t-6.5 32q-7 17 -16 23t-22 6q-11 1 -27 -12.5t-25 -38.5
q-12 -36 -12 -66zM206 201q19 -48 57.5 -69t98.5 -21q8 0 38 4l75 10q-12 -102 -66 -191l-71 13q-36 6 -71 16t-64 25h1q-98 47 -135 116q-26 47 -37 95t-11 98q0 29 5.5 61t16.5 59q35 84 91.5 126.5t131.5 37.5h-1q230 -14 224 -329z" />
    <glyph glyph-name="Eogonek" unicode="&#x118;" horiz-adv-x="529" 
d="M495 -50q2 -25 5.5 -48t3.5 -51q0 -6 -0.5 -11.5t-0.5 -11.5q-25 -6 -46 -8t-32 -2q-30 0 -59.5 5.5t-53.5 20t-39.5 40t-17.5 64.5q0 19 6 38t17 37q-52 -14 -102.5 -30.5t-92.5 -35.5l-7 314q-8 -1 -18 -1.5t-20 -2.5q-11 -2 -23 -4l-1 145q4 0 12.5 1t17.5 2t17.5 2.5
t11.5 1.5q-1 67 -2.5 142.5t-2.5 136.5h23t33.5 0.5t33 1t23.5 0.5q6 0 31.5 1t64 3.5t87.5 5.5t103 6q11 -29 11.5 -47.5t0.5 -30.5q0 -9 -1 -20.5t-7 -43.5q-30 -3 -48.5 -4.5t-29.5 -2t-16 -1t-9 -0.5q-17 -1 -28.5 -2t-24 -2t-30 -2t-44.5 -2v-60.5t1 -59.5q22 3 50 6.5
t56.5 7.5t55.5 8.5t47 8.5q8 -26 11.5 -64.5t-1.5 -77.5q-50 -9 -80 -14.5t-51.5 -9.5t-40 -6.5t-44.5 -5.5l3 -112q47 13 107.5 26t123.5 23q5 -18 7.5 -39t3 -42t0 -39t-1.5 -30q-14 -3 -33 -7t-41 -9q-25 -22 -33.5 -39.5t-8.5 -43.5q0 -11 5 -18t12.5 -11.5t15.5 -6.5
t15 -2q6 0 17 1.5t23 3.5t22 4t13 4z" />
    <glyph glyph-name="eogonek" unicode="&#x119;" horiz-adv-x="515" 
d="M191 327q27 5 54.5 9.5t56.5 9.5q-2 22 -2.5 37t-6.5 32q-7 17 -16 23t-22 6q-11 1 -27 -12.5t-25 -38.5q-12 -36 -12 -66zM446 -173q2 -25 5.5 -48t3.5 -51q0 -6 -0.5 -11.5t-0.5 -11.5q-25 -6 -46 -8t-32 -2q-30 0 -59.5 5.5t-53.5 20t-39.5 40t-17.5 64.5q0 18 6 37
t16.5 37t24 33.5t29.5 26.5q-44 11 -79 29h1q-98 47 -135 116q-26 47 -37 95t-11 98q0 29 5.5 61t16.5 59q35 84 91.5 126.5t131.5 37.5h-1q230 -14 224 -329l-283 -51q19 -48 57.5 -69t98.5 -21q8 0 38 4l75 10q-12 -102 -66 -191l-37 7q-29 -24 -39 -42.5t-10 -46.5
q0 -11 5 -18t12.5 -11.5t15.5 -6.5t15 -2q6 0 17 1.5t23 3.5t22 4t13 4z" />
    <glyph glyph-name="Ecaron" unicode="&#x11a;" horiz-adv-x="529" 
d="M307 749l-69 1l-136 151l92 57l82 -101q25 26 52.5 56t48.5 52l71 -63zM488 74q-31 -6 -81 -17.5t-107 -27t-114 -34t-103 -38.5l-7 314q-8 -1 -18 -1.5t-20 -2.5q-11 -2 -23 -4l-1 145q4 0 12.5 1t17.5 2t17.5 2.5t11.5 1.5q-1 67 -2.5 142.5t-2.5 136.5h23t33.5 0.5
t33 1t23.5 0.5q6 0 31.5 1t64 3.5t87.5 5.5t103 6q11 -29 11.5 -47.5t0.5 -30.5q0 -9 -1 -20.5t-7 -43.5q-30 -3 -48.5 -4.5t-29.5 -2t-16 -1t-9 -0.5q-17 -1 -28.5 -2t-24 -2t-30 -2t-44.5 -2v-60.5t1 -59.5q22 3 50 6.5t56.5 7.5t55.5 8.5t47 8.5q8 -26 11.5 -64.5
t-1.5 -77.5q-50 -9 -80 -14.5t-51.5 -9.5t-40 -6.5t-44.5 -5.5l3 -112q47 13 107.5 26t123.5 23q5 -18 7.5 -39t3 -42t0 -39t-1.5 -30z" />
    <glyph glyph-name="ecaron" unicode="&#x11b;" horiz-adv-x="515" 
d="M293 644l-69 1l-136 151l92 57l82 -101q25 26 52.5 56t48.5 52l71 -63zM191 327q27 5 54.5 9.5t56.5 9.5q-2 22 -2.5 37t-6.5 32q-7 17 -16 23t-22 6q-11 1 -27 -12.5t-25 -38.5q-12 -36 -12 -66zM206 201q19 -48 57.5 -69t98.5 -21q8 0 38 4l75 10q-12 -102 -66 -191
l-71 13q-36 6 -71 16t-64 25h1q-98 47 -135 116q-26 47 -37 95t-11 98q0 29 5.5 61t16.5 59q35 84 91.5 126.5t131.5 37.5h-1q230 -14 224 -329z" />
    <glyph glyph-name="uni0122" unicode="&#x122;" horiz-adv-x="640" 
d="M434 -282q0 -36 -7 -66.5t-23.5 -56.5t-44 -48t-68.5 -42l-56 79q15 6 31 17.5t30 25t23 27.5t9 25q0 5 -0.5 10.5t-1.5 10.5q-39 -2 -60.5 19t-21.5 53t20 55.5t58 23.5q34 0 56 -10.5t34.5 -29t17 -42.5t4.5 -51zM516 255q-3 -104 -3 -178q0 -29 1 -62.5t2 -56.5
q-46 -28 -85 -44q-24 -9 -49.5 -13t-51.5 -4q-151 0 -249 135q-11 16 -21.5 38.5t-18.5 49t-12.5 55.5t-4.5 56q0 42 1 79t6 72.5t15 72t29 78.5q22 47 54.5 84.5t68.5 64t73.5 41t69.5 14.5q43 0 80.5 -10t66 -29.5t46 -48.5t22.5 -67l5 -68q-23 -6 -46.5 -14t-47.5 -14
t-47.5 -9t-46.5 0q6 28 6 48.5t-8 44.5q-2 6 -11 9t-20 3q-10 0 -24.5 -6t-30.5 -19.5t-31.5 -35.5t-26.5 -54q-21 -60 -26.5 -111t-5.5 -107q1 -44 15 -80t35.5 -61t47 -38.5t50.5 -11.5h2v20v34t0.5 32.5t1 40.5t1.5 58q-2 0 -3 -0.5t-5 -0.5l-84 -7l2 149q45 6 80 7.5
t71 3t79.5 4.5t105.5 12q4 -43 6 -65.5t1 -34.5v-56h-85z" />
    <glyph glyph-name="uni0123" unicode="&#x123;" horiz-adv-x="582" 
d="M132 761q1 28 18 65.5t43 75t59 70.5t66 53l67 -84q-12 -6 -30 -24.5t-35.5 -40t-30 -42t-13.5 -29.5v-2q15 -4 26.5 -15t18.5 -25.5t10 -31.5t2 -33q-2 -37 -28.5 -61.5t-71.5 -22.5q-23 1 -42.5 8.5t-33 25t-20.5 45t-5 68.5zM348 -165q0 11 -0.5 32t-8 41.5t-24 36
t-48.5 15.5q-23 0 -39.5 -15.5t-16.5 -53.5q0 -27 2.5 -51t12.5 -36q13 -15 31.5 -22t28.5 -6q9 0 19.5 3.5t20 10.5t16 18t6.5 27zM378 376q1 3 1 9q0 11 -4.5 23t-12.5 22t-20 16.5t-28 6.5q-14 0 -31 -3.5t-29 -8.5q-6 -3 -15.5 -13t-18 -23.5t-14.5 -29t-6 -29.5
q0 -5 4.5 -13.5t11.5 -16.5q7 -9 13.5 -15.5t15 -10.5t21 -6t33.5 -2q38 0 56.5 24t22.5 68v2zM538 576q-5 -1 -17 0.5t-27 1t-30 -5.5t-27 -18q18 -16 38 -37.5t36.5 -45t27 -47.5t10.5 -45q0 -53 -17.5 -96t-50 -73t-78.5 -46.5t-103 -16.5q-4 0 -14.5 0.5t-23 1.5t-25 3
t-20.5 5q-5 -5 -6.5 -13t-1.5 -15q0 -9 2 -17q0 -3 6.5 -12t18.5 -17q5 3 15 5t21.5 3.5t22 2t16.5 0.5q44 0 83 -15t68.5 -43.5t47 -69.5t17.5 -94q0 -54 -13 -96.5t-57 -80.5q-13 -11 -32 -20.5t-41 -17t-46 -11.5t-47 -4q-34 0 -77 15t-81.5 45.5t-65 77.5t-26.5 110
q0 87 56 140q-23 26 -36 50.5t-13 47.5q0 29 12 48t41 36q-35 31 -58 67t-23 65q0 30 6 59.5t28 62.5q45 68 107.5 94.5t134.5 26.5h28q22 57 68 87t115 30q10 0 19 -0.5t17 -0.5h17q11 -33 13 -49t2 -30q0 -10 -3.5 -27.5t-7.5 -31.5z" />
    <glyph glyph-name="Imacron" unicode="&#x12a;" horiz-adv-x="287" 
d="M-49 763l-2 97l358 9l1 -97zM70 134q-2 48 -3.5 87.5t-3.5 71.5q0 6 -0.5 13t-0.5 14q-1 13 -3 40.5t-4.5 61.5t-6 72t-6 73t-5.5 64t-4 45q22 6 48.5 9t52 4t46.5 0t33 -3q5 -37 4 -74t3 -79q4 -45 5.5 -111.5t6.5 -135.5q1 -24 3 -63t4.5 -81.5t4.5 -82t4 -63.5
l-174 -4z" />
    <glyph glyph-name="imacron" unicode="&#x12b;" horiz-adv-x="320" 
d="M-19 620l-2 97l358 9l1 -97zM257 -18q-16 -3 -32 -5q-14 -2 -29 -3.5t-26 -1.5q-4 0 -9.5 0.5t-14.5 2t-23 4t-35 7.5q0 39 -1 94t-3.5 119.5t-6 135t-8.5 139.5q42 11 84 13.5t86 -5.5q4 -60 6 -118t6 -126q2 -33 4 -100.5t2 -155.5z" />
    <glyph glyph-name="Iogonek" unicode="&#x12e;" horiz-adv-x="287" 
d="M243 -114q2 -25 5.5 -48t3.5 -51q0 -6 -0.5 -11.5t-0.5 -11.5q-25 -6 -46 -8t-32 -2q-30 0 -59.5 5.5t-53.5 20t-39.5 40t-17.5 64.5q0 34 20.5 70t49.5 59l-3 121q-2 48 -3.5 87.5t-3.5 71.5q0 6 -0.5 13t-0.5 14q-1 13 -3 40.5t-4.5 61.5t-6 72t-6 73t-5.5 64t-4 45
q22 6 48.5 9t52 4t46.5 0t33 -3q5 -37 4 -74t3 -79q4 -45 5.5 -111.5t6.5 -135.5q1 -24 3 -63t4.5 -81.5t4.5 -82t4 -63.5l-86 -2q-25 -21 -33.5 -38.5t-8.5 -44.5q0 -11 5 -18t12.5 -11.5t15.5 -6.5t15 -2q6 0 17 1.5t23 3.5t22 4t13 4z" />
    <glyph glyph-name="iogonek" unicode="&#x12f;" horiz-adv-x="295" 
d="M229 631q-1 -20 -9.5 -36t-22 -27.5t-31.5 -18t-37 -6.5q-18 0 -35.5 6.5t-32 18.5t-23.5 28t-9 35t8.5 35t23 27.5t32.5 18t36 6.5q40 0 68.5 -24.5t31.5 -62.5zM261 -140q2 -25 5.5 -48t3.5 -51q0 -6 -0.5 -11.5t-0.5 -11.5q-25 -6 -46 -8t-32 -2q-30 0 -59.5 5.5
t-53.5 20t-39.5 40t-17.5 64.5q0 34 19.5 69.5t48.5 58.5q-2 40 -5.5 93t-8.5 113.5t-11 126t-13 130.5q41 13 83 17.5t86 -1.5l7 -63l-1 2q2 -14 6 -64t10 -118q3 -33 8.5 -100t9.5 -155l-32 -6q-14 -2 -28.5 -4.5t-25.5 -3.5h-10q-15 -16 -20.5 -31t-5.5 -37q0 -11 5 -18
t12.5 -11.5t15.5 -6.5t15 -2q6 0 17 1.5t23 3.5t22 4t13 4z" />
    <glyph glyph-name="dotlessi" unicode="&#x131;" horiz-adv-x="320" 
d="M257 -18q-16 -3 -32 -5q-14 -2 -29 -3.5t-26 -1.5q-4 0 -9.5 0.5t-14.5 2t-23 4t-35 7.5q0 39 -1 94t-3.5 119.5t-6 135t-8.5 139.5q42 11 84 13.5t86 -5.5q4 -60 6 -118t6 -126q2 -33 4 -100.5t2 -155.5z" />
    <glyph glyph-name="uni0136" unicode="&#x136;" horiz-adv-x="555" 
d="M418 -205q0 -36 -7 -66.5t-23.5 -56.5t-44 -48t-68.5 -42l-56 79q15 6 31 17.5t30 25t23 27.5t9 25q0 5 -0.5 10.5t-1.5 10.5q-39 -2 -60.5 19t-21.5 53t20 55.5t58 23.5q34 0 56 -10.5t34.5 -29t17 -42.5t4.5 -51zM486 518l-52 -45h1l-117 -96h1q-13 -10 -63 -41l1 1
l-15 -10q36 -38 58 -62.5t33 -34.5q68 -71 127 -119l79 -66q-5 -23 -11.5 -42.5t-14.5 -35.5q-10 -19 -24 -35t-29 -28l-111 99q-13 12 -32.5 33t-40.5 45t-41 49t-34 45q-1 -21 -1 -48v-53.5t-0.5 -50t-1.5 -38.5v-15v-21.5v-21v-12.5q-46 -12 -88 -8.5t-82 23.5l4 56
q1 84 2.5 167t2.5 168q0 44 6 142q1 25 2 63.5t1.5 77t0.5 70v43.5q48 11 90 11t80 -8l-14 -229q34 24 80 57.5t93 76.5l54 49q39 -27 65.5 -56.5t40.5 -58.5z" />
    <glyph glyph-name="uni0137" unicode="&#x137;" horiz-adv-x="550" 
d="M385 -244q0 -36 -7 -66.5t-23.5 -56.5t-44 -48t-68.5 -42l-56 79q15 6 31 17.5t30 25t23 27.5t9 25q0 5 -0.5 10.5t-1.5 10.5q-39 -2 -60.5 19t-21.5 53t20 55.5t58 23.5q34 0 56 -10.5t34.5 -29t17 -42.5t4.5 -51zM617 -161q-31 -8 -61 -10t-54 0q-28 2 -55 7
q-20 16 -33.5 30.5t-25 29.5t-23 32.5t-25.5 40.5q-22 42 -46 99t-44 114l-17 -21q4 -44 6 -64t3.5 -37t2.5 -43t3 -82q-26 -4 -47.5 -6t-40.5 -2t-37.5 0.5t-38.5 2.5q-1 32 -1.5 48.5t-0.5 24v9.5t-0.5 5t-1 11t-2.5 28q-5 64 -13.5 149.5t-19.5 194.5q-12 118 -24 230.5
t-20 216.5q58 26 100 26q8 0 28.5 1t55.5 -6q-2 -15 -3 -32q-1 -14 -1.5 -32.5t-0.5 -35.5q4 -48 8 -91.5t8.5 -86t9 -86t8.5 -90.5q1 -17 2 -32.5t3 -30.5q14 15 31.5 35.5t40.5 49.5l111 142q17 -13 32.5 -26t31.5 -29t33 -35.5t38 -45.5q-23 -17 -43 -33l-34 -28t-25 -23
q-12 -12 -23 -22t-21 -19t-18.5 -19t-17.5 -23q8 -16 17.5 -35.5t19.5 -42.5q13 -23 23 -43.5t20.5 -40t22 -40t27.5 -42.5q33 -47 61 -60t59 -3z" />
    <glyph glyph-name="Lacute" unicode="&#x139;" horiz-adv-x="483" 
d="M425 903q-8 -6 -23.5 -16t-36 -23t-44 -27t-46.5 -28q-55 -33 -120 -70l-61 48q49 40 92 76q18 15 36.5 31t35 30.5t29.5 27t20 20.5q11 -3 31 -14t40 -23q23 -14 47 -32zM462 85q1 -11 1 -31.5t-1.5 -44.5t-5 -48t-9.5 -42q-34 3 -59.5 6t-58.5 4q-27 1 -56 3t-55 2
q-40 2 -71.5 3.5t-58.5 6.5l-60 11l6 69q14 112 21.5 190t10.5 126l16 347q31 8 50 11t30 3q14 0 36.5 -4t54.5 -15l-2 -59l-13 -290q-1 -22 -2.5 -41.5t-4.5 -45t-6.5 -59.5t-9.5 -85q31 -2 54 -4t44.5 -4t44.5 -4t54 -3z" />
    <glyph glyph-name="lacute" unicode="&#x13a;" horiz-adv-x="287" 
d="M372 1103q-8 -6 -23.5 -16t-36 -23t-44 -27t-46.5 -28q-55 -33 -120 -70l-61 48q49 40 92 76q18 15 36.5 31t35 30.5t29.5 27t20 20.5q11 -3 31 -14t40 -23q23 -14 47 -32zM226 -49q-7 -4 -29.5 -7.5t-49.5 -6t-53.5 -1.5t-42.5 6q1 30 2 58q1 24 1 50.5t1 46.5
q3 40 3.5 77.5t0.5 75.5t-0.5 78t-0.5 85q0 100 0.5 200.5t-4.5 197.5q2 19 -4.5 40.5t-11.5 35.5q34 13 59.5 18t49.5 3q4 0 16.5 -1t26.5 -2.5t27 -2.5t18 -2q-6 -69 -8 -121t-2.5 -97t-1 -88t-1.5 -95q0 -21 -0.5 -65t-0.5 -97.5t-0.5 -109t-1.5 -100.5q0 -26 0.5 -52
t2 -49t2.5 -42.5t2 -32.5z" />
    <glyph glyph-name="uni013B" unicode="&#x13b;" horiz-adv-x="483" 
d="M341 -223q0 -36 -7 -66.5t-23.5 -56.5t-44 -48t-68.5 -42l-56 79q15 6 31 17.5t30 25t23 27.5t9 25q0 5 -0.5 10.5t-1.5 10.5q-39 -2 -60.5 19t-21.5 53t20 55.5t58 23.5q34 0 56 -10.5t34.5 -29t17 -42.5t4.5 -51zM462 85q1 -11 1 -31.5t-1.5 -44.5t-5 -48t-9.5 -42
q-34 3 -59.5 6t-58.5 4q-27 1 -56 3t-55 2q-40 2 -71.5 3.5t-58.5 6.5l-60 11l6 69q14 112 21.5 190t10.5 126l16 347q31 8 50 11t30 3q14 0 36.5 -4t54.5 -15l-2 -59l-13 -290q-1 -22 -2.5 -41.5t-4.5 -45t-6.5 -59.5t-9.5 -85q31 -2 54 -4t44.5 -4t44.5 -4t54 -3z" />
    <glyph glyph-name="uni013C" unicode="&#x13c;" horiz-adv-x="287" 
d="M241 -229q0 -36 -7 -66.5t-23.5 -56.5t-44 -48t-68.5 -42l-56 79q15 6 31 17.5t30 25t23 27.5t9 25q0 5 -0.5 10.5t-1.5 10.5q-39 -2 -60.5 19t-21.5 53t20 55.5t58 23.5q34 0 56 -10.5t34.5 -29t17 -42.5t4.5 -51zM226 -49q-7 -4 -29.5 -7.5t-49.5 -6t-53.5 -1.5
t-42.5 6q1 30 2 58q1 24 1 50.5t1 46.5q3 40 3.5 77.5t0.5 75.5t-0.5 78t-0.5 85q0 100 0.5 200.5t-4.5 197.5q2 19 -4.5 40.5t-11.5 35.5q34 13 59.5 18t49.5 3q4 0 16.5 -1t26.5 -2.5t27 -2.5t18 -2q-6 -69 -8 -121t-2.5 -97t-1 -88t-1.5 -95q0 -21 -0.5 -65t-0.5 -97.5
t-0.5 -109t-1.5 -100.5q0 -26 0.5 -52t2 -49t2.5 -42.5t2 -32.5z" />
    <glyph glyph-name="Lcaron" unicode="&#x13d;" horiz-adv-x="483" 
d="M482 709q-8 -28 -14 -52q-5 -21 -10.5 -41t-8.5 -31q-4 -13 -10.5 -37t-12.5 -49q-8 -29 -16 -62l-116 -5q6 38 12 71q5 29 10.5 56.5t10.5 41.5q3 10 8 32.5t10 45.5q5 27 12 58l134 -3zM458 141q1 -11 1 -31.5t-1.5 -44.5t-5 -48t-9.5 -42q-34 3 -59.5 6t-58.5 4
q-27 1 -56 3t-55 2q-40 2 -71.5 3.5t-58.5 6.5l-60 11l6 69q14 112 21.5 190t10.5 126l16 347q31 8 50 11t30 3q14 0 36.5 -4t54.5 -15l-2 -59l-13 -290q-1 -22 -2.5 -41.5t-4.5 -45t-6.5 -59.5t-9.5 -85q31 -2 54 -4t44.5 -4t44.5 -4t54 -3z" />
    <glyph glyph-name="lcaron" unicode="&#x13e;" horiz-adv-x="465" 
d="M455 883q-8 -28 -14 -52q-5 -21 -10.5 -41t-8.5 -31q-4 -13 -10.5 -37t-12.5 -49q-8 -29 -16 -62l-116 -5q6 38 12 71q5 29 10.5 56.5t10.5 41.5q3 10 8 32.5t10 45.5q5 27 12 58l134 -3zM226 -49q-7 -4 -29.5 -7.5t-49.5 -6t-53.5 -1.5t-42.5 6q1 30 2 58q1 24 1 50.5
t1 46.5q3 40 3.5 77.5t0.5 75.5t-0.5 78t-0.5 85q0 100 0.5 200.5t-4.5 197.5q2 19 -4.5 40.5t-11.5 35.5q34 13 59.5 18t49.5 3q4 0 16.5 -1t26.5 -2.5t27 -2.5t18 -2q-6 -69 -8 -121t-2.5 -97t-1 -88t-1.5 -95q0 -21 -0.5 -65t-0.5 -97.5t-0.5 -109t-1.5 -100.5
q0 -26 0.5 -52t2 -49t2.5 -42.5t2 -32.5z" />
    <glyph glyph-name="Lslash" unicode="&#x141;" horiz-adv-x="559" 
d="M518 158q3 -11 5.5 -31t4 -44t1.5 -48.5t-3 -43.5q-33 -2 -59 -2.5t-58 -5.5q-28 -4 -56.5 -6t-55.5 -7q-39 -5 -70 -8.5t-59 -1.5l-62 1l-2 69q-3 148 -9 240l-68 -35l-18 106q16 8 36.5 18.5t40.5 20.5q-5 55 -13 136.5t-17 176.5q29 14 48 19.5t30 7.5q14 2 37 1
t55 -6l7 -58l20 -203q9 4 22 10.5t27 13t26.5 12.5t19.5 10l18 -109l-103 -45q1 -18 2 -36.5t1.5 -42.5t1.5 -55.5t3 -75.5q31 3 54 4.5t44.5 3t44.5 3.5t54 5z" />
    <glyph glyph-name="lslash" unicode="&#x142;" horiz-adv-x="365" 
d="M261 377q3 -61 5.5 -122.5t4.5 -119.5q2 -53 9.5 -96t18.5 -73l-187 -13l-4 60q-2 25 -3.5 52.5t-2.5 47.5v71.5t-2 83.5l-2 33l-92 -49l-18 106l21 10.5t27 14l28 15t25 12.5q-2 10 -2 17q-2 38 -5.5 79t-7.5 88q-3 46 -7.5 93.5t-11.5 100.5l-7 56q33 15 58.5 21
t50.5 6q3 0 15.5 -0.5t27 -1t27 -1t17.5 -0.5q1 -50 1 -86v-63.5v-50.5t1 -47q2 -24 3 -40t1.5 -28t1 -22.5t1.5 -23.5q0 -5 0.5 -10.5t1.5 -10.5q24 14 46.5 26.5t38.5 20.5l18 -109z" />
    <glyph glyph-name="Nacute" unicode="&#x143;" horiz-adv-x="569" 
d="M505 940q-8 -6 -23.5 -16t-36 -23t-44 -27t-46.5 -28q-55 -33 -120 -70l-61 48q49 40 92 76q18 15 36.5 31t35 30.5t29.5 27t20 20.5q11 -3 31 -14t40 -23q23 -14 47 -32zM443 -120q-41 61 -89 134.5t-102 161.5q8 -81 16.5 -151t16.5 -125q-79 -27 -170 -20l-8 63l1 -1
q-14 107 -33.5 288t-42.5 421l123 85q33 -72 64 -136.5t56.5 -117.5t44 -91t28.5 -56q-1 35 -1 70.5v70.5q0 31 0.5 66.5t1 72t1.5 71.5t2 67q29 10 46.5 13.5t30.5 3.5q14 0 36.5 -5t56.5 -14q-1 -30 -1.5 -63.5t-1 -68t-1 -68t-0.5 -62.5q0 -150 5 -294.5t16 -290.5z" />
    <glyph glyph-name="nacute" unicode="&#x144;" horiz-adv-x="537" 
d="M499 773q-8 -6 -23.5 -16t-36 -23t-44 -27t-46.5 -28q-55 -33 -120 -70l-61 48q49 40 92 76q18 15 36.5 31t35 30.5t29.5 27t20 20.5q11 -3 31 -14t40 -23q23 -14 47 -32zM500 228q-2 -14 -4 -36t-3.5 -47.5t-2.5 -52.5t-1 -51v-8.5t1 -13.5t2 -24t4 -40l-196 36
q5 29 6 46t3 33q1 10 3 26t4 35.5t5 40t7 40.5q5 30 9 59t4 62q0 20 -3.5 35t-11.5 20q-7 0 -21.5 -10.5t-32 -25.5t-34 -32t-27.5 -31q1 -24 1 -41.5v-31t-0.5 -24.5t-0.5 -22q0 -9 -1 -37t-1.5 -59.5t-0.5 -58t2 -32.5l-174 -15q3 63 6 118l2 48t1.5 46.5t1.5 41.5t1 31
q0 11 -0.5 28t-2 38t-3 44t-2.5 45q-4 52 -8 110q25 6 69.5 12.5t94.5 1.5l2 -42q1 -17 1.5 -31t0.5 -19q9 14 23.5 29.5t32 29.5t36.5 25t38 15q16 4 40 1t38 -8q32 -14 52.5 -34.5t32 -45.5t15.5 -52.5t4 -55.5q0 -26 -4.5 -56.5t-7.5 -59.5z" />
    <glyph glyph-name="uni0145" unicode="&#x145;" horiz-adv-x="569" 
d="M468 -265q0 -36 -7 -66.5t-23.5 -56.5t-44 -48t-68.5 -42l-56 79q15 6 31 17.5t30 25t23 27.5t9 25q0 5 -0.5 10.5t-1.5 10.5q-39 -2 -60.5 19t-21.5 53t20 55.5t58 23.5q34 0 56 -10.5t34.5 -29t17 -42.5t4.5 -51zM443 -120q-41 61 -89 134.5t-102 161.5
q8 -81 16.5 -151t16.5 -125q-79 -27 -170 -20l-8 63l1 -1q-14 107 -33.5 288t-42.5 421l123 85q33 -72 64 -136.5t56.5 -117.5t44 -91t28.5 -56q-1 35 -1 70.5v70.5q0 31 0.5 66.5t1 72t1.5 71.5t2 67q29 10 46.5 13.5t30.5 3.5q14 0 36.5 -5t56.5 -14q-1 -30 -1.5 -63.5
t-1 -68t-1 -68t-0.5 -62.5q0 -150 5 -294.5t16 -290.5z" />
    <glyph glyph-name="uni0146" unicode="&#x146;" horiz-adv-x="537" 
d="M364 -191q0 -36 -7 -66.5t-23.5 -56.5t-44 -48t-68.5 -42l-56 79q15 6 31 17.5t30 25t23 27.5t9 25q0 5 -0.5 10.5t-1.5 10.5q-39 -2 -60.5 19t-21.5 53t20 55.5t58 23.5q34 0 56 -10.5t34.5 -29t17 -42.5t4.5 -51zM500 228q-2 -14 -4 -36t-3.5 -47.5t-2.5 -52.5t-1 -51
v-8.5t1 -13.5t2 -24t4 -40l-196 36q5 29 6 46t3 33q1 10 3 26t4 35.5t5 40t7 40.5q5 30 9 59t4 62q0 20 -3.5 35t-11.5 20q-7 0 -21.5 -10.5t-32 -25.5t-34 -32t-27.5 -31q1 -24 1 -41.5v-31t-0.5 -24.5t-0.5 -22q0 -9 -1 -37t-1.5 -59.5t-0.5 -58t2 -32.5l-174 -15
q3 63 6 118l2 48t1.5 46.5t1.5 41.5t1 31q0 11 -0.5 28t-2 38t-3 44t-2.5 45q-4 52 -8 110q25 6 69.5 12.5t94.5 1.5l2 -42q1 -17 1.5 -31t0.5 -19q9 14 23.5 29.5t32 29.5t36.5 25t38 15q16 4 40 1t38 -8q32 -14 52.5 -34.5t32 -45.5t15.5 -52.5t4 -55.5q0 -26 -4.5 -56.5
t-7.5 -59.5z" />
    <glyph glyph-name="Ncaron" unicode="&#x147;" horiz-adv-x="569" 
d="M290 772l-69 1l-136 151l92 57l82 -101q25 26 52.5 56t48.5 52l71 -63zM443 -120q-41 61 -89 134.5t-102 161.5q8 -81 16.5 -151t16.5 -125q-79 -27 -170 -20l-8 63l1 -1q-14 107 -33.5 288t-42.5 421l123 85q33 -72 64 -136.5t56.5 -117.5t44 -91t28.5 -56
q-1 35 -1 70.5v70.5q0 31 0.5 66.5t1 72t1.5 71.5t2 67q29 10 46.5 13.5t30.5 3.5q14 0 36.5 -5t56.5 -14q-1 -30 -1.5 -63.5t-1 -68t-1 -68t-0.5 -62.5q0 -150 5 -294.5t16 -290.5z" />
    <glyph glyph-name="ncaron" unicode="&#x148;" horiz-adv-x="537" 
d="M318 617l-69 1l-136 151l92 57l82 -101q25 26 52.5 56t48.5 52l71 -63zM500 228q-2 -14 -4 -36t-3.5 -47.5t-2.5 -52.5t-1 -51v-8.5t1 -13.5t2 -24t4 -40l-196 36q5 29 6 46t3 33q1 10 3 26t4 35.5t5 40t7 40.5q5 30 9 59t4 62q0 20 -3.5 35t-11.5 20q-7 0 -21.5 -10.5
t-32 -25.5t-34 -32t-27.5 -31q1 -24 1 -41.5v-31t-0.5 -24.5t-0.5 -22q0 -9 -1 -37t-1.5 -59.5t-0.5 -58t2 -32.5l-174 -15q3 63 6 118l2 48t1.5 46.5t1.5 41.5t1 31q0 11 -0.5 28t-2 38t-3 44t-2.5 45q-4 52 -8 110q25 6 69.5 12.5t94.5 1.5l2 -42q1 -17 1.5 -31t0.5 -19
q9 14 23.5 29.5t32 29.5t36.5 25t38 15q16 4 40 1t38 -8q32 -14 52.5 -34.5t32 -45.5t15.5 -52.5t4 -55.5q0 -26 -4.5 -56.5t-7.5 -59.5z" />
    <glyph glyph-name="Omacron" unicode="&#x14c;" horiz-adv-x="733" 
d="M199 783l-2 97l358 9l1 -97zM529 361q0 103 -42 162q-20 29 -41.5 43t-44.5 14q-8 0 -18.5 -2t-23.5 -7l1 1q-76 -29 -119 -92t-43 -156q0 -37 3.5 -72.5t12.5 -67.5t25 -59t41 -47q19 -15 39 -21.5t40 -6.5q48 0 93 53q26 32 44 82t29 118q2 16 3 31t1 27zM715 359
q0 -14 -1.5 -31t-4.5 -35v1q-25 -188 -134 -297q-95 -96 -230 -96q-51 0 -97.5 15.5t-84.5 42.5q-41 31 -68.5 75.5t-44.5 94.5t-24.5 101t-7.5 96q0 287 262 386h-1q25 10 51 14t52 4q69 0 128 -27t106 -78q46 -54 72.5 -122.5t26.5 -143.5z" />
    <glyph glyph-name="omacron" unicode="&#x14d;" horiz-adv-x="516" 
d="M84 602l-2 97l358 9l1 -97zM332 271q-4 15 -13.5 31t-22.5 28.5t-27.5 20.5t-29.5 8t-25.5 -7.5t-17 -18.5t-10 -22.5t-3.5 -20.5q0 -21 7 -45.5t19 -45.5t28.5 -34.5t34.5 -13.5t30.5 7t20.5 17.5t12 23t4 22.5q0 11 -2 23.5t-5 26.5zM491 259q-1 -46 -8 -91t-36 -85
q-33 -43 -76 -65.5t-100 -22.5q-117 0 -189 92q-35 44 -47 88.5t-12 95.5q0 43 15 85t44 75t71.5 53t97.5 20q39 0 81 -15t77 -46t57.5 -77t24.5 -107z" />
    <glyph glyph-name="Ohungarumlaut" unicode="&#x150;" horiz-adv-x="733" 
d="M285 775l-77 36l149 170l127 -19zM461 767l-79 30l155 180l132 -21zM529 361q0 103 -42 162q-20 29 -41.5 43t-44.5 14q-8 0 -18.5 -2t-23.5 -7l1 1q-76 -29 -119 -92t-43 -156q0 -37 3.5 -72.5t12.5 -67.5t25 -59t41 -47q19 -15 39 -21.5t40 -6.5q48 0 93 53
q26 32 44 82t29 118v-1q2 17 3 32t1 27zM715 359q0 -14 -1.5 -31t-4.5 -35v1q-25 -188 -134 -297q-95 -96 -230 -96q-51 0 -97.5 15.5t-84.5 42.5q-41 31 -68.5 75.5t-44.5 94.5t-24.5 101t-7.5 96q0 287 262 386h-1q25 10 51 14t52 4q69 0 128 -27t106 -78
q46 -54 72.5 -122.5t26.5 -143.5z" />
    <glyph glyph-name="ohungarumlaut" unicode="&#x151;" horiz-adv-x="516" 
d="M136 564l-77 36l149 170l127 -19zM312 556l-79 30l155 180l132 -21zM332 271q-4 15 -13.5 31t-22.5 28.5t-27.5 20.5t-29.5 8t-25.5 -7.5t-17 -18.5t-10 -22.5t-3.5 -20.5q0 -21 7 -45.5t19 -45.5t28.5 -34.5t34.5 -13.5t30.5 7t20.5 17.5t12 23t4 22.5q0 11 -2 23.5
t-5 26.5zM491 259q-1 -46 -8 -91t-36 -85q-33 -43 -76 -65.5t-100 -22.5q-117 0 -189 92q-35 44 -47 88.5t-12 95.5q0 43 15 85t44 75t71.5 53t97.5 20q39 0 81 -15t77 -46t57.5 -77t24.5 -107z" />
    <glyph glyph-name="OE" unicode="&#x152;" horiz-adv-x="1034" 
d="M529 361q0 103 -42 162q-20 29 -41.5 43t-44.5 14q-8 0 -18.5 -2t-23.5 -7l1 1q-76 -29 -119 -92t-43 -156q0 -37 3.5 -72.5t12.5 -67.5t25 -59t41 -47q19 -15 39 -21.5t40 -6.5q48 0 93 53q26 32 44 82t29 118q2 16 3 31t1 27zM1005 78q-30 -6 -82.5 -13.5t-113 -17
t-121.5 -23t-108 -32.5q-21 -15 -50 -31.5t-61 -29.5t-64.5 -21.5t-59.5 -8.5q-51 0 -97.5 15.5t-84.5 42.5q-41 31 -68.5 75.5t-44.5 94.5t-24.5 101t-7.5 96q0 287 262 386h-1q25 10 51 14t52 4q40 0 76 -9.5t69 -26.5q11 0 25 0.5t27 0.5t24 0.5t17 0.5t43.5 2t91 5
t114.5 6.5t115 6.5q11 -29 11.5 -47.5t0.5 -30.5q0 -9 -1 -20.5t-7 -43.5q-61 -5 -88 -6t-35 -2q-33 -2 -81.5 -6t-103.5 -6v-60.5t1 -59.5q22 3 62 7.5t83.5 9t82.5 9.5t59 9q8 -26 11.5 -64.5t-1.5 -77.5q-100 -18 -171 -26t-123 -14l3 -112q23 6 62.5 13.5t84 14.5
t88 13.5t74.5 11.5q5 -18 7.5 -39t3 -42t0 -39t-1.5 -30z" />
    <glyph glyph-name="oe" unicode="&#x153;" horiz-adv-x="752" 
d="M454 295q26 5 50.5 9t50.5 9q-2 22 -3.5 36t-4.5 23q-12 27 -35 29q-18 0 -40 -48q-12 -29 -18 -58zM307 244q0 9 -1 15.5t-3 11.5v-1q-10 30 -31 46q-28 22 -52 22q-14 0 -26 -19q-14 -20 -14 -45q0 -6 0.5 -16.5t1.5 -25.5q5 -38 28 -60q24 -25 41 -28q12 -2 26 8
q8 3 18 20q5 11 8.5 29.5t3.5 42.5zM468 162q17 -47 51.5 -67.5t90.5 -20.5q9 0 35.5 4t67.5 9q-12 -99 -61 -186l-65 12q-32 7 -63.5 16.5t-57.5 23.5l1 -1q-67 36 -104 86q-51 -40 -116 -40q-103 0 -170 87q-62 80 -62 173q0 87 70 156h-1q32 32 72 44.5t88 12.5
q28 0 54 -9.5t50 -26.5q61 107 174 99h-1q210 -14 204 -323z" />
    <glyph glyph-name="Racute" unicode="&#x154;" horiz-adv-x="543" 
d="M674 909q-8 -6 -23.5 -16t-36 -23t-44 -27t-46.5 -28q-55 -33 -120 -70l-61 48q49 40 92 76q18 15 36.5 31t35 30.5t29.5 27t20 20.5q11 -3 31 -14t40 -23q23 -14 47 -32zM295 433q7 7 14.5 16t14 21.5t11 29t4.5 37.5q0 29 -15 44t-41 17h-2q-5 -26 -10 -54t-10 -54.5
t-9.5 -49t-7.5 -36.5v-2q11 5 25 13t26 19v-1zM488 -225q-47 17 -96 49t-97 90q-19 23 -36.5 53.5t-32 61.5t-24.5 59.5t-15 46.5q-6 -30 -11 -62t-9 -61.5t-6 -54t-3 -39.5l-159 39q4 21 13 63t20.5 100t25.5 130.5t28 155.5q2 13 6.5 36.5t9.5 49.5t10 51t7 40l-76 -18
q-1 13 -1 26v27v39t1 33q1 17 2 31q22 5 37.5 7.5t27 4t19 2t15.5 0.5l8 57l172 8l-16 -60q49 -4 87 -20.5t63.5 -43t39 -61.5t13.5 -75q0 -63 -26 -118t-69 -96v1q-26 -25 -56.5 -41.5t-68.5 -24.5q19 -53 43.5 -103.5t55.5 -92.5q36 -49 81 -85.5t98 -67.5z" />
    <glyph glyph-name="racute" unicode="&#x155;" horiz-adv-x="502" 
d="M461 747q-8 -6 -23.5 -16t-36 -23t-44 -27t-46.5 -28q-55 -33 -120 -70l-61 48q49 40 92 76q18 15 36.5 31t35 30.5t29.5 27t20 20.5q11 -3 31 -14t40 -23q23 -14 47 -32zM473 349q1 -12 1 -23v-21.5t1 -20.5q-30 -6 -58 -10q-24 -4 -50.5 -6.5t-44.5 -2.5l3 74
q0 13 -4 24.5t-14 9.5q-9 -2 -17 -5t-16 -9t-18.5 -16.5t-25.5 -27.5l-24 -36q-1 -29 -2.5 -61.5t0.5 -66.5q0 -18 0.5 -30.5t1 -29t2 -42t4.5 -69.5l-184 3l1 80q2 43 4 78.5t3 70.5t1 74t-1 90q0 20 -1 36t-1.5 31.5t-2 32t-3.5 37.5q14 6 42 11.5t56 10.5q33 5 69 10
q1 -17 2 -33t2 -30q1 -16 2 -31q8 7 21.5 20.5t28.5 26.5t29.5 23t26.5 12q39 5 66.5 -5t50.5 -36q11 -11 20 -28.5t15.5 -37.5t10 -40.5t3.5 -36.5z" />
    <glyph glyph-name="uni0156" unicode="&#x156;" horiz-adv-x="543" 
d="M324 -241q0 -36 -7 -66.5t-23.5 -56.5t-44 -48t-68.5 -42l-56 79q15 6 31 17.5t30 25t23 27.5t9 25q0 5 -0.5 10.5t-1.5 10.5q-39 -2 -60.5 19t-21.5 53t20 55.5t58 23.5q34 0 56 -10.5t34.5 -29t17 -42.5t4.5 -51zM295 433q7 7 14.5 16t14 21.5t11 29t4.5 37.5
q0 29 -15 44t-41 17h-2q-5 -26 -10 -54t-10 -54.5t-9.5 -49t-7.5 -36.5v-2q11 5 25 13t26 19v-1zM488 -225q-47 17 -96 49t-97 90q-19 23 -36.5 53.5t-32 61.5t-24.5 59.5t-15 46.5q-6 -30 -11 -62t-9 -61.5t-6 -54t-3 -39.5l-159 39q4 21 13 63t20.5 100t25.5 130.5
t28 155.5q2 13 6.5 36.5t9.5 49.5t10 51t7 40l-76 -18q-1 13 -1 26v27v39t1 33q1 17 2 31q22 5 37.5 7.5t27 4t19 2t15.5 0.5l8 57l172 8l-16 -60q49 -4 87 -20.5t63.5 -43t39 -61.5t13.5 -75q0 -63 -26 -118t-69 -96v1q-26 -25 -56.5 -41.5t-68.5 -24.5q19 -53 43.5 -103.5
t55.5 -92.5q36 -49 81 -85.5t98 -67.5z" />
    <glyph glyph-name="uni0157" unicode="&#x157;" horiz-adv-x="502" 
d="M226 -209q0 -36 -7 -66.5t-23.5 -56.5t-44 -48t-68.5 -42l-56 79q15 6 31 17.5t30 25t23 27.5t9 25q0 5 -0.5 10.5t-1.5 10.5q-39 -2 -60.5 19t-21.5 53t20 55.5t58 23.5q34 0 56 -10.5t34.5 -29t17 -42.5t4.5 -51zM473 349q1 -12 1 -23v-21.5t1 -20.5q-30 -6 -58 -10
q-24 -4 -50.5 -6.5t-44.5 -2.5l3 74q0 13 -4 24.5t-14 9.5q-9 -2 -17 -5t-16 -9t-18.5 -16.5t-25.5 -27.5l-24 -36q-1 -29 -2.5 -61.5t0.5 -66.5q0 -18 0.5 -30.5t1 -29t2 -42t4.5 -69.5l-184 3l1 80q2 43 4 78.5t3 70.5t1 74t-1 90q0 20 -1 36t-1.5 31.5t-2 32t-3.5 37.5
q14 6 42 11.5t56 10.5q33 5 69 10q1 -17 2 -33t2 -30q1 -16 2 -31q8 7 21.5 20.5t28.5 26.5t29.5 23t26.5 12q39 5 66.5 -5t50.5 -36q11 -11 20 -28.5t15.5 -37.5t10 -40.5t3.5 -36.5z" />
    <glyph glyph-name="Rcaron" unicode="&#x158;" horiz-adv-x="594" 
d="M311 439q11 17 21 43t1 68q-6 29 -23.5 40.5t-43.5 7.5h-2q1 -26 1.5 -55t1 -56t0.5 -49.5v-37.5l1 -2q10 8 22 18t21 24v-1zM634 -166q-49 8 -104 28.5t-113 68.5q-24 18 -47 44.5t-43.5 54t-36 53t-24.5 42.5q0 -30 2 -62.5t4 -62t5 -54t5 -39.5l-164 6v64.5v101.5
t-1.5 133t-4.5 158q-1 13 -1 37t-0.5 50.5t-0.5 52t-1 40.5l-71 -33q-4 13 -6.5 25.5t-5.5 26.5q-5 20 -8 38t-5 32q-3 17 -5 31q21 9 35.5 15t25 9.5t18.5 5.5t15 4l160 38q98 12 160 -31.5t79 -122.5q13 -63 -1.5 -122t-47.5 -107l-1 1q-20 -29 -46.5 -51.5t-62.5 -38.5
q29 -48 64 -92.5t73 -79.5q45 -41 97 -67.5t109 -46.5zM360 781l-68 10l-116 167l99 45l68 -111q29 23 60 49t55 45l62 -71z" />
    <glyph glyph-name="rcaron" unicode="&#x159;" horiz-adv-x="502" 
d="M289 595l-69 1l-136 151l92 57l82 -101q25 26 52.5 56t48.5 52l71 -63zM473 349q1 -12 1 -23v-21.5t1 -20.5q-30 -6 -58 -10q-24 -4 -50.5 -6.5t-44.5 -2.5l3 74q0 13 -4 24.5t-14 9.5q-9 -2 -17 -5t-16 -9t-18.5 -16.5t-25.5 -27.5l-24 -36q-1 -29 -2.5 -61.5t0.5 -66.5
q0 -18 0.5 -30.5t1 -29t2 -42t4.5 -69.5l-184 3l1 80q2 43 4 78.5t3 70.5t1 74t-1 90q0 20 -1 36t-1.5 31.5t-2 32t-3.5 37.5q14 6 42 11.5t56 10.5q33 5 69 10q1 -17 2 -33t2 -30q1 -16 2 -31q8 7 21.5 20.5t28.5 26.5t29.5 23t26.5 12q39 5 66.5 -5t50.5 -36
q11 -11 20 -28.5t15.5 -37.5t10 -40.5t3.5 -36.5z" />
    <glyph glyph-name="Sacute" unicode="&#x15a;" horiz-adv-x="542" 
d="M518 944q-8 -6 -23.5 -16t-36 -23t-44 -27t-46.5 -28q-55 -33 -120 -70l-61 48q49 40 92 76q18 15 36.5 31t35 30.5t29.5 27t20 20.5q11 -3 31 -14t40 -23q23 -14 47 -32zM521 169q0 -81 -35 -153l1 1q-29 -62 -94 -111q-59 -44 -137 -44q-82 0 -148 47h1q-9 6 -23.5 24
t-28 44t-23 58.5t-7.5 65.5q0 4 0.5 12t0.5 17t0.5 17.5t0.5 12.5q92 30 168 6l-2 -59q-1 -11 -1 -23t0.5 -22t1 -17.5t0.5 -8.5q3 -8 10 -13t14.5 -8t14.5 -4t10 -1q16 -1 50 34q12 12 19 23.5t16 30.5q5 13 8.5 30.5t3.5 40.5q0 13 -2.5 28t-4.5 18q-11 14 -31 20t-51 11
q-49 7 -94.5 23.5t-74.5 52.5q-17 22 -25 42.5t-11 40.5q-2 14 -2 31v35v16q0 25 2 52.5t7.5 54.5t16 52t28.5 46q35 38 80.5 52t96.5 11q122 -11 161 -59l-1 1q41 -50 45 -109v-106l-167 2v98q-1 6 -1.5 11t-1.5 6q-11 8 -23 10t-19 2q-21 0 -42 -24q-5 -5 -8 -15t-4.5 -23
t-2.5 -27t-1 -27q0 -14 2 -30.5t7 -31.5q10 -35 54 -41q76 -11 128.5 -32t75.5 -50q20 -25 31 -60t11 -81z" />
    <glyph glyph-name="sacute" unicode="&#x15b;" horiz-adv-x="486" 
d="M466 775q-8 -6 -23.5 -16t-36 -23t-44 -27t-46.5 -28q-55 -33 -120 -70l-61 48q49 40 92 76q18 15 36.5 31t35 30.5t29.5 27t20 20.5q11 -3 31 -14t40 -23q23 -14 47 -32zM199 389q2 -15 19 -22.5t46 -17.5q33 -11 68.5 -25.5t64.5 -38t48 -58.5t19 -88q0 -43 -17 -79
t-47 -61.5t-71.5 -40t-90.5 -14.5q-70 0 -112.5 18.5t-65.5 51.5t-30 79t-5 101l169 -12q-10 -32 -7 -52t5 -28q2 -10 12 -19.5t29 -9.5q26 0 44 21.5t18 50.5q0 18 -8 31t-21.5 22t-30.5 16t-35 13q-32 11 -63 24t-55.5 31t-40 43.5t-15.5 63.5q-1 50 20.5 84t55 54.5
t74.5 29.5t80 9q36 0 68.5 -4.5t58 -23t41.5 -57t18 -107.5l-122 -9q-1 20 -6.5 34.5t-13.5 24.5t-17.5 15t-17.5 5q-28 1 -48 -16t-18 -39z" />
    <glyph glyph-name="Scaron" unicode="&#x160;" horiz-adv-x="518" 
d="M274 801l-69 1l-136 151l92 57l82 -101q25 26 52.5 56t48.5 52l71 -63zM495 169q0 -81 -35 -153l1 1q-29 -62 -94 -111q-59 -44 -137 -44q-82 0 -148 47h1q-9 6 -23.5 24t-28 44t-23 58.5t-7.5 65.5q0 4 0.5 12t0.5 17t0.5 17.5t0.5 12.5q92 30 168 6l-2 -59
q-1 -11 -1 -23t0.5 -22t1 -17.5t0.5 -8.5q3 -8 10 -13t14.5 -8t14.5 -4t10 -1q16 -1 50 34q12 12 19 23.5t16 30.5q5 13 8.5 30.5t3.5 40.5q0 13 -2.5 28t-4.5 18q-11 14 -31 20t-51 11q-49 7 -94.5 23.5t-74.5 52.5q-17 22 -25 42.5t-11 40.5q-2 14 -2 31v35v16
q0 25 2 52.5t7.5 54.5t16 52t28.5 46q35 38 80.5 52t96.5 11q122 -11 161 -59l-1 1q41 -50 45 -109v-106l-167 2v98q-1 6 -1.5 11t-1.5 6q-11 8 -23 10t-19 2q-21 0 -42 -24q-5 -5 -8 -15t-4.5 -23t-2.5 -27t-1 -27q0 -14 2 -30.5t7 -31.5q10 -35 54 -41q76 -11 128.5 -32
t75.5 -50q20 -25 31 -60t11 -81z" />
    <glyph glyph-name="scaron" unicode="&#x161;" horiz-adv-x="475" 
d="M249 625l-69 1l-136 151l92 57l82 -101q25 26 52.5 56t48.5 52l71 -63zM175 389q2 -15 19 -22.5t46 -17.5q33 -11 68.5 -25.5t64.5 -38t48 -58.5t19 -88q0 -43 -17 -79t-47 -61.5t-71.5 -40t-90.5 -14.5q-70 0 -112.5 18.5t-65.5 51.5t-30 79t-5 101l169 -12
q-10 -32 -7 -52t5 -28q2 -10 12 -19.5t29 -9.5q26 0 44 21.5t18 50.5q0 18 -8 31t-21.5 22t-30.5 16t-35 13q-32 11 -63 24t-55.5 31t-40 43.5t-15.5 63.5q-1 50 20.5 84t55 54.5t74.5 29.5t80 9q36 0 68.5 -4.5t58 -23t41.5 -57t18 -107.5l-122 -9q-1 20 -6.5 34.5
t-13.5 24.5t-17.5 15t-17.5 5q-28 1 -48 -16t-18 -39z" />
    <glyph glyph-name="Tcaron" unicode="&#x164;" horiz-adv-x="642" 
d="M348 676l-69 1l-136 151l92 57l82 -101q25 26 52.5 56t48.5 52l71 -63zM622 638q3 -10 4 -33t1 -49.5t-1.5 -52.5t-3.5 -41l-95 11l-133 2q-4 -35 -3 -79t0 -97q0 -18 0.5 -37.5t2 -47t3.5 -66t5 -93.5l4 -52q-24 -16 -70 -20t-117 0l-4 69l11 258l8 167q-31 2 -62.5 2
t-68.5 -3l-78 -14q-2 11 -3.5 25t-2 27t-0.5 23.5v16.5q0 2 1.5 11.5t3.5 21.5t4.5 24.5t5.5 21.5l63 -8h46t48 0.5t57.5 0.5t73.5 -1q30 -1 67 0.5t69 3.5l76 4z" />
    <glyph glyph-name="tcaron" unicode="&#x165;" horiz-adv-x="553" 
d="M533 815q-8 -28 -14 -52q-5 -21 -10.5 -41t-8.5 -31q-4 -13 -10.5 -37t-12.5 -49q-8 -29 -16 -62l-116 -5q6 38 12 71q5 29 10.5 56.5t10.5 41.5q3 10 8 32.5t10 45.5q5 27 12 58l134 -3zM376 323h-41.5t-44.5 -1q0 -27 -1 -74.5t-1 -112.5q0 -25 6.5 -46t23.5 -21
q6 1 17.5 13t23 27.5t20.5 29t11 17.5q42 -6 73.5 -21t56.5 -46q-17 -49 -46.5 -85t-65.5 -59.5t-74.5 -35t-72.5 -11.5q-8 0 -18 1t-19 3h1q-115 24 -114 187v47t1 84v87q-24 -2 -46 -3.5t-33 -2.5v153q10 0 21.5 -0.5t22 -1t19.5 -0.5h13v45t2 35q2 47 6.5 110.5
t9.5 132.5q101 11 173 -18l-2 -61l-3 -40q0 -14 -1 -27t-2 -28.5t-2.5 -34t-2.5 -42.5q-1 -9 -1.5 -12.5t-0.5 -7.5v-11.5v-23.5q23 2 50.5 3.5t50.5 3.5l81 5q11 -23 12.5 -45t1.5 -39q0 -5 -0.5 -14.5t-1.5 -20.5t-2 -21t-2 -16z" />
    <glyph glyph-name="Umacron" unicode="&#x16a;" horiz-adv-x="508" 
d="M82 734l-2 97l358 9l1 -97zM484 258q0 -83 -43 -158q-8 -14 -26 -30.5t-47 -34.5l1 1q-25 -17 -47.5 -27t-45.5 -13l2 1q-29 -6 -58.5 1t-59.5 21q-69 35 -92 84v-1q-6 13 -11 52t-9 93t-7.5 117.5t-7.5 124.5l-7 122q42 10 86 13t93 -2l6 -63q1 -6 2 -21.5t1 -35v-41.5
v-42t0.5 -41.5t1 -40.5t1 -33.5t0.5 -21.5q3 -54 5.5 -86t4.5 -38q2 -3 5.5 -6.5l5.5 -5.5q17 -7 18 -7q2 0 9.5 3.5t18.5 8.5q4 2 7 4t5 5v-1q13 20 18.5 41t5.5 43q0 7 -0.5 27.5t-1.5 49t-2 63t-2 69.5q-2 35 -2.5 72t-1.5 60l-1 61q35 8 56.5 11.5t33.5 3.5h9.5t14 -1.5
t22 -4t34.5 -6.5l1 -60q1 -23 1.5 -54.5t1 -66t0.5 -69t0.5 -63.5t0.5 -49.5v-27.5z" />
    <glyph glyph-name="umacron" unicode="&#x16b;" 
d="M103 602l-2 97l358 9l1 -97zM467 -5q-29 -14 -132 -19q-1 11 -3.5 27t-5.5 31t-5.5 26.5t-2.5 13.5q-13 -14 -30.5 -24.5t-36.5 -18t-38.5 -11.5t-35.5 -4q-163 0 -163 199q0 28 2 61.5t6 75.5q1 14 3 33.5t4 40t3.5 40t2.5 33.5q52 0 93.5 -5t73.5 -13q-3 -39 -5 -76
t-4 -67.5t-3 -54t-1 -35.5q0 -67 26 -78q5 0 13 4t16.5 10t16 13t10.5 13q7 15 12.5 30t11.5 46q3 14 3 31t-0.5 34.5t-1 34t-0.5 28.5q26 5 49 8.5t33 3.5q28 0 87 -21q-1 -10 -2 -31.5t-1 -31.5q0 -29 1.5 -65.5t4.5 -64.5q2 -20 5 -45t6.5 -52t7 -54.5t8.5 -52.5z" />
    <glyph glyph-name="Uring" unicode="&#x16e;" horiz-adv-x="508" 
d="M282 813q0 35 -10 54.5t-38 19.5q-19 0 -28 -21.5t-9 -59.5q0 -20 14 -26.5t40 -6.5q18 0 24.5 14.5t6.5 25.5zM379 813q0 -21 -8.5 -42.5t-25 -39t-40 -28.5t-54.5 -11q-21 0 -47 4t-49 16t-38.5 34.5t-15.5 59.5q0 24 4.5 52.5t19 53t40.5 40.5t69 16q38 0 65.5 -11.5
t45 -32t26 -49t8.5 -62.5zM484 258q0 -83 -43 -158q-8 -14 -26 -30.5t-47 -34.5l1 1q-25 -17 -47.5 -27t-45.5 -13l2 1q-29 -6 -58.5 1t-59.5 21q-69 35 -92 84v-1q-6 13 -11 52t-9 93t-7.5 117.5t-7.5 124.5l-7 122q42 10 86 13t93 -2l6 -63q1 -6 2 -21.5t1 -35v-41.5v-42
t0.5 -41.5t1 -40.5t1 -33.5t0.5 -21.5q3 -54 5.5 -86t4.5 -38q2 -3 5.5 -6.5l5.5 -5.5q17 -7 18 -7q2 0 9.5 3.5t18.5 8.5q4 2 7 4t5 5v-1q13 20 18.5 41t5.5 43q0 7 -0.5 27.5t-1.5 49t-2 63t-2 69.5q-2 35 -2.5 72t-1.5 60l-1 61q35 8 56.5 11.5t33.5 3.5h9.5t14 -1.5
t22 -4t34.5 -6.5l1 -60q1 -23 1.5 -54.5t1 -66t0.5 -69t0.5 -63.5t0.5 -49.5v-27.5z" />
    <glyph glyph-name="uring" unicode="&#x16f;" 
d="M299 672q0 35 -10 54.5t-38 19.5q-19 0 -28 -21.5t-9 -59.5q0 -20 14 -26.5t40 -6.5q18 0 24.5 14.5t6.5 25.5zM396 672q0 -21 -8.5 -42.5t-25 -39t-40 -28.5t-54.5 -11q-21 0 -47 4t-49 16t-38.5 34.5t-15.5 59.5q0 24 4.5 52.5t19 53t40.5 40.5t69 16q38 0 65.5 -11.5
t45 -32t26 -49t8.5 -62.5zM467 -5q-29 -14 -132 -19q-1 11 -3.5 27t-5.5 31t-5.5 26.5t-2.5 13.5q-13 -14 -30.5 -24.5t-36.5 -18t-38.5 -11.5t-35.5 -4q-163 0 -163 199q0 28 2 61.5t6 75.5q1 14 3 33.5t4 40t3.5 40t2.5 33.5q52 0 93.5 -5t73.5 -13q-3 -39 -5 -76
t-4 -67.5t-3 -54t-1 -35.5q0 -67 26 -78q5 0 13 4t16.5 10t16 13t10.5 13q7 15 12.5 30t11.5 46q3 14 3 31t-0.5 34.5t-1 34t-0.5 28.5q26 5 49 8.5t33 3.5q28 0 87 -21q-1 -10 -2 -31.5t-1 -31.5q0 -29 1.5 -65.5t4.5 -64.5q2 -20 5 -45t6.5 -52t7 -54.5t8.5 -52.5z" />
    <glyph glyph-name="Uhungarumlaut" unicode="&#x170;" horiz-adv-x="508" 
d="M144 694l-77 36l149 170l127 -19zM320 686l-79 30l155 180l132 -21zM484 258q0 -83 -43 -158q-8 -14 -26 -30.5t-47 -34.5l1 1q-25 -17 -47.5 -27t-45.5 -13l2 1q-29 -6 -58.5 1t-59.5 21q-69 35 -92 84v-1q-6 13 -11 52t-9 93t-7.5 117.5t-7.5 124.5l-7 122q42 10 86 13
t93 -2l6 -63q1 -6 2 -21.5t1 -35v-41.5v-42t0.5 -41.5t1 -40.5t1 -33.5t0.5 -21.5q3 -54 5.5 -86t4.5 -38q2 -3 5.5 -6.5l5.5 -5.5q17 -7 18 -7q2 0 9.5 3.5t18.5 8.5q4 2 7 4t5 5v-1q13 20 18.5 41t5.5 43q0 7 -0.5 27.5t-1.5 49t-2 63t-2 69.5q-2 35 -2.5 72t-1.5 60
l-1 61q35 8 56.5 11.5t33.5 3.5h9.5t14 -1.5t22 -4t34.5 -6.5l1 -60q1 -23 1.5 -54.5t1 -66t0.5 -69t0.5 -63.5t0.5 -49.5v-27.5z" />
    <glyph glyph-name="uhungarumlaut" unicode="&#x171;" 
d="M165 536l-77 36l149 170l127 -19zM341 528l-79 30l155 180l132 -21zM467 -5q-29 -14 -132 -19q-1 11 -3.5 27t-5.5 31t-5.5 26.5t-2.5 13.5q-13 -14 -30.5 -24.5t-36.5 -18t-38.5 -11.5t-35.5 -4q-163 0 -163 199q0 28 2 61.5t6 75.5q1 14 3 33.5t4 40t3.5 40t2.5 33.5
q52 0 93.5 -5t73.5 -13q-3 -39 -5 -76t-4 -67.5t-3 -54t-1 -35.5q0 -67 26 -78q5 0 13 4t16.5 10t16 13t10.5 13q7 15 12.5 30t11.5 46q3 14 3 31t-0.5 34.5t-1 34t-0.5 28.5q26 5 49 8.5t33 3.5q28 0 87 -21q-1 -10 -2 -31.5t-1 -31.5q0 -29 1.5 -65.5t4.5 -64.5
q2 -20 5 -45t6.5 -52t7 -54.5t8.5 -52.5z" />
    <glyph glyph-name="Uogonek" unicode="&#x172;" horiz-adv-x="508" 
d="M436 -84q2 -25 5.5 -48t3.5 -51q0 -6 -0.5 -11.5t-0.5 -11.5q-25 -6 -46 -8t-32 -2q-30 0 -59.5 5.5t-53.5 20t-39.5 40t-17.5 64.5q0 20 7.5 41.5t20.5 41.5q-30 6 -64 22q-69 35 -92 84v-1q-6 13 -11 52t-9 93t-7.5 117.5t-7.5 124.5l-7 122q42 10 86 13t93 -2l6 -63
q1 -6 2 -21.5t1 -35v-41.5v-42t0.5 -41.5t1 -40.5t1 -33.5t0.5 -21.5q3 -54 5.5 -86t4.5 -38q2 -3 5.5 -6.5l5.5 -5.5q17 -7 18 -7q2 0 9.5 3.5t18.5 8.5q4 2 7 4t5 5v-1q13 20 18.5 41t5.5 43q0 7 -0.5 27.5t-1.5 49t-2 63t-2 69.5q-2 35 -2.5 72t-1.5 60l-1 61
q35 8 56.5 11.5t33.5 3.5h9.5t14 -1.5t22 -4t34.5 -6.5l1 -60q1 -23 1.5 -54.5t1 -66t0.5 -69t0.5 -63.5t0.5 -49.5v-27.5q0 -83 -43 -158q-8 -14 -25.5 -30.5t-46.5 -33.5q-33 -27 -44.5 -46t-11.5 -49q0 -11 5 -18t12.5 -11.5t15.5 -6.5t15 -2q6 0 17 1.5t23 3.5t22 4
t13 4z" />
    <glyph glyph-name="uogonek" unicode="&#x173;" 
d="M494 -119q2 -25 5.5 -48t3.5 -51q0 -6 -0.5 -11.5t-0.5 -11.5q-25 -6 -46 -8t-32 -2q-30 0 -59.5 5.5t-53.5 20t-39.5 40t-17.5 64.5q0 18 6 36.5t16 36.5t23.5 33t29.5 26q-4 22 -7.5 41t-3.5 22q-13 -14 -30.5 -24.5t-36.5 -18t-38.5 -11.5t-35.5 -4q-163 0 -163 199
q0 28 2 61.5t6 75.5q1 14 3 33.5t4 40t3.5 40t2.5 33.5q52 0 93.5 -5t73.5 -13q-3 -39 -5 -76t-4 -67.5t-3 -54t-1 -35.5q0 -67 26 -78q5 0 13 4t16.5 10t16 13t10.5 13q7 15 12.5 30t11.5 46q3 14 3 31t-0.5 34.5t-1 34t-0.5 28.5q26 5 49 8.5t33 3.5q28 0 87 -21
q-1 -10 -2 -31.5t-1 -31.5q0 -29 1.5 -65.5t4.5 -64.5q2 -20 5 -45t6.5 -52t7 -54.5t8.5 -52.5l-28 -13q-9 -5 -24.5 -8t-38.5 -6q-20 -18 -26.5 -34.5t-6.5 -40.5q0 -11 5 -18t12.5 -11.5t15.5 -6.5t15 -2q6 0 17 1.5t23 3.5t22 4t13 4z" />
    <glyph glyph-name="Ydieresis" unicode="&#x178;" horiz-adv-x="525" 
d="M234 832q-1 -15 -5 -29.5t-12.5 -26t-22.5 -19t-35 -7.5q-17 0 -30.5 6.5t-22.5 17t-14 23t-5 24.5q0 30 21 52t57 22q32 0 50.5 -17.5t18.5 -45.5zM432 882q8 -11 10.5 -22t2.5 -22q0 -32 -14.5 -55t-53.5 -26q-21 0 -35 6.5t-23 17t-13 23.5t-4 25q0 35 17 55t55 23
q17 0 32 -4t26 -20v-1zM481 595q2 -24 4 -55t3 -65.5t1.5 -70.5t0.5 -69v-43.5t-1 -37.5q-2 -47 -6.5 -90.5t-14.5 -82t-26.5 -71.5t-43.5 -59q-34 -32 -83 -51.5t-100 -19.5q-43 0 -82 13.5t-67 30.5l-35 27l82 128l44 -34q11 -7 27.5 -11t34.5 -4q15 0 30.5 5t28.5 18
q16 16 24 52t13 81q-6 -1 -8.5 -2t-4.5 -1.5t-5.5 -1t-11.5 -0.5q-24 0 -47.5 -0.5t-47 3.5t-46 14t-44.5 30q-24 23 -39.5 63.5t-23.5 87.5t-11 95t-3 87q0 18 1.5 43t5.5 59q17 2 41 1.5t48.5 -2.5t46.5 -6.5t36 -11.5l-7 -56q-2 -8 -3 -20t-1 -26q0 -20 2.5 -50.5
t7 -60.5t12 -54.5t17.5 -33.5q9 -9 17 -14t16.5 -7t18 -2h22.5h5.5h0.5l0.5 0.5t5.5 1.5v28q0 27 -1 67.5t-3.5 86t-5 92t-5.5 84.5q48 15 91.5 18t81.5 -9z" />
    <glyph glyph-name="Zacute" unicode="&#x179;" horiz-adv-x="555" 
d="M525 899q-8 -6 -23.5 -16t-36 -23t-44 -27t-46.5 -28q-55 -33 -120 -70l-61 48q49 40 92 76q18 15 36.5 31t35 30.5t29.5 27t20 20.5q11 -3 31 -14t40 -23q23 -14 47 -32zM523 64q0 -11 -4.5 -37.5t-16.5 -51.5q-40 16 -67.5 19t-37.5 3q-24 0 -45 -1.5t-38 -3.5
q-69 -6 -261 -75l-65 79q15 26 31 56t33 60.5t33 60.5t31 57l33 63q5 9 17 30.5t27 48.5t32 55.5t31 51.5q12 19 17 28t8.5 15t6.5 13.5t11 23.5q-46 2 -89 3.5t-89 1.5q-15 0 -31 -1.5t-31 -4t-26.5 -5.5t-17.5 -6q-4 20 -4.5 45.5t-0.5 41.5q0 17 6 41t17 57l450 -37
l5 -22.5t7 -27t8 -25.5t7 -16l-43 -79q-8 -13 -20.5 -34t-26.5 -46.5t-29.5 -53.5t-30.5 -55q-17 -29 -32.5 -57.5t-29.5 -51.5q-8 -15 -17.5 -35t-23.5 -46l-12 -22q51 9 106 16.5t104 5.5q32 -2 46 -4.5t22 -2.5v-75z" />
    <glyph glyph-name="zacute" unicode="&#x17a;" horiz-adv-x="559" 
d="M488 785q-8 -6 -23.5 -16t-36 -23t-44 -27t-46.5 -28q-55 -33 -120 -70l-61 48q49 40 92 76q18 15 36.5 31t35 30.5t29.5 27t20 20.5q11 -3 31 -14t40 -23q23 -14 47 -32zM539 101q0 -13 -2.5 -36.5t-12.5 -52.5l-76 2q-17 1 -36 0q-24 -1 -55.5 -0.5t-72.5 -4
t-91.5 -17.5t-112.5 -41l-23 64l26 75l23.5 47t35.5 67.5t42 74.5t43 68l4 6q-8 -3 -23 -8t-32 -9.5t-32.5 -8.5t-24.5 -7q-13 -5 -24 -9.5t-19 -9.5q-10 -5 -19 -10l-41 156q13 1 29 5q14 3 31.5 7.5t37.5 12.5q22 7 42.5 12.5t42 11.5t44.5 12t52 14q16 4 39.5 10t47.5 12
t46.5 12.5t37.5 12.5q9 -18 24 -38t20 -28q-8 -24 -14.5 -36.5t-19.5 -30.5l2 2q-14 -20 -30.5 -48t-33.5 -51q-26 -35 -49 -67.5t-39 -61.5q-5 -9 -6.5 -13.5l-3 -9t-3 -11.5t-6.5 -20q28 6 58 10t55 4q4 0 16 0.5t28.5 0.5t35 -0.5t35.5 -1.5z" />
    <glyph glyph-name="Zdotaccent" unicode="&#x17b;" horiz-adv-x="555" 
d="M364 838q0 -12 -6 -24t-16.5 -22.5t-24.5 -17t-30 -6.5q-15 0 -29.5 2.5t-26 10t-18.5 20t-7 33.5q0 18 3 34.5t11 30t22 21.5t35 8q40 0 63.5 -24.5t23.5 -65.5zM523 64q0 -11 -4.5 -37.5t-16.5 -51.5q-40 16 -67.5 19t-37.5 3q-24 0 -45 -1.5t-38 -3.5q-69 -6 -261 -75
l-65 79q15 26 31 56t33 60.5t33 60.5t31 57l33 63q5 9 17 30.5t27 48.5t32 55.5t31 51.5q12 19 17 28t8.5 15t6.5 13.5t11 23.5q-46 2 -89 3.5t-89 1.5q-15 0 -31 -1.5t-31 -4t-26.5 -5.5t-17.5 -6q-4 20 -4.5 45.5t-0.5 41.5q0 17 6 41t17 57l450 -37l5 -22.5t7 -27
t8 -25.5t7 -16l-43 -79q-8 -13 -20.5 -34t-26.5 -46.5t-29.5 -53.5t-30.5 -55q-17 -29 -32.5 -57.5t-29.5 -51.5q-8 -15 -17.5 -35t-23.5 -46l-12 -22q51 9 106 16.5t104 5.5q32 -2 46 -4.5t22 -2.5v-75z" />
    <glyph glyph-name="zdotaccent" unicode="&#x17c;" horiz-adv-x="559" 
d="M321 653q0 -12 -6 -24t-16.5 -22.5t-24.5 -17t-30 -6.5q-15 0 -29.5 2.5t-26 10t-18.5 20t-7 33.5q0 18 3 34.5t11 30t22 21.5t35 8q40 0 63.5 -24.5t23.5 -65.5zM539 101q0 -13 -2.5 -36.5t-12.5 -52.5l-76 2q-17 1 -36 0q-24 -1 -55.5 -0.5t-72.5 -4t-91.5 -17.5
t-112.5 -41l-23 64l26 75l23.5 47t35.5 67.5t42 74.5t43 68l4 6q-8 -3 -23 -8t-32 -9.5t-32.5 -8.5t-24.5 -7q-13 -5 -24 -9.5t-19 -9.5q-10 -5 -19 -10l-41 156q13 1 29 5q14 3 31.5 7.5t37.5 12.5q22 7 42.5 12.5t42 11.5t44.5 12t52 14q16 4 39.5 10t47.5 12t46.5 12.5
t37.5 12.5q9 -18 24 -38t20 -28q-8 -24 -14.5 -36.5t-19.5 -30.5l2 2q-14 -20 -30.5 -48t-33.5 -51q-26 -35 -49 -67.5t-39 -61.5q-5 -9 -6.5 -13.5l-3 -9t-3 -11.5t-6.5 -20q28 6 58 10t55 4q4 0 16 0.5t28.5 0.5t35 -0.5t35.5 -1.5z" />
    <glyph glyph-name="Zcaron" unicode="&#x17d;" horiz-adv-x="570" 
d="M321 757l-69 1l-136 151l92 57l82 -101q25 26 52.5 56t48.5 52l71 -63zM535 64q0 -11 -4.5 -37.5t-16.5 -51.5q-40 16 -67.5 19t-37.5 3q-24 0 -45 -1.5t-38 -3.5q-69 -6 -261 -75l-65 79q15 26 31 56t33 60.5t33 60.5t31 57l33 63q5 9 17 30.5t27 48.5t32 55.5t31 51.5
q12 19 17 28t8.5 15t6.5 13.5t11 23.5q-46 2 -89 3.5t-89 1.5q-15 0 -31 -1.5t-31 -4t-26.5 -5.5t-17.5 -6q-4 20 -4.5 45.5t-0.5 41.5q0 17 6 41t17 57l450 -37l5 -22.5t7 -27t8 -25.5t7 -16l-43 -79q-8 -13 -20.5 -34t-26.5 -46.5t-29.5 -53.5t-30.5 -55
q-17 -29 -32.5 -57.5t-29.5 -51.5q-8 -15 -17.5 -35t-23.5 -46l-12 -22q51 9 106 16.5t104 5.5q32 -2 46 -4.5t22 -2.5v-75z" />
    <glyph glyph-name="zcaron" unicode="&#x17e;" horiz-adv-x="558" 
d="M254 573l-67 -14l-166 116l76 77l103 -81q19 31 38.5 66.5t35.5 61.5l84 -45zM523 101q0 -13 -2.5 -36.5t-12.5 -52.5l-76 2q-17 1 -36 0q-24 -1 -55.5 -0.5t-72.5 -4t-91.5 -17.5t-112.5 -41l-23 64l26 75l23.5 47t35.5 67.5t42 74.5t43 68l4 6q-8 -3 -23 -8t-32 -9.5
t-32.5 -8.5t-24.5 -7q-13 -5 -24 -9.5t-19 -9.5q-10 -5 -19 -10l-41 156q13 1 29 5q14 3 31.5 7.5t37.5 12.5q22 7 42.5 12.5t42 11.5t44.5 12t52 14q16 4 39.5 10t47.5 12t46.5 12.5t37.5 12.5q9 -18 24 -38t20 -28q-8 -24 -14.5 -36.5t-19.5 -30.5l2 2q-14 -20 -30.5 -48
t-33.5 -51q-26 -35 -49 -67.5t-39 -61.5q-5 -9 -6.5 -13.5l-3 -9t-3 -11.5t-6.5 -20q28 6 58 10t55 4q4 0 16 0.5t28.5 0.5t35 -0.5t35.5 -1.5z" />
    <glyph glyph-name="florin" unicode="&#x192;" horiz-adv-x="491" 
d="M351 583q-15 29 -29.5 59.5t-19.5 44.5q-6 -20 -10.5 -44t-4.5 -54q0 -26 4 -79.5t12 -119.5q19 5 39 10.5t37.5 11t31.5 9.5t22 7l29 -152q-23 -8 -61 -19.5t-79 -22.5l6 -44q9 -54 16.5 -114t7.5 -121q0 -14 -1 -26.5t-3 -21.5v3q-5 -36 -21.5 -67t-42.5 -54
q-48 -40 -119 -40q-91 0 -176 84l103 120q62 -62 73 -62q10 0 15 39q1 6 1.5 15t0.5 22q0 30 -1.5 56t-4.5 50.5t-7 48.5t-8 50q-2 6 -3 11.5t-2 12.5l-20 -4l-111 -26l-29 149q11 3 26 7.5t32 8.5t34.5 8t32.5 7q10 2 11 2h2h2l-12 136q-4 44 -5.5 75.5t-1.5 51.5
q0 116 44.5 173.5t122.5 57.5q34 0 70 -12t65 -42t54 -78z" />
    <glyph glyph-name="circumflex" unicode="&#x2c6;" horiz-adv-x="466" 
d="M333 554l-106 117q-21 -28 -45 -58t-42 -53l-96 64l143 163h72l149 -165z" />
    <glyph glyph-name="caron" unicode="&#x2c7;" horiz-adv-x="443" 
d="M254 562l-69 1l-136 151l92 57l82 -101q25 26 52.5 56t48.5 52l71 -63z" />
    <glyph glyph-name="breve" unicode="&#x2d8;" horiz-adv-x="427" 
d="M366 718q2 -16 -3 -42t-20 -51.5t-41 -45t-65 -22.5q-36 -3 -67 11.5t-55.5 36.5t-41 46.5t-22.5 41.5l77 44q4 -10 14.5 -25.5t25 -29.5t31 -24t33.5 -8q11 0 18.5 11t12 26t6 30t0.5 24l95 -9z" />
    <glyph glyph-name="dotaccent" unicode="&#x2d9;" horiz-adv-x="348" 
d="M249 640q0 -12 -6 -24t-16.5 -22.5t-24.5 -17t-30 -6.5q-15 0 -29.5 2.5t-26 10t-18.5 20t-7 33.5q0 18 3 34.5t11 30t22 21.5t35 8q40 0 63.5 -24.5t23.5 -65.5z" />
    <glyph glyph-name="ring" unicode="&#x2da;" horiz-adv-x="348" 
d="M212 672q0 35 -10 54.5t-38 19.5q-19 0 -28 -21.5t-9 -59.5q0 -20 14 -26.5t40 -6.5q18 0 24.5 14.5t6.5 25.5zM309 672q0 -21 -8.5 -42.5t-25 -39t-40 -28.5t-54.5 -11q-21 0 -47 4t-49 16t-38.5 34.5t-15.5 59.5q0 24 4.5 52.5t19 53t40.5 40.5t69 16q38 0 65.5 -11.5
t45 -32t26 -49t8.5 -62.5z" />
    <glyph glyph-name="ogonek" unicode="&#x2db;" horiz-adv-x="428" 
d="M353 -95q2 -25 5.5 -48t3.5 -51q0 -6 -0.5 -11.5t-0.5 -11.5q-25 -6 -46 -8t-32 -2q-30 0 -59.5 5.5t-53.5 20t-39.5 40t-17.5 64.5q0 19 6.5 39t18 38.5t27 34.5t32.5 26l100 -8q-20 -15 -33 -27t-20.5 -23.5t-10.5 -24t-3 -28.5q0 -11 5 -18t12.5 -11.5t15.5 -6.5
t15 -2q6 0 17 1.5t23 3.5t22 4t13 4z" />
    <glyph glyph-name="tilde" unicode="&#x2dc;" horiz-adv-x="505" 
d="M431 675q-3 -23 -17 -45t-35 -48q-15 -17 -35 -25t-41 -8q-26 0 -54 13q-12 8 -18 14.5t-13 14.5q-8 10 -14.5 17t-9.5 7q-18 -3 -27 -26t-17 -48l-63 21q7 28 15.5 53t21.5 43.5t32.5 29.5t48.5 11q20 0 36 -11.5t29 -25.5q8 -9 16 -13.5t13 -5.5q6 -1 14.5 1.5
t15.5 10.5q4 4 10 10.5t12 15.5t9.5 20t2.5 25l75 -16z" />
    <glyph glyph-name="hungarumlaut" unicode="&#x2dd;" horiz-adv-x="457" 
d="M145 549l-77 36l149 170l127 -19zM321 541l-79 30l155 180l132 -21z" />
    <glyph glyph-name="pi" unicode="&#x3c0;" horiz-adv-x="567" 
d="M333 275q-5 31 -26.5 54t-46.5 23q-37 0 -56 -28t-19 -66q0 -39 21 -66.5t55 -27.5q36 0 54.5 25t18.5 62q0 6 -0.5 12t-0.5 12zM500 505q-13 6 -24 11q-10 5 -21 8.5t-18 3.5q-11 0 -23 -2t-21.5 -6.5t-16.5 -12.5t-7 -21q62 -21 102 -79t40 -144q0 -53 -17 -97.5
t-50 -76.5t-82 -50.5t-114 -18.5q-14 0 -27 1t-21 5q-22 -13 -31.5 -26t-9.5 -28q0 -10 7.5 -16t18.5 -9t23.5 -4t22.5 -1q19 0 41.5 8t45.5 18.5t45.5 20.5t43.5 13q14 2 26 3t23 1q27 0 50.5 -8.5t41 -26.5t27 -46.5t9.5 -69.5q0 -44 -19 -83.5t-48 -74.5t-64 -66t-67 -58
q-22 10 -40.5 27t-32.5 36.5t-22.5 40t-11.5 37.5q28 6 53 19t43.5 32t30 43t11.5 52q-20 -3 -45.5 -11.5t-55 -17t-61.5 -15.5t-66 -7q-30 0 -59 7.5t-52 25t-37 44.5t-14 66q0 38 17.5 69.5t43.5 56.5q-33 34 -49.5 72.5t-16.5 92.5q0 102 58 167.5t167 82.5l5 1
q5 28 19 54.5t36 46t51 31.5t64 12q43 0 93 -21z" />
    <glyph glyph-name="endash" unicode="&#x2013;" horiz-adv-x="651" 
d="M568 238q-66 -1 -122 -3q-24 -1 -48.5 -1.5t-46 -1.5t-38 -1.5t-25.5 -0.5q-19 -1 -54.5 -1h-70.5h-138l1 143h136h68t51 1q9 0 28.5 0.5t45 1.5t55 1.5t58.5 1.5q69 2 150 4l5 -142z" />
    <glyph glyph-name="emdash" unicode="&#x2014;" horiz-adv-x="879" 
d="M794 232q-79 -2 -146 -3q-29 -1 -57.5 -1.5t-53 -1t-43.5 -1t-28 -0.5q-14 0 -41 -0.5t-77 -0.5h-128h-192q-3 14 -3 38t1 48q1 28 3 59h196.5h127.5t73.5 0.5t33.5 0.5t30.5 0.5t50 1.5t62.5 1.5t68 1.5q79 2 175 3v-147z" />
    <glyph glyph-name="quoteleft" unicode="&#x2018;" horiz-adv-x="252" 
d="M21 545q1 28 18 65.5t43 75t59 70.5t66 53l67 -84q-12 -6 -30 -24.5t-35.5 -40t-30 -42t-13.5 -29.5v-2q15 -4 26.5 -15t18.5 -25.5t10 -31.5t2 -33q-2 -37 -28.5 -61.5t-71.5 -22.5q-23 1 -42.5 8.5t-33 25t-20.5 45t-5 68.5z" />
    <glyph glyph-name="quoteright" unicode="&#x2019;" horiz-adv-x="250" 
d="M235 717q2 -29 -10 -68t-33.5 -79.5t-50 -78t-58.5 -61.5l-76 74q10 7 26 28t30.5 45t24.5 46t9 31v2q-16 2 -28.5 11t-21 22.5t-13.5 29.5t-6 33q-3 37 20.5 65t68.5 32q23 2 43 -3t36 -20t26 -41.5t13 -67.5z" />
    <glyph glyph-name="quotesinglbase" unicode="&#x201a;" horiz-adv-x="250" 
d="M235 230q2 -29 -10 -68t-33.5 -79.5t-50 -78t-58.5 -61.5l-76 74q10 7 26 28t30.5 45t24.5 46t9 31v2q-16 2 -28.5 11t-21 22.5t-13.5 29.5t-6 33q-3 37 20.5 65t68.5 32q23 2 43 -3t36 -20t26 -41.5t13 -67.5z" />
    <glyph glyph-name="quotedblleft" unicode="&#x201c;" horiz-adv-x="537" 
d="M265 571q1 28 18 65.5t43 75t59 70.5t66 53l67 -84q-12 -6 -30 -24.5t-35.5 -40t-30 -42t-13.5 -29.5v-2q15 -4 26.5 -15t18.5 -25.5t10 -31.5t2 -33q-1 -37 -28 -61.5t-72 -22.5q-23 1 -42.5 8.5t-33 25t-20.5 45t-5 68.5zM21 545q1 28 18 65.5t43 75t59 70.5t66 53
l67 -84q-12 -6 -30 -24.5t-35.5 -40t-30 -42t-13.5 -29.5v-2q15 -4 26.5 -15t18.5 -25.5t10 -31.5t2 -33q-2 -37 -28.5 -61.5t-71.5 -22.5q-23 1 -42.5 8.5t-33 25t-20.5 45t-5 68.5z" />
    <glyph glyph-name="quotedblright" unicode="&#x201d;" horiz-adv-x="479" 
d="M228 614q6 -28 0 -68.5t-21 -84.5t-37.5 -85.5t-48.5 -70.5l-87 61q10 9 22 32t22.5 49t17 49t5.5 32v2q-16 0 -30 7t-24.5 18.5t-18 27t-11.5 31.5q-8 36 11 68t62 43q22 6 43 4.5t39 -14t32.5 -37t23.5 -64.5zM449 692q7 -28 1 -68.5t-21 -84t-37.5 -85t-48.5 -70.5
l-86 60q9 9 21.5 32t23 49.5t17 49.5t4.5 32v2q-16 -1 -30 6t-24.5 18.5t-18 27t-11.5 31.5q-8 36 11.5 68t63.5 43q22 6 42.5 4.5t38 -14t31.5 -37t23 -64.5z" />
    <glyph glyph-name="quotedblbase" unicode="&#x201e;" horiz-adv-x="510" 
d="M477 237q4 -13 4 -33q0 -30 -9 -67.5t-24 -75t-35 -72.5t-42 -60l-87 60q9 9 21 30.5t22 46t17 47.5t7 35v6q-18 0 -34 9t-28 24t-18.5 33.5t-6.5 37.5q0 18 10.5 35t27 30.5t36 21.5t37.5 8q37 0 62.5 -25.5t39.5 -90.5zM228 184q3 -14 3 -32q0 -30 -8.5 -67.5
t-23.5 -75.5t-35 -73.5t-43 -60.5l-87 61q9 9 21 30.5t22 46t17 47.5t7 34v6q-18 0 -34 9.5t-28 24.5t-18.5 33.5t-6.5 37.5q0 18 7.5 35t22 30.5t34.5 21.5t46 8q35 0 62 -25.5t42 -90.5z" />
    <glyph glyph-name="dagger" unicode="&#x2020;" horiz-adv-x="421" 
d="M292 473q-3 -71 -5 -143t-2 -147q0 -19 0.5 -45t1 -53t1.5 -52.5t2 -44.5l-146 9q-2 36 -4 88.5t-4.5 114t-4 129.5t-2.5 136q-32 -2 -66 -4t-54 -3l-8 150l128 7v14q0 19 0.5 43.5t1 49.5t1.5 48t2 39h176l-8 -151v-17.5t-1 -17.5q30 2 62 4t52 3l8 -149z" />
    <glyph glyph-name="daggerdbl" unicode="&#x2021;" horiz-adv-x="477" 
d="M327 140q1 -16 1 -32v-30q0 -12 -0.5 -29t-1 -35.5t-1 -35t-0.5 -26.5l-186 -2q1 12 2 30.5t2 38.5t2 38.5t1 31.5q0 10 0.5 13t0.5 5t0.5 5t0.5 14l-117 -8l-9 144l130 11q1 11 1.5 20.5t-0.5 17.5q1 17 0.5 37t-1.5 45q0 10 -0.5 14l-1 8t-1 10t-0.5 20l-120 -6l-8 145
l128 6v14q0 18 0.5 41.5t1 47.5t1.5 46.5t2 37.5h185q0 -13 -1 -32t-2 -39.5t-2 -40.5t-2 -33v-16t-1 -17q32 2 63 4t51 3l8 -145l-131 -7l-3 -56q1 -12 1.5 -22t1 -22t1 -28.5t1.5 -41.5l121 9l8 -144z" />
    <glyph glyph-name="bullet" unicode="&#x2022;" horiz-adv-x="323" 
d="M275 310q-2 -28 -9.5 -53t-21 -43.5t-33.5 -29t-46 -10.5q-32 0 -76 16q-47 45 -47 112q0 16 7.5 40t21.5 46.5t35.5 38.5t50.5 16q25 0 54.5 -15.5t44.5 -37.5q15 -21 17 -41.5t2 -38.5z" />
    <glyph glyph-name="ellipsis" unicode="&#x2026;" horiz-adv-x="784" 
d="M484 98q3 -16 -4 -35t-20.5 -35.5t-32.5 -27.5t-39 -11q-45 0 -68 26t-23 60t25.5 59t67.5 25q35 0 61.5 -16t32.5 -45zM755 128q4 -15 -3 -34t-20.5 -35.5t-32.5 -27.5t-40 -11q-45 0 -68 25.5t-23 60.5t25 59.5t67 24.5q34 0 61 -15.5t34 -45.5v-1zM215 137
q3 -16 -4 -35.5t-21 -36t-33 -28t-39 -11.5q-45 0 -68 26t-23 61t25.5 60t67.5 25q35 0 62 -16.5t33 -45.5v1z" />
    <glyph glyph-name="perthousand" unicode="&#x2030;" horiz-adv-x="851" 
d="M750 281q31 -13 44.5 -35.5t13.5 -48.5q0 -31 -17.5 -61.5t-48.5 -45.5q-8 -3 -24 -7t-33 -4q-26 0 -49 9t-35 35q-5 10 -8 22.5t-3 25.5q0 20 6.5 39.5t17.5 33.5q17 21 42 32t53 11q11 0 21 -1t21 -5h-1zM555 211q0 -23 -6 -40.5t-14 -29.5q-9 -14 -19 -24
q-8 -4 -26 -8.5t-37 -4.5q-20 0 -37 7v-1q-7 3 -17.5 10t-21 17.5t-18 23t-7.5 27.5q0 10 6.5 26t19.5 32t31 28.5t41 16.5q29 2 48.5 -7.5t32 -23.5t18 -28.5t6.5 -20.5zM173 559q32 -13 45.5 -35.5t13.5 -48.5q0 -31 -18 -61.5t-49 -45.5q-8 -3 -24 -7t-33 -4q-26 0 -49 9
t-34 35q-5 10 -8.5 22.5t-3.5 25.5q0 20 7 39.5t17 33.5q17 21 42 32t53 11q11 0 21.5 -1t20.5 -5h-1zM485 515q-34 -49 -66 -94q-14 -19 -28 -39.5t-27 -39.5t-24 -36t-19 -30q-17 -28 -44.5 -70.5t-53.5 -84.5q-31 -48 -64 -100l-88 61q33 49 63 95q26 39 51.5 80.5
t41.5 68.5q8 13 20.5 32t27 40.5t30.5 44.5t31 45q36 51 77 108l89 -61z" />
    <glyph glyph-name="guilsinglleft" unicode="&#x2039;" horiz-adv-x="486" 
d="M356 0l-307 209l-5 77l290 241l84 -114l-180 -157q24 -17 50 -35.5l52 -37t50.5 -36l45.5 -32.5z" />
    <glyph glyph-name="guilsinglright" unicode="&#x203a;" horiz-adv-x="453" 
d="M129 -8l-81 110l173 151q-23 16 -47.5 34t-49.5 36t-48.5 35t-44.5 32l76 110l284 -204l11 -78z" />
    <glyph glyph-name="fraction" unicode="&#x2044;" horiz-adv-x="627" 
d="M586 624q-39 -52 -77 -100q-16 -21 -33.5 -43t-34.5 -44t-33 -42.5t-29 -36.5q-12 -15 -31 -41t-41.5 -59t-46.5 -69.5t-48 -72.5q-55 -84 -118 -181l-85 69q59 91 113 172q23 34 47 70t47 68.5t43 60.5t35 46q13 16 29.5 38t35 46.5t37.5 50t37 49.5q41 56 86 118
q35 -25 54.5 -39.5t32.5 -32.5z" />
    <glyph glyph-name="uni2070" unicode="&#x2070;" horiz-adv-x="429" 
d="M307 457q0 12 -8.5 31.5t-20.5 40t-26 38t-25 26.5q-6 6 -11 8t-10 2q-14 0 -22 -0.5t-14 -2t-10 -4t-9 -7.5q-8 -8 -20 -37t-17 -64q-2 -15 -2.5 -29.5t0 -27t2 -21t3.5 -9.5q3 -5 7.5 -9t12 -8.5t19.5 -9t31 -9.5h-1q23 -5 38 -5q34 0 48 16q16 14 25.5 38t9.5 43z
M410 457q0 -41 -14 -76.5t-39 -61.5t-60 -41t-78 -15q-29 0 -56 6q-55 14 -89.5 36t-44.5 45q-19 46 -19 103q0 28 4.5 58t14 57.5t23.5 51.5t33 41q12 10 24 17t25.5 11t31 6t40.5 2q32 0 55.5 -11t40.5 -25t36 -39.5t35 -55t26.5 -58.5t10.5 -51z" />
    <glyph glyph-name="uni2074" unicode="&#x2074;" horiz-adv-x="412" 
d="M385 398q-15 1 -28 1h-23t-19 -1q2 -44 3.5 -71.5t2.5 -44.5l-95 -4q1 0 -1.5 20.5t-2.5 42.5v15q0 6 -0.5 8t-1 4.5t-1 6.5t-0.5 14q-11 0 -23.5 -0.5t-25.5 -0.5h-24h-17q-11 0 -32 0.5t-49 0.5q-4 11 -6.5 15.5t-5 8t-6.5 8.5t-10 16l19 74q1 1 3.5 14t5.5 29.5
t5.5 32t3.5 21.5q5 28 7.5 51t4.5 49q1 0 9.5 1t22 1t30 -2t34.5 -7q-1 -8 -5 -36.5t-8.5 -62t-9.5 -65.5t-9 -48l1 1q-2 -5 -2 -13t-2 -10h20h35t35 1q0 8 -1 28t-2.5 44.5t-2.5 51.5t-1 50q0 16 1 34t4 40q29 -1 48 -3.5t45 -7.5l-2 -32q-1 -14 -1 -28.5v-25.5t0.5 -30
t1 -40t1 -40.5t0.5 -29.5q5 1 18.5 1.5t27.5 1.5q16 1 35 1z" />
    <glyph glyph-name="uni2075" unicode="&#x2075;" horiz-adv-x="346" 
d="M254 263l-1 -1zM318 385q-2 -12 -5 -25.5t-7 -24.5q-4 -13 -9 -26q-6 -10 -13.5 -18t-14.5 -15q-8 -8 -16 -14q-19 -12 -40 -17t-42 -5q-32 0 -67 12.5t-65 36.5l54 85q7 -7 13 -12q5 -5 10.5 -8.5t8.5 -5.5q8 -5 20.5 -8t25.5 -3h15.5t8.5 2q29 15 29 63q0 30 -26 40.5
t-71 11.5q-18 0 -27.5 -0.5t-15.5 -2t-11 -3t-15 -1.5l-5.5 22t-7.5 29t-8 29t-5 22q-1 7 -2 20.5t-1.5 28.5t-0.5 29v23q0 11 1 23.5t3 27.5q29 -5 62 -2t64 10q20 5 47 7.5t70 12.5l18 -89q-19 -6 -37 -11q-16 -5 -33 -9t-29 -5l-31 -3l-19 -3q-7 -1 -6 -1t-8 -1v-12
v-19.5t0.5 -19.5t1.5 -12q11 0 21.5 0.5t18.5 0.5q10 0 22.5 -2.5t25 -6.5t24 -8.5t19.5 -8.5q26 -14 41.5 -41t15.5 -65q0 -8 -0.5 -14t-1.5 -14z" />
    <glyph glyph-name="uni2076" unicode="&#x2076;" horiz-adv-x="324" 
d="M178 376q7 0 14.5 5.5t13 13.5t7.5 17.5t-4 17.5q-11 4 -21 1t-16 -11t-8 -19.5t4 -23.5q4 -1 10 -1zM305 426q0 -24 -9.5 -49.5t-27 -46t-42 -34t-54.5 -13.5q-36 0 -64 14t-48 37t-30.5 51.5t-10.5 57.5q0 45 13.5 92.5t39.5 90.5t64 75.5t88 47.5l32 -86
q-29 -8 -54.5 -27t-45 -46t-31.5 -59t-14 -64q17 22 41 36.5t57 14.5q48 0 72 -26t24 -66z" />
    <glyph glyph-name="uni2077" unicode="&#x2077;" horiz-adv-x="297" 
d="M177 295l-101 22q18 63 35 123q7 25 14.5 52.5t14.5 54t13 50.5t11 43q-3 0 -6.5 0.5t-5.5 0.5l-76 3l-71 3l16 95l78 -1l166 -16l14 -56q-5 -10 -10 -21q-5 -10 -9.5 -23t-8.5 -28z" />
    <glyph glyph-name="uni2078" unicode="&#x2078;" horiz-adv-x="347" 
d="M168 631q0 5 -0.5 9.5t-0.5 8.5q-6 6 -16.5 13.5t-18.5 7.5q-7 0 -13.5 -5.5t-11 -13t-7.5 -17t-3 -16.5q0 -12 10.5 -21.5t30.5 -9.5q12 0 21 13.5t9 30.5zM220 493l4 -2q-16 10 -27 10q-19 0 -36 -8.5t-29.5 -22t-19.5 -29.5t-7 -31q0 -17 12.5 -30.5t34.5 -13.5
q17 0 36 5.5t42 18.5h-1q12 8 15.5 27t3.5 34t-1 17zM349 463q0 -15 -2.5 -35t-10 -40t-21.5 -39t-36 -34q-13 -9 -30 -17t-35.5 -14t-38 -9.5t-37.5 -3.5q-38 0 -64 15t-42 37t-23.5 47t-7.5 44q0 32 14.5 56.5t41.5 49.5q-37 19 -50.5 46t-13.5 49t10.5 48.5t29 48.5
t44.5 37t57 15q38 0 64 -23q40 -16 58 -41.5t18 -60.5q0 -15 -3 -31t-11 -32q30 -11 54 -34t32 -46z" />
    <glyph glyph-name="uni2079" unicode="&#x2079;" horiz-adv-x="343" 
d="M211 577q-1 0 2 5t5 7l-10 21q-13 21 -35 21q-24 0 -42 -18q-19 -18 -19 -36q0 -11 9.5 -21t22.5 -10q26 0 67 29l-3 -1zM294 662q17 -30 25 -62t8 -66q0 -41 -12 -82t-32 -79.5t-47.5 -71t-58.5 -55.5l-58 78q27 18 44 35.5t28 36.5t16.5 40t8.5 44q-28 -14 -63 -17
q-12 -1 -30 1.5t-37 8.5t-36.5 17t-28.5 28q-5 10 -9.5 24.5t-4.5 25.5q0 25 11 52t28 47h-1q25 27 59.5 43.5t72.5 15.5q35 -1 67 -15.5t50 -49.5v1z" />
    <glyph glyph-name="uni2080" unicode="&#x2080;" horiz-adv-x="429" 
d="M307 172q0 12 -8.5 31.5t-20.5 40t-26 38t-25 26.5q-6 6 -11 8t-10 2q-14 0 -22 -0.5t-14 -2t-10 -4t-9 -7.5q-8 -8 -20 -37t-17 -64q-2 -15 -2.5 -29.5t0 -27t2 -21t3.5 -9.5q3 -5 7.5 -9t12 -8.5t19.5 -9t31 -9.5h-1q23 -5 38 -5q34 0 48 16q16 14 25.5 38t9.5 43z
M410 172q0 -41 -14 -76.5t-39 -61.5t-60 -41t-78 -15q-29 0 -56 6q-55 14 -89.5 36t-44.5 45q-19 46 -19 103q0 28 4.5 58t14 57.5t23.5 51.5t33 41q12 10 24 17t25.5 11t31 6t40.5 2q32 0 55.5 -11t40.5 -25t36 -39.5t35 -55t26.5 -58.5t10.5 -51z" />
    <glyph glyph-name="uni2081" unicode="&#x2081;" horiz-adv-x="279" 
d="M60 -24l-2 91l37 4q-1 13 -1.5 28t-0.5 29v26v20q-2 25 1.5 47.5t3.5 45.5q0 5 0.5 9t0.5 9q-1 -1 -6 -4.5t-10.5 -7.5t-10 -7.5t-5.5 -4.5l-54 61q8 9 23 26.5t31.5 37t32.5 38.5t28 31q15 5 37.5 2l37.5 -5v-27q0 -12 0.5 -25.5t0.5 -25.5q0 -17 -0.5 -35.5t-1.5 -32.5
q-2 -35 -2 -75.5v-77.5v-75l37 6l1 -96z" />
    <glyph glyph-name="uni2082" unicode="&#x2082;" horiz-adv-x="405" 
d="M371 -2q-9 2 -17 3q-7 1 -14 1.5t-9 1.5q-15 1 -41 -2.5t-56 -10t-61 -14.5t-58 -15l-24 -6l-31 -7l-59 62q27 29 51 54q20 21 38.5 41.5t26.5 28.5q19 19 39 43t37 50q12 22 19.5 47t9.5 46q1 7 -9 13t-24 10h1q-7 2 -13.5 3t-9.5 1q-19 0 -23 -4q-5 -3 -11 -9
t-12.5 -13.5t-11.5 -14t-8 -10.5q-1 -1 -3 -4.5t-5 -8.5q-4 -5 -7 -13l-69 59q2 9 6 18q3 8 6.5 15.5t8.5 12.5q14 15 29 28.5t31 22.5q21 12 45.5 14.5t58.5 1.5q25 -2 48 -13.5t40.5 -28.5t28 -39.5t9.5 -46.5q-2 -30 -15 -63.5t-30 -62.5q-14 -25 -37 -54t-45 -54
q10 2 15 4h3q16 6 31 11t35 8q10 2 22 3t23 1q10 0 25.5 -2.5t35.5 -6.5z" />
    <glyph glyph-name="uni2083" unicode="&#x2083;" horiz-adv-x="435" 
d="M404 42q-23 -54 -78.5 -81t-121.5 -27q-40 0 -80.5 12t-69.5 33v-1q-23 16 -57 52l75 61l29 -23q12 -13 29 -24.5t31 -13.5q7 -1 16 -1.5t17 -0.5q16 0 34 2.5t34 8t28 15t18 23.5q9 24 9 41q0 16 -7.5 27t-14.5 17q-12 3 -33 4t-37 1q-6 0 -13 -0.5t-12 -0.5h-19l-30 54
q17 20 32 38q13 15 24.5 28.5t14.5 18.5l3 3q-39 2 -82.5 2h-78.5v93h146q11 -1 33.5 -1.5t46.5 -2.5q27 -2 60 -4l32 -62q-25 -22 -45.5 -41.5t-35.5 -35.5q20 -3 38 -8t29 -15q7 -8 16 -18.5t17 -24.5t14 -32.5t6 -40.5q0 -33 -16 -75h-1z" />
    <glyph glyph-name="uni2084" unicode="&#x2084;" horiz-adv-x="424" 
d="M392 146q-10 0 -19 1q-8 0 -16.5 0.5t-15.5 -0.5l6 -206l-103 -6l-0.5 13.5t-1.5 33.5t-2 43.5t-1 43.5q0 14 -1 28.5t-1 38.5q-12 0 -26 -0.5t-27.5 -0.5h-25.5h-19q-13 0 -22 0.5l-18 1t-20 0.5t-29 -1q-3 13 -5.5 18.5t-5 9.5t-6.5 9.5t-11 19.5q8 34 13 56t8 35.5
t4 21.5t2 15q6 33 15.5 66t20.5 65q1 0 27.5 -1t65.5 -12q-1 -10 -5 -33t-9 -50t-11 -54.5t-10 -45.5q0 -5 -1 -11t-1 -10v-1h1q0 -1 -2 -4h22h37.5t38.5 1q0 19 -4 51t-4 86q0 20 1 41t4 47q16 -1 28.5 -2t23.5 -2.5t22.5 -3.5t25.5 -5q-1 -20 -2 -38q-1 -16 -1 -33.5
v-30.5q0 -26 1 -55.5t3 -55.5q6 2 15.5 2h18.5q11 0 23 -1z" />
    <glyph glyph-name="uni2085" unicode="&#x2085;" horiz-adv-x="338" 
d="M314 121q-3 -47 -16.5 -69.5t-26.5 -32.5q-9 -7 -22.5 -14.5t-28 -14t-29 -10.5t-24.5 -4q-32 0 -67 12.5t-65 36.5l54 85q11 -11 30 -24t48 -13q12 0 17.5 1t8 2t3.5 2.5t5 3.5q5 4 9.5 10t8.5 26q0 6 0.5 10.5t0.5 9.5q0 23 -14.5 33t-39 12t-56 -1t-65.5 -6
q-8 39 -15.5 87t-7.5 85q0 11 1.5 23.5t3.5 27.5h10.5h21t22.5 0.5t15 0.5h-1q17 3 32 4t34 3.5t44.5 6.5t63.5 13l18 -89q-6 -4 -27 -7t-47 -5t-51.5 -3.5t-40.5 -2.5q0 -3 -0.5 -10.5t-1 -15.5t-1 -15.5t0.5 -10.5q11 0 26 6.5t23 6.5q28 0 54.5 -8t47.5 -24.5t33.5 -41.5
t12.5 -58q0 -8 -0.5 -14t-1.5 -14z" />
    <glyph glyph-name="uni2086" unicode="&#x2086;" horiz-adv-x="326" 
d="M176 68q23 2 38.5 19.5t11.5 42.5q-14 4 -29 0.5t-27.5 -10.5t-22 -16t-10.5 -16q1 0 4 -3.5t8 -7.5t11.5 -7t15.5 -2zM310 124q0 -24 -9.5 -49.5t-27 -46t-42 -34t-54.5 -13.5q-36 0 -64 14t-48 37t-30.5 51.5t-10.5 57.5q0 45 13.5 92.5t39.5 90.5t64 75.5t88 47.5
l31 -86q-29 -8 -54.5 -27t-45 -46t-31 -59t-13.5 -64q17 22 41 36.5t57 14.5q48 0 72 -26t24 -66z" />
    <glyph glyph-name="uni2087" unicode="&#x2087;" horiz-adv-x="297" 
d="M177 -18l-89 27q15 64 30 124q6 25 12.5 52t13 52.5t12 48.5t9.5 40h-2q-8 2 -11 2l-76 3l-71 3l16 94l78 -1l166 -16l14 -56q-5 -10 -10 -21q-5 -10 -9.5 -22.5t-8.5 -27.5z" />
    <glyph glyph-name="uni2088" unicode="&#x2088;" horiz-adv-x="384" 
d="M189 317v9.5t-1 9.5q-7 6 -18 13t-17 7q-7 0 -13.5 -5t-11 -13t-7.5 -17t-3 -17q0 -12 10.5 -21.5t30.5 -9.5q12 0 21 13.5t9 30.5zM242 179q-16 8 -24 8q-19 0 -36 -8.5t-29.5 -22t-19.5 -29t-7 -30.5q0 -17 12.5 -31t34.5 -14q16 0 35.5 5.5t42.5 19.5h-1
q12 8 15.5 26.5t3.5 34.5q0 14 -1 17zM367 184q1 -4 2 -12t1 -23t-2.5 -35t-10 -40t-21.5 -39t-36 -34q-13 -9 -30 -17t-35.5 -14t-38 -9.5t-37.5 -3.5q-38 0 -64 15t-42 37.5t-23.5 47t-7.5 44.5q0 29 16 55.5t40 49.5q-37 20 -50.5 47t-13.5 48q0 22 10.5 48.5t29 48.5
t44.5 37t57 15q38 0 64 -23q40 -16 58 -41t18 -60q0 -16 -3 -32t-11 -31q30 -11 53.5 -33t31.5 -44z" />
    <glyph glyph-name="uni2089" unicode="&#x2089;" horiz-adv-x="343" 
d="M216 292q-1 0 2 5t5 7l-10 21q-13 21 -35 21q-24 0 -42 -18q-19 -18 -19 -36q0 -11 9.5 -21t22.5 -10q26 0 67 29l-3 -1zM299 377q17 -30 25 -62t8 -66q0 -41 -12 -82t-32 -79.5t-47.5 -71t-58.5 -55.5l-58 78q27 18 44 35.5t28 36.5t16.5 40t8.5 44q-28 -14 -63 -17
q-12 -1 -30 1.5t-37 8.5t-36.5 17t-28.5 28q-5 10 -9.5 24.5t-4.5 25.5q0 25 11 52t28 47h-1q25 27 59.5 43.5t72.5 15.5q35 -1 67 -15.5t50 -49.5v1z" />
    <glyph glyph-name="Euro" unicode="&#x20ac;" horiz-adv-x="797" 
d="M676 504q-37 35 -71 51.5t-62 14.5q-11 -1 -30.5 -4.5t-33.5 -8.5q-41 -15 -74 -42t-49 -57q36 2 76 5.5t74 7.5q40 4 78 10l-27 -120q-43 -2 -85 -4q-36 -2 -77 -4t-76 -3q-3 -12 -5 -24q-2 -11 -2.5 -24t1.5 -25q34 1 73.5 3t75.5 4t65 4t42 4q-8 -22 -12.5 -36.5
t-8 -25t-5.5 -19t-5 -18.5q-14 -2 -38.5 -3t-53 -2t-57.5 -2.5t-51 -2.5q8 -20 26 -40t35 -30q11 -6 25.5 -10t29.5 -5.5t29.5 -2t25.5 0.5q58 5 147 98l124 -112q-24 -29 -56.5 -53t-68.5 -42t-73.5 -29t-72.5 -14q-27 -2 -56 1t-58 9t-55.5 14.5t-47.5 19.5
q-55 29 -95 79.5t-55 108.5q-44 -2 -83.5 -4.5t-56.5 -4.5l25 96q17 2 42 4t60 3q-2 11 -1 24t3 24q2 13 5 27q-19 0 -37.5 0.5t-34.5 0.5q-18 0 -35 1l41 107l30 -4q13 -2 26 -2t23 2q26 77 92.5 142t165.5 103q23 9 51 14.5t56 7.5q72 4 136.5 -19.5t135.5 -82.5z" />
    <glyph glyph-name="trademark" unicode="&#x2122;" horiz-adv-x="884" 
d="M710 281q-3 20 -3.5 39t-2 39t-4.5 42t-9 49q-7 -15 -15 -36.5t-16 -45.5t-15.5 -48t-13.5 -43l-51 -12q-4 5 -14.5 23.5t-22.5 40.5t-23 40.5t-14 23.5q-3 -17 -5 -40t-4.5 -46t-4 -44.5t-2.5 -36.5l-152 16q2 26 6.5 66t10.5 85.5t14 93t16 89.5l-106 -1q1 -36 2.5 -76
t2.5 -79.5t2 -78t2 -72.5l-152 -2l-9 302l-97 -2l-2 140l396 10l1 -66l95 -8q7 -15 12.5 -30t12.5 -31t16.5 -34t24.5 -39q20 47 37.5 96.5t28.5 84.5l119 39q12 -39 26 -97.5t26.5 -120.5t22 -119t14.5 -93z" />
    <glyph glyph-name="Omega" unicode="&#x2126;" horiz-adv-x="690" 
d="M251 395q15 4 35 17.5t38 35t31 49t15 59.5q-1 3 -11 6t-23 5t-25 3t-18 1q-20 0 -39.5 -3t-39.5 -5q-2 -44 -4.5 -86.5t-4.5 -86.5q13 1 24.5 2t21.5 3zM586 18q7 -11 17 -22.5t22 -22t25.5 -18.5t27.5 -12l-61 -134q-26 2 -47.5 14t-39.5 28.5t-33 35.5t-27 36
q-14 -12 -32 -26.5t-36.5 -29t-35.5 -28t-29 -22.5l-44 66l-33 56q32 26 62.5 50.5t62.5 50.5l-25 33q-35 48 -66 90.5t-70 87.5q-2 0 -4.5 -0.5t-4.5 -0.5q-3 -1 -6 -1h-1h-2v-17q0 -18 -0.5 -36t-0.5 -36q0 -37 2.5 -83t9.5 -104l-172 17q8 94 12.5 178t4.5 159
q0 35 1 72.5t2 75.5q1 36 1.5 72t0.5 72v66q60 9 117 15.5t107 6.5q27 0 67.5 -5.5t78.5 -21t65 -43.5t27 -73q0 -23 -6.5 -55.5t-19.5 -55.5v1q-27 -52 -54.5 -89t-74.5 -65q29 -36 58 -74t56 -75q3 -3 6.5 -8t6.5 -8l110 93l86 -119z" />
    <glyph glyph-name="estimated" unicode="&#x212e;" horiz-adv-x="910" 
d="M653 402q0 65 -1 115q0 21 -0.5 41.5t-1 37t-0.5 26.5v10q-26 28 -50.5 43.5t-49 23.5t-51.5 10.5t-58 3.5q-32 0 -61.5 -3t-57 -12t-53 -26t-48.5 -46v-224h432zM728 116q-1 0 2.5 -5t8 -11t8 -11.5l3.5 -5.5q-24 -16 -53 -31t-65 -27t-80.5 -19t-100.5 -7
q-71 0 -142 23.5t-127.5 70.5t-91.5 117t-35 162q0 97 34 168.5t89 119t124 71t139 23.5q76 0 135 -21.5t101.5 -58.5t69 -85.5t38.5 -102.5q7 -21 10 -48.5t3 -54.5v-18h-574v-246q21 -15 43 -29.5t48.5 -25t60 -17t77.5 -6.5q51 0 92.5 6.5t75.5 17t60.5 24t46.5 27.5z
" />
    <glyph glyph-name="onethird" unicode="&#x2153;" horiz-adv-x="869" 
d="M827 20q-11 -27 -30 -47t-44.5 -33.5t-55.5 -20.5t-61 -7q-39 0 -77 11.5t-64 32.5h2q-7 5 -7.5 5.5l-1 1t-2.5 3.5t-12 14l53 99l21 -18q15 -15 37.5 -23.5t40.5 -8.5q23 0 46 8.5t29 28.5q3 8 5 15t2 14q0 12 -5 19t-13 10t-17.5 3.5t-18.5 0.5q-6 0 -21.5 -1t-32.5 -6
l-35 66q18 14 35 26q14 11 28.5 22.5t22.5 21.5q-17 0 -39.5 -1t-45 -2.5t-42.5 -3t-31 -1.5v119h148q9 -1 31 -1.5t45 -2.5q26 -2 58 -4l37 -74q-9 -8 -22.5 -16.5t-28 -16.5t-27 -16t-18.5 -15q10 0 23 -2.5t25 -6.5t21 -8.5t12 -7.5q9 -8 17 -17t14.5 -21t10.5 -27.5
t4 -37.5q0 -28 -16 -73v-1zM653 624q-39 -52 -77 -100q-16 -21 -33.5 -43t-34.5 -44t-33 -42.5t-29 -36.5q-12 -15 -31 -41t-41.5 -59t-46.5 -69.5t-48 -72.5q-55 -84 -118 -181l-86 69q59 91 113 172q23 34 47 70t47 68.5t43 60.5t35 46q13 16 29.5 38t35 46.5t37.5 50
t37 49.5q41 56 86 118q35 -25 55 -39.5t33 -32.5zM48 260q1 9 2 20.5t1.5 23.5t1 22t0.5 15q0 12 0.5 38t1 55.5t0.5 56.5v41q1 19 0 45t-2.5 51.5t-3 47t0.5 32.5q13 0 34.5 1t43.5 1.5t42 0.5t31 -2q0 -17 1 -34q0 -14 0.5 -30t0.5 -27q0 -17 -0.5 -35t-1.5 -30
q0 -18 -0.5 -49.5t-0.5 -68v-73.5v-65l3 -29z" />
    <glyph glyph-name="twothirds" unicode="&#x2154;" horiz-adv-x="964" 
d="M384 326q14 22 27 39.5t23 30.5q14 18 33.5 41t41 49.5t45 54t45.5 53.5q52 62 108 128q2 -2 8 -6l12 -8l12 -8t8 -5h-2q14 -8 26.5 -17t17.5 -23l-6 -21q-33 -37 -67 -76q-29 -33 -63.5 -73t-65.5 -77h148q11 -1 34 -1.5t47 -2.5q28 -2 61 -3l32 -64q-20 -18 -38 -35
t-35 -36q17 -4 33 -10.5t27 -15.5v1q7 -8 16 -18.5t16.5 -24t12.5 -30t5 -37.5q0 -14 -4 -31.5t-14 -40.5h1q-11 -27 -31 -47t-46.5 -33.5t-57.5 -20t-63 -6.5q-42 0 -82 12t-69 33l1 -1q-11 8 -25.5 21.5t-32.5 33.5l82 66l38 -31q11 -11 24 -20t24 -11q6 -1 15 -1.5
t15 -0.5q14 0 29 2t28.5 6.5t24 13t15.5 20.5q9 22 9 37q0 14 -5.5 23t-10.5 14q-11 3 -29 4t-32 1q-6 0 -12 -0.5t-11 -0.5h-28l-29 56l24 30q10 12 21 25.5t19 23.5q-37 1 -77 1h-71v98l-63 -77q-13 -15 -31 -39.5t-38.5 -54.5t-43 -63t-43.5 -65q-50 -76 -105 -162
l-74 72q26 42 54 88q24 38 53 85t58 91l-16 2t-11 2h1q-15 1 -39 -2t-52 -9t-57 -13.5t-54 -14.5q-3 -1 -6.5 -2.5t-8.5 -2.5l-43 -8l-61 65q27 28 50 52q20 20 38 40t25 28q17 17 35.5 39.5t34.5 49.5q11 18 18 41t9 43q-2 5 -9 10t-15 7v-1q-7 2 -12 3t-6 1q-14 0 -21 -6
q-3 -2 -8 -7t-10.5 -11.5t-10 -12.5t-6.5 -9q1 1 -1.5 -4t-6.5 -11q-4 -7 -10 -17l-87 65l10 18q5 8 10 16.5t12 15.5h-1q13 14 27.5 26.5t32.5 22.5q21 11 45 14t59 1q25 -2 48.5 -12.5t41.5 -28t28 -39.5t9 -46q-2 -30 -13.5 -61t-28.5 -62q-11 -17 -28.5 -39.5
t-36.5 -45.5q31 10 56 14q10 2 21.5 2.5t22.5 0.5q19 0 36 -3h8t10.5 -0.5t9.5 -0.5h5z" />
    <glyph glyph-name="partialdiff" unicode="&#x2202;" horiz-adv-x="528" 
d="M337 276q0 10 -1 17t-3 12q-3 15 -13.5 28.5t-25 24t-30 17t-27.5 6.5q-18 0 -29 -12.5t-17 -29.5t-8 -36t-1 -32q2 -20 14 -41t26 -35q26 -28 49 -31q14 -2 29 6.5t23 23.5q14 22 14 82zM501 377q3 -36 3 -75q0 -54 -12.5 -106t-47.5 -103q-32 -46 -77.5 -69t-99.5 -23
q-55 0 -101.5 24.5t-83.5 71.5q-35 44 -52 93.5t-17 100.5q0 99 76 174h-1q18 18 44 28.5t54 14.5t55.5 2.5t49.5 -7.5h8q-11 26 -33 51.5t-51.5 47.5t-64 39t-71.5 28l85 129q74 -30 134 -74.5t103 -99t68.5 -117.5t31.5 -129v-1z" />
    <glyph glyph-name="Delta" unicode="&#x2206;" horiz-adv-x="596" 
d="M406 251q6 57 -27 113q-15 23 -31 39t-31 23q-7 2 -13.5 4t-11.5 2q-11 0 -27 -6h1q-18 -7 -36 -26q-28 -31 -43 -112v1q-2 -11 -2.5 -24t0.5 -24q2 -23 10.5 -45t27.5 -42q41 -48 79 -57q10 -3 17 -3q19 0 42 23q15 15 24 32.5t14 37.5zM566 178q-11 -55 -41.5 -99.5
t-82.5 -78.5q-32 -20 -65.5 -31t-71.5 -11q-20 0 -39 3.5t-39 9.5h1q-41 14 -76 40.5t-64 68.5l1 -1q-30 42 -46 80.5t-18 71.5q-1 19 0 40.5t6 43.5q11 56 38.5 104t68.5 87q70 69 164 69q25 0 49 -6q62 -14 108.5 -52t75.5 -101q18 -40 28 -82t10 -82q0 -17 -1.5 -35.5
t-5.5 -38.5z" />
    <glyph glyph-name="product" unicode="&#x220f;" horiz-adv-x="590" 
d="M341 415q-6 4 -15.5 3t-20 -4t-21 -7t-18.5 -7l7 -51q14 1 29 5t25.5 12t15 20t-1.5 29zM428 435q4 -32 -6 -60t-30 -49t-47.5 -33t-57.5 -13q4 -26 9 -57.5t9 -53.5l-90 -10l-39 302q20 9 40 17q17 7 36 13.5t35 9.5q20 3 43 3t43.5 -6.5t35.5 -21.5t19 -41zM464 380
q0 39 -7 74.5t-24 62.5t-46 43t-73 16t-79 -21.5t-60 -56t-38 -78t-13 -86.5q0 -39 9 -78t28 -70.5t48.5 -51t70.5 -19.5q42 0 76 22t58 58.5t37 84.5t13 100zM552 400q0 -69 -17.5 -136.5t-51 -121t-83.5 -86.5t-115 -33q-69 0 -115.5 29.5t-75.5 77.5t-41.5 108t-12.5 120
t22.5 116.5t62 101t92 71t112.5 26.5q53 0 94.5 -23.5t70 -61.5t43.5 -87t15 -101z" />
    <glyph glyph-name="summation" unicode="&#x2211;" horiz-adv-x="598" 
d="M428 639q-51 2 -112.5 5.5t-126.5 5.5q21 -26 47 -60.5l52 -69t48.5 -64t36.5 -44.5v-74q-12 -17 -27 -42.5t-31 -55t-32.5 -60t-32.5 -57.5q15 3 39.5 5t50.5 3.5t50.5 2.5t39.5 1q1 15 2 34.5t3 37.5q2 21 3 43q25 5 48 2.5t42 -7.5q21 -5 41 -14l-5 -74
q-1 -42 -5.5 -91t-18.5 -87l-55 8q-33 3 -62 3h-22.5t-32.5 -0.5t-32 -1t-20 -0.5q-35 -3 -93.5 -18.5t-136.5 -42.5l-55 75q14 25 35 65t45 84.5t48 88t43 75.5q7 12 11.5 19t7.5 12l6 10t7 13q-18 18 -39.5 44.5t-44 57t-45.5 63.5t-43.5 62.5t-36.5 55t-25 40.5l59 104
l424 -17l81 6q-3 -32 -5 -57t-3 -48t-1.5 -46t-0.5 -49q0 -5 0.5 -16.5t2.5 -23.5q2 -14 4 -30q-6 -5 -22 -8t-34.5 -4.5t-37 -2t-30.5 1.5l-8 46q-3 20 -4.5 42t2.5 41z" />
    <glyph glyph-name="minus" unicode="&#x2212;" horiz-adv-x="485" 
d="M426 269q-12 -1 -31 -1.5t-43 -1t-51.5 -0.5h-55.5q-53 0 -106 -1t-113 -7l-11 125q54 5 108 6t109 1q56 0 111 1t113 7l10 -129h-40z" />
    <glyph glyph-name="radical" unicode="&#x221a;" horiz-adv-x="391" 
d="M366 36q0 -88 -59 -163h1q-58 -76 -152 -76q-32 0 -61.5 9t-54.5 29q-5 3 -12.5 9t-16 12.5t-15.5 11.5t-10 7q8 24 15 39.5t10 22.5q7 10 24 24t55 35q23 -18 39 -28.5t26 -15.5q0 3 7 14q20 26 20 82q0 62 -41 133q-11 19 -22.5 36.5t-22.5 35.5q-11 17 -22.5 36.5
t-22.5 36.5q-58 98 -58 174q0 29 7 57l-1 -1q11 45 37 86.5t68 80.5q65 62 198 106q50 -52 52 -81l-1 2l2 -17q1 -7 1.5 -17t0.5 -37q-79 -21 -110 -44q-70 -52 -70 -143q0 -53 42 -120q8 -14 17 -27.5t18 -27.5q14 -23 28.5 -45.5t27.5 -45.5q26 -48 41 -98t15 -92z" />
    <glyph glyph-name="infinity" unicode="&#x221e;" horiz-adv-x="843" 
d="M318 277q0 2 1 3q-9 17 -22 40.5t-25.5 44.5t-22.5 36t-14 15q-14 0 -23 -17.5t-14.5 -42t-7.5 -50.5t-2 -43q0 -14 1.5 -35.5t5 -42t10 -35.5t17.5 -15q13 0 26.5 14.5t26 35.5t23.5 46t20 46zM652 300q0 15 -1 38.5t-4 45.5t-9 38t-16 16q-19 0 -37 -14.5t-34 -37
t-30 -49t-25 -50.5q13 -20 30 -45.5t34.5 -48t33.5 -37.5t27 -15q10 0 16 19t9.5 45t4.5 52.5t1 42.5zM817 291q0 -26 -4 -58.5t-12.5 -66t-23 -65t-36 -56t-50.5 -39.5t-67 -15q-32 0 -61 11t-55 29t-48 41t-41 47q-15 -29 -33 -53.5t-41.5 -42.5t-54.5 -28t-71 -10
q-55 0 -92 29t-59.5 71.5t-32 91t-9.5 88.5q0 29 4.5 62.5t15 67t26.5 64.5t39.5 55t54 38t69.5 14q30 0 55.5 -10t46.5 -26t38 -37.5t31 -43.5q18 27 41 52t50 44.5t58.5 31t67.5 11.5q57 0 94.5 -31.5t59.5 -77t31 -97t9 -91.5z" />
    <glyph glyph-name="integral" unicode="&#x222b;" horiz-adv-x="345" 
d="M249 627q-9 18 -18.5 38t-17 36.5t-11.5 27t-3 10.5q-2 0 -3 1q-6 -20 -11 -48.5t-5 -62.5q0 -19 2.5 -55.5t6.5 -81.5t9.5 -94.5l10.5 -94.5l11 -87q10 -59 17 -119t7 -129q0 -14 -1 -27t-3 -23l1 3q-9 -77 -64 -126h1q-45 -41 -116 -41q-87 0 -172 86l100 121
q57 -60 72 -60t20 41q1 6 1.5 15.5t0.5 23.5q0 31 -1.5 57t-4 51t-6 49t-7.5 50v-1q-7 40 -15 95q-3 24 -6.5 57.5l-7 67t-6.5 64t-4 48.5q-4 45 -5.5 78.5t-1.5 53.5q0 121 43 181t119 60q33 0 69 -12q67 -24 116 -125z" />
    <glyph glyph-name="approxequal" unicode="&#x2248;" horiz-adv-x="582" 
d="M560 213q-8 -12 -25 -34t-40.5 -43t-52.5 -36t-62 -14q-27 0 -54 8.5t-52 27.5q-15 10 -27.5 18t-29.5 10q-9 1 -22 -5.5t-25 -16.5t-21 -21.5t-10 -20.5l-92 62q7 25 19.5 48.5t31 41.5t43 29t54.5 11q28 0 50.5 -7t52.5 -34q9 -8 22.5 -14.5t28.5 -10.5t29 -5.5t23 1.5
q4 0 18 9t30 23t30 31.5t18 34.5q22 -23 35.5 -45t27.5 -48zM520 450q-20 -68 -65.5 -107.5t-105.5 -39.5q-59 0 -109 37q-15 10 -31 19.5t-35 11.5q-9 0 -25.5 -8t-33 -20t-29.5 -25t-14 -23l-58 70q7 25 24 48.5t41 42t52.5 29.5t58.5 11q15 0 26.5 -1.5t22.5 -6t23 -13
t27 -21.5q17 -15 29.5 -23t30.5 -3q4 1 10 6.5t13 16.5t12.5 26.5t8.5 36.5q16 1 35 -2t37 -8t34 -12t27 -13z" />
    <glyph glyph-name="notequal" unicode="&#x2260;" horiz-adv-x="530" 
d="M435 125q-23 -2 -62 -3.5t-84 -2.5h-18q-15 -33 -30.5 -67.5t-28.5 -63.5q-15 -33 -30 -65l-141 74q7 17 16 35q8 16 17.5 37t20.5 44h-14t-16 -0.5t-14.5 -0.5h-7.5l-13 143q9 1 24.5 2.5t33.5 3t37.5 3t36.5 1.5q0 1 1 2t1 2l18 41q-23 -1 -46.5 -0.5t-42.5 0.5h-43
l1 151h105h45.5t34.5 1h7q15 39 32 82t31 79q17 42 33 83q26 -8 45 -16t33.5 -19.5t27 -27.5t24.5 -38q-4 -15 -11 -34q-6 -17 -15.5 -42t-23.5 -60q17 1 32 1.5t25 0.5l1 -150l-40 -2q-17 -1 -38 -1.5t-41 -1.5l-20 -46q41 2 79 4.5t54 4.5q0 -28 0.5 -43.5t1 -24.5
t1.5 -14t2 -12l-1 3l10 -52z" />
    <glyph glyph-name="lessequal" unicode="&#x2264;" horiz-adv-x="505" 
d="M438 25q-12 -1 -32 -2t-45 -2t-52.5 -1.5t-55.5 -1.5q-24 -1 -55 -2t-60 -2.5t-53.5 -3t-36.5 -2.5l-14 148q13 1 39.5 2.5t58.5 3t64.5 3t58.5 2.5h32l-4 2q-29 13 -58.5 26t-61.5 30t-67 39.5t-74 53.5l103 104q42 44 78.5 77t76.5 68l73 66l108 -108q-2 -2 -13 -12
t-28 -25.5t-37.5 -34.5t-41.5 -38t-39.5 -36.5t-31.5 -29.5q21 -12 41 -20t41 -16h-1q22 -8 49.5 -20t65.5 -29l-21 -88q7 1 14 1.5t15 2.5q0 -28 0.5 -44t1 -25t1.5 -14t2 -12l-1 3l11 -59z" />
    <glyph glyph-name="greaterequal" unicode="&#x2265;" horiz-adv-x="526" 
d="M438 25q-12 -1 -32 -2t-45 -2t-52.5 -1.5t-55.5 -1.5q-24 -1 -55 -2t-60 -2.5t-53.5 -3t-36.5 -2.5l-14 148l61 4l-30 75l36 24t27 17.5t21.5 13t18.5 10.5q20 11 38.5 23t38.5 29q-23 15 -59.5 39t-70.5 47q-40 26 -85 56l86 124l95 -60q39 -25 78.5 -51t88.5 -62h-1
q10 -8 23.5 -18t26.5 -19q15 -11 31 -22l7 -61q-43 -47 -95.5 -83.5t-108.5 -71.5l-5 -3q25 1 46.5 1t46 1t54.5 3.5t71 7.5q0 -28 0.5 -44t1 -25t1.5 -14t2 -12l-1 3l6 -59z" />
    <glyph glyph-name="uni22C6" unicode="&#x22c6;" horiz-adv-x="719" 
d="M495 353q23 -78 49 -161t50 -161l-45 -53l-216 180q-15 -20 -35 -48.5t-40 -59t-39 -59t-32 -47.5l-80 37q4 22 11.5 57t16 75t18 81t17.5 76q-15 12 -36.5 23.5t-44.5 23.5t-44.5 23.5t-36.5 22.5l13 77l207 56q22 83 46 159t47 133l72 -25l40 -217q19 6 51.5 16.5
t67 21t66 20.5t50.5 16l35 -61z" />
    <glyph glyph-name="lozenge" unicode="&#x25ca;" horiz-adv-x="606" 
d="M398 463l17 -56l60 79zM105 375l63 -47l18 72zM210 220l-35 -133l74 103zM308 622l-31 -133l54 16zM390 287l-62 -81l136 -116zM343 446l-80 -23l-1 -2l-36 -137l59 -43l81 100l5 8zM435 344l99 -322l-27 -31l-217 167l-129 -164l-59 34q8 45 20.5 106t29.5 130l-129 99
l9 53l172 51q23 84 46 157.5t43 124.5l44 -15l44 -214l173 56l26 -46z" />
    <glyph glyph-name="uniF8FF" unicode="&#xf8ff;" horiz-adv-x="697" 
d="M539 827q3 -45 -11.5 -78.5t-30.5 -57.5q-11 -14 -29 -27.5t-39 -24t-43.5 -16t-42.5 -3.5q-1 34 11.5 72.5t34.5 64.5q11 13 29.5 26t39.5 23t42.5 16t38.5 5zM470 64q19 0 32.5 10.5t22.5 26t14 34.5t9 37l1 5q-23 12 -40 30t-28.5 40t-17.5 47t-6 49q0 21 9.5 41.5
t24.5 38t33.5 32t36.5 24.5q-11 21 -32.5 33t-47.5 12q-16 0 -31.5 -6.5t-32.5 -14.5q-18 -10 -37 -17.5t-40 -7.5q-15 0 -30.5 6.5t-28.5 14.5q-8 5 -18 9.5t-19 7.5q-13 4 -25 4q-31 0 -52 -12.5t-34 -36.5t-19.5 -59t-7.5 -80q-1 -15 4.5 -40.5t14.5 -55t22.5 -59.5
t29 -54.5t33.5 -40t37 -15.5q9 0 21 4.5t20 12.5q17 17 32 29t36 12q22 0 43 -13t41 -34q8 -8 17.5 -11t12.5 -3zM627 209q-6 -30 -17 -67t-30.5 -70t-48 -55t-68.5 -22q-15 0 -28.5 6.5t-27.5 14.5q-12 7 -25 12.5t-24 5.5q-9 0 -20 -5.5t-22 -10.5q-14 -8 -31 -16t-38 -8
q-42 0 -79.5 23t-67 68t-48.5 111t-23 152q-3 51 4 94t25.5 74.5t50 50.5t79.5 23q29 2 51.5 -7t39.5 -17q16 -8 32 -14t33 -6q16 0 31.5 6t32.5 14q20 9 41 16.5t42 7.5q30 0 54.5 -6t43 -24t30 -52t14.5 -89q-17 -6 -35.5 -12.5t-34 -16t-26 -22t-10.5 -30.5q0 -48 25 -76
t68 -42z" />
    </font>
</defs>
</svg>
