<svg width="1440" height="3818" viewBox="0 0 1440 3818" fill="none" xmlns="http://www.w3.org/2000/svg">
	<path d="M994.5 1678C1349.5 1708 1477.33 1234.5 1547 1068L1694.5 2905H-199V2414C-77.3334 2399.67 173.8 2318 205 2106C244 1841 705.094 1653.54 994.5 1678Z" fill="url(#paint0_linear_2_69)" fill-opacity="0.1" />
	<path d="M464 610C109 640 -18.8333 166.5 -88.5 0L-236 1837H1657.5V1346C1535.83 1331.67 1284.7 1250 1253.5 1038C1214.5 773 753.406 585.543 464 610Z" fill="url(#paint1_linear_2_69)" fill-opacity="0.1" />
	<path d="M501 2591C146 2621 18.1667 2147.5 -51.5 1981L-199 3818H1694.5V3327C1572.83 3312.67 1321.7 3231 1290.5 3019C1251.5 2754 790.406 2566.54 501 2591Z" fill="url(#paint2_linear_2_69)" fill-opacity="0.1" />
	<defs>
		<linearGradient id="paint0_linear_2_69" x1="747.75" y1="1068" x2="747.75" y2="2905" gradientUnits="userSpaceOnUse">
			<stop stop-color="white" />
			<stop offset="1" stop-color="white" stop-opacity="0" />
		</linearGradient>
		<linearGradient id="paint1_linear_2_69" x1="710.75" y1="0" x2="710.75" y2="1837" gradientUnits="userSpaceOnUse">
			<stop stop-color="white" />
			<stop offset="1" stop-color="white" stop-opacity="0" />
		</linearGradient>
		<linearGradient id="paint2_linear_2_69" x1="747.75" y1="1981" x2="747.75" y2="3477.5" gradientUnits="userSpaceOnUse">
			<stop stop-color="white" />
			<stop offset="1" stop-color="white" stop-opacity="0" />
		</linearGradient>
	</defs>
</svg>
